<?xml version="1.0" encoding="UTF-8" standalone="no"?>
<!DOCTYPE svg PUBLIC "-//W3C//DTD SVG 1.1//EN" "http://www.w3.org/Graphics/SVG/1.1/DTD/svg11.dtd">
<svg width="100%" height="100%" viewBox="0 0 63 102" version="1.1" xmlns="http://www.w3.org/2000/svg" xmlns:xlink="http://www.w3.org/1999/xlink" xml:space="preserve" xmlns:serif="http://www.serif.com/" style="fill-rule:evenodd;clip-rule:evenodd;stroke-linejoin:round;stroke-miterlimit:2;">
    <g transform="matrix(1,0,0,1,-260.094,0)">
        <g transform="matrix(1,0,0,1,260.094,0)">
            <g>
                <g transform="matrix(1,0,0,1,-0.762,-0.765)">
                    <path d="M62.022,32.3C62.388,38.989 59.65,45.007 56.173,50.733C51.451,58.509 46.073,65.846 40.673,73.159C39.362,74.935 37.925,76.619 36.556,78.352C34.456,81.008 29.675,80.877 27.634,78.404C24.885,75.075 22.314,71.616 19.789,68.121C16.428,63.469 13.126,58.773 9.998,53.961C6.6,48.739 3.478,43.364 2.432,37.1C1.21,30.183 2.524,23.053 6.132,17.026C9.311,11.382 14.305,6.975 20.3,4.523C30.97,0.156 41.031,1.507 50.325,8.295C57.843,13.952 62.2,22.893 62.022,32.3M32.28,4.6C31.058,4.658 30.014,4.623 28.995,4.769C19.851,6.08 12.827,10.619 8.144,18.63C5.716,22.779 4.465,27.514 4.528,32.321C4.564,38.029 6.543,43.201 9.375,48.081C12.475,53.422 16.075,58.436 19.608,63.486C22.694,67.895 25.879,72.235 29.276,76.412C29.921,77.325 30.971,77.869 32.089,77.869C33.196,77.869 34.239,77.335 34.885,76.435C35.791,75.335 36.685,74.222 37.542,73.085C40.847,68.704 44.056,64.253 47.169,59.73C50.669,54.651 54.275,49.64 56.88,44.013C58.675,40.29 59.608,36.21 59.608,32.078C59.608,17.06 47.297,4.682 32.28,4.6" style="fill:rgb(225,8,25);fill-rule:nonzero;"/>
                </g>
                <path d="M31.352,80.773C29.285,80.828 27.296,79.969 25.92,78.426C22.968,74.851 20.273,71.189 18.027,68.08C13.971,62.469 10.941,58.086 8.2,53.87C5.039,49.008 1.573,43.259 0.452,36.544C-0.812,29.343 0.554,21.922 4.3,15.643C7.618,9.762 12.825,5.17 19.074,2.613C30.067,-1.887 40.574,-0.569 50.293,6.53C58.118,12.429 62.661,21.732 62.5,31.53C62.886,38.954 59.67,45.341 56.469,50.612C51.529,58.746 45.641,66.722 40.908,73.13C40.04,74.305 39.108,75.448 38.216,76.553C37.731,77.153 37.245,77.753 36.767,78.353C35.45,79.923 33.49,80.814 31.442,80.773L31.352,80.773ZM60.057,32.745C59.835,36.566 58.879,40.309 57.242,43.768C54.738,48.799 51.807,53.607 48.482,58.138L47.426,59.667C44.281,64.235 41.026,68.743 37.767,73.067C36.993,74.092 36.138,75.167 35.078,76.458C34.431,77.274 33.55,77.872 32.553,78.171C33.443,77.996 34.245,77.519 34.825,76.822C35.309,76.209 35.802,75.601 36.295,74.994C37.175,73.911 38.085,72.794 38.918,71.66C44.898,63.56 49.832,56.774 54.354,49.327C57.197,44.647 60.054,39.055 60.054,32.746M31.57,2.493C27.596,2.532 23.669,3.349 20.01,4.9C14.267,7.255 9.483,11.481 6.437,16.89C2.986,22.672 1.727,29.505 2.891,36.137C3.935,42.382 7.249,47.869 10.274,52.522C12.992,56.7 16,61.054 20.031,66.631C22.255,69.709 24.92,73.331 27.831,76.851C28.378,77.469 29.099,77.907 29.9,78.107C28.974,77.781 28.161,77.198 27.554,76.427C24.495,72.664 21.406,68.534 17.833,63.427L16.677,61.777C13.558,57.333 10.333,52.738 7.544,47.933C4.157,42.1 2.564,36.9 2.53,31.563C2.465,26.533 3.774,21.58 6.315,17.239C11.115,9.023 18.434,4.157 28.059,2.779C28.815,2.685 29.577,2.637 30.339,2.634C30.698,2.625 31.071,2.617 31.461,2.599L31.521,2.599C35.79,2.604 40.002,3.584 43.835,5.465C40.036,3.527 35.835,2.509 31.57,2.493M31.547,5.07C31.147,5.089 30.765,5.098 30.397,5.106C29.733,5.107 29.069,5.148 28.41,5.227C20.024,6.195 12.593,11.132 8.45,18.488C6.133,22.446 4.94,26.962 5,31.548C5.032,36.434 6.518,41.248 9.68,46.695C12.416,51.408 15.61,55.959 18.698,60.36L19.857,62.013C23.395,67.067 26.449,71.152 29.47,74.868C29.904,75.463 30.584,75.831 31.32,75.868L31.326,75.868C32.056,75.834 32.732,75.473 33.166,74.885C34.204,73.624 35.038,72.572 35.791,71.575C39.033,67.281 42.262,62.803 45.391,58.264L46.45,56.731C49.692,52.315 52.553,47.632 55,42.731C56.721,39.17 57.616,35.266 57.616,31.31C57.616,16.98 45.877,5.164 31.547,5.07M46.968,7.249C53.895,11.776 58.566,19.056 59.794,27.24C59.887,27.865 59.958,28.491 60.007,29.116C59.426,20.968 55.35,13.456 48.834,8.528C48.215,8.077 47.593,7.65 46.968,7.249" style="fill:rgb(225,8,25);fill-rule:nonzero;"/>
                <g transform="matrix(1,0,0,1,-7.383,-7.7)">
                    <path d="M38.655,58.907C28.062,58.863 19.37,50.135 19.37,39.542C19.37,28.919 28.112,20.177 38.735,20.177C49.359,20.177 58.1,28.919 58.1,39.542C58.1,39.586 58.1,39.63 58.1,39.674C58.076,50.233 49.381,58.908 38.822,58.908C38.768,58.908 38.714,58.907 38.66,58.907M21.909,39.6C21.925,48.805 29.504,56.371 38.709,56.371C47.925,56.371 55.509,48.787 55.509,39.571C55.509,30.355 47.925,22.771 38.709,22.771C38.698,22.771 38.688,22.771 38.677,22.771C28.917,22.782 21.611,31.14 21.909,39.604" style="fill:rgb(225,8,25);fill-rule:nonzero;"/>
                </g>
                <g transform="matrix(1,0,0,1,-6.62,-6.937)">
                    <path d="M37.82,59.38C32.39,59.354 27.183,57.187 23.337,53.354C19.472,49.509 17.312,44.267 17.346,38.815C17.346,38.795 17.346,38.775 17.346,38.755C17.346,27.466 26.635,18.177 37.924,18.177C37.941,18.177 37.959,18.177 37.976,18.177C43.391,18.142 48.597,20.295 52.406,24.143C56.341,28.051 58.56,33.37 58.57,38.916C58.486,50.169 49.205,59.381 37.952,59.38L37.82,59.38M38.166,20.65L38,20.65C37.981,20.65 37.963,20.65 37.944,20.65C28.001,20.65 19.819,28.832 19.819,38.775C19.819,38.79 19.819,38.805 19.819,38.82C19.789,43.612 21.688,48.22 25.084,51.6C28.466,54.971 33.045,56.876 37.82,56.9L37.952,56.9C47.853,56.904 56.021,48.8 56.097,38.9C56.084,34.019 54.127,29.338 50.662,25.9C47.362,22.558 42.859,20.668 38.162,20.653M37.901,56.868C37.885,56.868 37.868,56.868 37.852,56.868C28.004,56.868 19.901,48.765 19.901,38.917C19.901,38.896 19.901,38.874 19.901,38.853C19.824,34.181 21.632,29.669 24.914,26.343C28.299,22.79 32.997,20.776 37.904,20.775L37.926,20.775C47.806,20.799 55.935,28.905 55.988,38.785C55.988,38.818 55.988,38.851 55.988,38.884C55.988,48.748 47.871,56.865 38.007,56.865C37.994,56.865 37.981,56.865 37.968,56.865L37.901,56.868ZM37.93,23.247L37.911,23.247C33.675,23.25 29.621,24.989 26.7,28.056C23.874,30.909 22.317,34.785 22.383,38.8L22.383,38.869C22.344,42.945 23.942,46.871 26.817,49.761C29.734,52.74 33.737,54.413 37.906,54.394L37.96,54.394C46.452,54.319 53.397,47.313 53.397,38.821C53.397,30.319 46.436,23.308 37.935,23.247" style="fill:rgb(225,8,25);fill-rule:nonzero;"/>
                </g>
            </g>
        </g>
        <g transform="matrix(1,0,0,1,276.949,83.08)">
            <path d="M25.137,18.153L14.3,11.9L3.462,18.153C3.111,18.356 2.713,18.462 2.307,18.462C1.041,18.462 -0.002,17.42 -0.002,16.153C-0.002,15.329 0.439,14.565 1.153,14.153L9.683,9.228L1.154,4.306C0.44,3.894 -0.001,3.13 -0.001,2.306C-0.001,1.039 1.042,-0.003 2.308,-0.003C2.714,-0.003 3.112,0.103 3.463,0.306L14.3,6.566L25.137,0.31C25.488,0.107 25.886,0.001 26.292,0.001C27.558,0.001 28.601,1.043 28.601,2.31C28.601,3.134 28.16,3.898 27.446,4.31L18.916,9.235L27.446,14.16C28.16,14.572 28.601,15.336 28.601,16.16C28.601,17.427 27.558,18.469 26.292,18.469C25.886,18.469 25.488,18.363 25.137,18.16L25.137,18.153Z" style="fill:rgb(225,8,25);fill-rule:nonzero;"/>
        </g>
    </g>
</svg>
