<?xml version="1.0" encoding="UTF-8" standalone="no"?>
<!DOCTYPE svg PUBLIC "-//W3C//DTD SVG 1.1//EN" "http://www.w3.org/Graphics/SVG/1.1/DTD/svg11.dtd">
<svg width="100%" height="100%" viewBox="0 0 85 86" version="1.1" xmlns="http://www.w3.org/2000/svg" xmlns:xlink="http://www.w3.org/1999/xlink" xml:space="preserve" xmlns:serif="http://www.serif.com/" style="fill-rule:evenodd;clip-rule:evenodd;stroke-linejoin:round;stroke-miterlimit:2;">
    <g>
        <g>
            <g transform="matrix(1,0,0,1,-0.588,-0.59)">
                <path d="M45.07,47.46C45.045,47.851 45.008,48.16 45.007,48.476C44.995,53.497 45.015,58.52 44.959,63.541C44.791,64.423 45.368,65.289 46.247,65.473C49.241,66.419 51.604,68.751 52.589,71.733C52.946,72.781 53.129,73.88 53.129,74.987C53.129,80.518 48.577,85.069 43.047,85.069C37.516,85.069 32.965,80.518 32.965,74.987C32.965,70.787 35.589,67.007 39.525,65.54C41.279,64.924 41.115,65.432 41.12,63.34C41.13,58.407 41.11,53.474 41.1,48.54C41.1,48.22 41.071,47.9 41.045,47.352C40.745,47.536 40.462,47.747 40.199,47.982C37.619,50.98 34.119,53.042 30.247,53.846C27.872,54.204 25.473,54.377 23.071,54.365C21.611,54.432 21.609,54.378 21.087,55.739C19.554,60.048 15.294,62.816 10.734,62.467C6.714,62.07 3.283,59.344 1.989,55.517C0.342,50.451 2.957,44.907 7.914,42.957C12.554,41.216 17.825,43.107 20.3,47.4C20.7,48.15 20.911,49 21.293,49.763C21.452,50.085 21.745,50.321 22.093,50.407C25.117,50.453 28.163,50.648 31.077,49.539C35.132,48.098 38.377,44.979 39.977,40.984C40.777,38.965 41.167,36.806 41.124,34.635C41.139,26.493 41.117,18.351 41.109,10.209L41.109,9.334L40.892,9.192C40.569,9.449 40.263,9.727 39.974,10.022C37.476,12.883 34.985,15.75 32.502,18.622C32.051,19.316 31.21,19.658 30.402,19.475C29.498,19.293 28.841,18.492 28.841,17.569C28.841,17.048 29.05,16.548 29.422,16.183C30.507,14.883 31.645,13.631 32.754,12.353C35.578,9.106 38.4,5.855 41.22,2.6C42.491,1.143 43.615,1.126 44.857,2.552C48.776,7.051 52.688,11.558 56.591,16.073C57.74,17.403 57.352,18.989 55.766,19.457C54.934,19.667 54.054,19.322 53.587,18.602C51.102,15.729 48.614,12.859 46.121,9.992C45.867,9.7 45.557,9.457 45.092,9.022C45.053,9.584 45.016,9.866 45.016,10.148C45.004,18.439 44.931,26.73 45.016,35.02C44.843,40.91 48.189,46.369 53.516,48.888C55.457,49.871 57.598,50.397 59.774,50.425C61.11,50.465 62.449,50.425 63.786,50.444C63.831,50.45 63.876,50.453 63.921,50.453C64.424,50.453 64.852,50.069 64.905,49.568C66.153,45.277 70.113,42.305 74.582,42.305C78.705,42.305 82.43,44.835 83.95,48.668C85.83,53.699 83.479,59.399 78.599,61.642C77.338,62.177 75.983,62.453 74.613,62.453C70.347,62.453 66.512,59.777 65.04,55.774C64.519,54.374 64.501,54.412 62.986,54.366C61.028,54.365 59.072,54.262 57.125,54.058C52.881,53.47 48.981,51.392 46.125,48.198C45.925,47.981 45.725,47.76 45.509,47.557C45.455,47.505 45.343,47.516 45.076,47.457M43.048,81.179C43.05,81.179 43.053,81.179 43.055,81.179C46.456,81.179 49.255,78.38 49.255,74.979C49.255,71.578 46.456,68.779 43.055,68.779C39.654,68.779 36.855,71.578 36.855,74.979C36.855,74.981 36.855,74.983 36.855,74.985C36.92,78.358 39.675,81.113 43.048,81.179M68.42,52.313C68.42,52.332 68.42,52.352 68.42,52.371C68.42,55.745 71.196,58.521 74.57,58.521C77.944,58.521 80.72,55.745 80.72,52.371C80.72,48.997 77.944,46.221 74.57,46.221C74.559,46.221 74.549,46.221 74.539,46.221C71.192,46.219 68.433,48.966 68.42,52.313M17.687,52.42C17.687,52.396 17.687,52.371 17.687,52.347C17.687,48.995 14.939,46.232 11.587,46.215C8.213,46.227 5.434,48.984 5.394,52.358C5.394,52.37 5.394,52.381 5.394,52.393C5.394,55.756 8.159,58.523 11.522,58.526C11.556,58.527 11.59,58.527 11.624,58.527C14.95,58.527 17.687,55.79 17.687,52.464C17.687,52.449 17.687,52.435 17.687,52.42" style="fill:rgb(225,8,25);fill-rule:nonzero;"/>
            </g>
            <path d="M42.331,85.389C41.178,85.39 40.033,85.204 38.941,84.836C36.086,83.832 33.751,81.72 32.467,78.979C31.174,76.237 31.114,73.068 32.302,70.279C33.433,67.41 35.74,65.158 38.635,64.095C38.97,63.978 39.235,63.895 39.454,63.835C39.507,63.819 39.566,63.802 39.621,63.785L39.621,62.743C39.629,58.95 39.625,55.156 39.609,51.363L39.6,48.736C36.975,51.494 33.567,53.382 29.837,54.146C28.013,54.465 26.164,54.624 24.312,54.622C23.712,54.638 23.112,54.655 22.52,54.683L22.351,54.69C22.07,54.703 21.781,54.715 21.651,54.74C21.535,54.979 21.432,55.223 21.343,55.473C19.666,60.148 15.043,63.152 10.09,62.784C5.691,62.371 1.932,59.389 0.53,55.2C-1.263,49.686 1.581,43.652 6.974,41.525C12.046,39.6 17.824,41.672 20.516,46.383C20.738,46.819 20.93,47.269 21.092,47.731C21.217,48.083 21.359,48.429 21.52,48.766C21.555,48.82 21.599,48.868 21.649,48.909L22.457,48.924C25.157,48.978 27.719,49.031 30.168,48.099C33.994,46.754 37.054,43.813 38.55,40.044C39.304,38.135 39.67,36.096 39.627,34.044C39.637,28.061 39.635,22.079 39.62,16.096L39.613,10.558C37.774,12.668 35.938,14.782 34.106,16.899L32.606,18.634C32.061,19.394 31.181,19.846 30.245,19.846C28.999,19.846 27.885,19.045 27.49,17.863C27.2,16.866 27.448,15.786 28.144,15.015C28.859,14.159 29.605,13.315 30.327,12.494C30.714,12.054 31.101,11.613 31.487,11.172L34.487,7.708C36.304,5.609 38.124,3.513 39.946,1.419C40.538,0.593 41.468,0.073 42.481,0C43.468,0.065 44.376,0.568 44.954,1.37C48.874,5.869 52.786,10.376 56.69,14.889C57.437,15.67 57.732,16.783 57.468,17.831C57.073,19.024 55.95,19.835 54.692,19.835C53.748,19.835 52.859,19.377 52.311,18.608C49.988,15.923 47.663,13.241 45.335,10.562C45.332,12.614 45.325,14.665 45.316,16.716C45.296,22.516 45.275,28.521 45.332,34.416C45.168,39.967 48.322,45.114 53.343,47.487C55.161,48.41 57.167,48.901 59.206,48.921C59.967,48.943 60.728,48.94 61.49,48.937C62.06,48.937 62.63,48.931 63.204,48.937C63.261,48.938 63.319,48.934 63.375,48.924C63.375,48.911 63.4,48.855 63.428,48.748C64.638,44.524 68.275,41.418 72.636,40.882C77.576,40.308 82.328,43.121 84.2,47.729C86.262,53.216 83.7,59.441 78.373,61.887C76.996,62.474 75.515,62.776 74.019,62.776C69.373,62.776 65.196,59.861 63.593,55.5C63.503,55.239 63.398,54.984 63.279,54.735C63.019,54.706 62.758,54.69 62.497,54.689L62.365,54.689C61.961,54.678 61.556,54.668 61.151,54.659C59.567,54.651 57.984,54.556 56.41,54.373C52.183,53.792 48.275,51.796 45.326,48.712L45.326,52.23C45.326,55.748 45.326,59.385 45.283,62.964C45.274,63.735 45.383,63.839 45.944,64.022C49.2,65.055 51.773,67.588 52.856,70.828C54.565,75.922 52.333,81.562 47.6,84.106C45.967,84.938 44.163,85.377 42.331,85.389M41.284,45.026L41.391,47.22C41.407,47.506 41.42,47.726 41.42,47.947L41.428,51.361C41.438,55.157 41.442,58.953 41.44,62.748L41.44,63.23C41.448,64.675 41.34,65.175 39.964,65.578C39.772,65.634 39.533,65.704 39.236,65.808C36.831,66.699 34.919,68.576 33.983,70.964C32.992,73.274 33.034,75.9 34.098,78.177C35.56,81.461 38.832,83.586 42.426,83.586C43.949,83.586 45.447,83.205 46.784,82.477C50.711,80.366 52.563,75.688 51.146,71.461C50.262,68.736 48.107,66.604 45.374,65.748C44.118,65.44 43.287,64.222 43.458,62.94C43.497,59.371 43.499,55.74 43.501,52.226L43.501,47.884C43.501,47.654 43.519,47.425 43.54,47.172L43.633,45.764L44.66,45.979C44.739,45.995 44.801,46.004 44.849,46.012C45.102,46.033 45.342,46.137 45.532,46.306C45.718,46.481 45.892,46.669 46.067,46.857L46.187,46.987C48.904,50.023 52.611,52.001 56.646,52.567C58.153,52.74 59.668,52.83 61.184,52.836C61.594,52.845 62.003,52.856 62.412,52.867L62.543,52.867C64.307,52.92 64.667,53.181 65.291,54.867C66.176,57.283 68.028,59.225 70.4,60.223C72.707,61.227 75.331,61.227 77.638,60.223C80.984,58.77 83.159,55.454 83.159,51.806C83.159,46.771 79.016,42.629 73.982,42.629C73.6,42.629 73.219,42.652 72.84,42.7C69.238,43.167 66.234,45.721 65.192,49.2C65.023,50.156 64.146,50.837 63.178,50.764C62.619,50.756 62.058,50.759 61.497,50.764C60.732,50.764 59.939,50.771 59.152,50.746C56.838,50.71 54.563,50.147 52.5,49.1C46.866,46.438 43.327,40.664 43.513,34.435C43.455,28.524 43.477,22.516 43.497,16.706C43.506,14.323 43.513,11.938 43.518,9.553C43.518,9.353 43.533,9.153 43.557,8.868C43.569,8.728 43.582,8.568 43.596,8.368L43.728,6.46L45.128,7.768C45.286,7.915 45.428,8.04 45.549,8.152C45.787,8.355 46.012,8.574 46.222,8.806C48.716,11.673 51.205,14.543 53.69,17.417C54.29,18.11 54.628,18.082 54.922,17.995C55.287,17.921 55.589,17.665 55.722,17.318C55.802,16.863 55.648,16.397 55.314,16.079C51.412,11.568 47.501,7.063 43.582,2.565C43.282,2.225 42.854,1.82 42.482,1.82C42.092,1.82 41.634,2.251 41.319,2.613C39.495,4.704 37.676,6.8 35.862,8.9L32.862,12.366C32.474,12.812 32.083,13.256 31.693,13.699C30.979,14.509 30.241,15.346 29.542,16.183C29.251,16.482 29.131,16.91 29.226,17.316C29.363,17.678 29.68,17.944 30.061,18.016C30.335,18.091 30.655,18.109 31.233,17.444L32.733,15.71C34.72,13.417 36.71,11.126 38.703,8.837C38.925,8.594 39.166,8.368 39.424,8.163C39.517,8.086 39.61,8.008 39.701,7.927L40.222,7.461L41.434,8.256L41.442,16.096C41.451,22.081 41.454,28.065 41.449,34.05C41.493,36.342 41.08,38.62 40.232,40.75C38.529,44.97 35.099,48.266 30.815,49.8C28.035,50.859 25.18,50.8 22.415,50.744L21.489,50.727C20.799,50.637 20.197,50.207 19.889,49.583C19.699,49.188 19.53,48.782 19.383,48.369C19.248,47.982 19.089,47.604 18.905,47.238C16.637,43.37 11.882,41.664 7.672,43.206C3.156,44.987 0.773,50.038 2.272,54.656C3.458,58.117 6.56,60.586 10.199,60.966C14.362,61.281 18.25,58.753 19.652,54.821C20.28,53.184 20.599,52.947 22.278,52.872L22.444,52.865C23.05,52.836 23.66,52.82 24.27,52.803C26.016,52.807 27.759,52.659 29.479,52.363C33.159,51.601 36.485,49.639 38.933,46.788C39.128,46.582 39.349,46.404 39.591,46.256C39.691,46.19 39.8,46.117 39.922,46.027L41.284,45.026ZM42.466,81.5L42.459,81.5C38.563,81.497 35.358,78.291 35.358,74.394C35.358,70.497 38.566,67.289 42.464,67.289C42.466,67.289 42.467,67.289 42.469,67.289C46.366,67.29 49.573,70.497 49.573,74.395C49.573,78.292 46.365,81.5 42.468,81.5C42.467,81.5 42.467,81.5 42.466,81.5M42.461,79.68C45.333,79.612 47.679,77.276 47.761,74.405C47.693,71.526 45.346,69.177 42.468,69.105C42.467,69.105 42.465,69.105 42.464,69.105C39.564,69.105 37.178,71.491 37.178,74.391C37.178,77.289 39.562,79.675 42.46,79.677M73.978,58.877L73.878,58.877C71.918,58.806 70.065,57.953 68.737,56.51C67.504,55.224 66.849,53.489 66.925,51.71C66.895,49.931 67.58,48.211 68.825,46.94C70.163,45.536 72.015,44.733 73.955,44.716L74.011,44.716C77.871,44.716 81.047,47.892 81.047,51.752C81.047,53.667 80.265,55.502 78.883,56.828C77.576,58.117 75.819,58.85 73.983,58.872M73.983,46.535L73.962,46.535C72.515,46.541 71.132,47.141 70.141,48.195C69.226,49.12 68.723,50.377 68.748,51.678L68.748,51.772C68.691,53.071 69.171,54.338 70.076,55.272C71.062,56.352 72.439,56.996 73.9,57.058C73.912,57.058 73.924,57.058 73.936,57.058C76.821,57.058 79.195,54.684 79.195,51.8C79.195,48.928 76.843,46.561 73.972,46.541M10.95,58.846L10.932,58.846C7.072,58.839 3.9,55.662 3.9,51.802C3.9,51.788 3.9,51.775 3.9,51.761C3.933,47.892 7.119,44.725 10.988,44.714L11,44.714C12.871,44.71 14.666,45.463 15.974,46.8C17.291,48.14 18.023,49.949 18.009,51.828C18.009,51.842 18.009,51.856 18.009,51.871C18.009,55.695 14.862,58.843 11.037,58.843C11.008,58.843 10.979,58.842 10.95,58.842M10.985,46.53C8.109,46.538 5.74,48.894 5.716,51.77C5.716,51.779 5.716,51.788 5.716,51.797C5.716,54.661 8.072,57.019 10.936,57.022L10.949,57.022C10.972,57.022 10.994,57.022 11.017,57.022C13.854,57.022 16.189,54.688 16.189,51.85C16.189,51.841 16.189,51.831 16.189,51.822C16.201,50.422 15.656,49.073 14.676,48.074C13.708,47.087 12.382,46.532 11,46.534L10.985,46.53Z" style="fill:rgb(225,8,25);fill-rule:nonzero;"/>
        </g>
    </g>
</svg>
