<?xml version="1.0" encoding="UTF-8" standalone="no"?>
<!DOCTYPE svg PUBLIC "-//W3C//DTD SVG 1.1//EN" "http://www.w3.org/Graphics/SVG/1.1/DTD/svg11.dtd">
<svg width="100%" height="100%" viewBox="0 0 135 82" version="1.1" xmlns="http://www.w3.org/2000/svg" xmlns:xlink="http://www.w3.org/1999/xlink" xml:space="preserve" xmlns:serif="http://www.serif.com/" style="fill-rule:evenodd;clip-rule:evenodd;stroke-linejoin:round;stroke-miterlimit:2;">
    <g>
        <g>
            <g transform="matrix(1,0,0,1,-0.205,-0.235)">
                <path d="M61.517,11.881C59.193,7.599 59.481,4.561 62.331,2.395C64.794,0.502 68.265,0.558 70.666,2.529C73.359,4.677 73.619,7.803 71.334,11.759C72.961,12.002 74.534,12.213 76.1,12.477C99.824,16.477 117.764,36.564 118.352,59.852C118.385,61.188 118.718,61.652 120.152,61.588C122.511,61.474 124.88,61.537 127.244,61.55C131.015,61.569 133.802,64.1 133.888,67.559C133.971,70.948 131.331,73.569 127.647,73.876C126.887,73.957 126.159,74.226 125.53,74.66C123.152,76.296 120.872,78.06 118.481,79.68C117.769,80.166 116.935,80.443 116.074,80.48C104.899,80.537 93.724,80.531 82.55,80.531C70.077,80.531 57.605,80.527 45.132,80.518C36.368,80.518 27.604,80.549 18.841,80.493C17.936,80.451 17.06,80.157 16.312,79.646C13.922,78.03 11.648,76.253 9.273,74.615C8.637,74.19 7.906,73.928 7.145,73.852C3.333,73.5 0.85,70.914 1.007,67.357C1.156,64 3.85,61.6 7.538,61.568C9.625,61.55 11.714,61.499 13.797,61.589C15.024,61.643 15.377,61.237 15.405,60.077C15.533,51.122 18.258,42.393 23.249,34.956C31.888,22.052 44.105,14.448 59.9,12.143C60.4,12.07 60.9,11.982 61.518,11.882M66.818,61.557C82.305,61.557 97.792,61.565 113.279,61.58C114.472,61.58 114.903,61.314 114.847,60.089C114.664,55.065 113.658,50.106 111.869,45.408C103.59,24.132 81.376,11.947 58.16,15.928C36.118,19.707 19.445,38.51 18.924,60.128C18.897,61.235 19.169,61.587 20.355,61.585C35.843,61.55 51.33,61.542 66.817,61.559M67.589,65.049L24.059,65.049C18.635,65.049 13.211,65.039 7.788,65.06C5.967,65.066 4.767,66.171 4.788,67.725C4.805,69.23 5.945,70.255 7.713,70.349C7.99,70.364 8.269,70.357 8.547,70.357L84.339,70.357C98.478,70.357 112.617,70.359 126.756,70.364C128.756,70.364 130.087,69.314 130.104,67.732C130.122,66.113 128.826,65.044 126.836,65.044L67.59,65.044M120.371,73.983L14.71,73.983C16.575,75.992 19.212,77.111 21.953,77.055C34.935,76.877 47.921,76.971 60.905,76.972L115.163,76.972C115.663,77.006 116.163,76.907 116.612,76.684C117.8,75.918 118.912,75.044 120.371,73.984M69.343,7.447C69.361,5.881 68.093,4.575 66.527,4.547C66.477,4.544 66.426,4.543 66.376,4.543C64.815,4.543 63.519,5.804 63.477,7.365C63.51,8.932 64.81,10.201 66.377,10.197C67.945,10.255 69.283,9.015 69.344,7.447" style="fill:rgb(225,8,25);fill-rule:nonzero;"/>
            </g>
            <path d="M88.665,81.058L82.34,81.058C75.499,81.058 68.659,81.056 61.82,81.051L44.92,81.045L37.779,81.045C31.501,81.05 25.009,81.057 18.623,81.016C17.557,80.976 16.523,80.634 15.643,80.031C14.35,79.157 13.077,78.225 11.843,77.325C10.79,76.555 9.695,75.755 8.6,75C8.078,74.655 7.48,74.442 6.858,74.377C2.584,73.977 -0.169,71.053 0.007,67.09C0.172,63.347 3.25,60.603 7.324,60.566L8.504,60.554C10.181,60.534 11.915,60.514 13.626,60.589C14.166,60.616 14.272,60.521 14.277,60.516C14.282,60.511 14.39,60.398 14.403,59.824C14.541,50.726 17.31,41.859 22.375,34.3C31.122,21.239 43.638,13.448 59.575,11.145C59.758,11.119 59.941,11.09 60.129,11.059C58.168,6.927 58.664,3.811 61.629,1.559C64.384,-0.565 68.274,-0.504 70.962,1.705C72.938,3.281 74.695,6.135 72.338,10.928L72.776,10.992C73.876,11.151 74.952,11.307 76.025,11.492C100.288,15.581 118.334,35.816 118.935,59.604C118.952,60.294 119.058,60.461 119.103,60.504C119.125,60.525 119.275,60.626 119.898,60.598C121.751,60.508 123.628,60.527 125.445,60.544C125.978,60.549 126.508,60.554 127.035,60.558C131.247,60.579 134.373,63.422 134.469,67.316C134.562,71.085 131.631,74.071 127.501,74.416C126.883,74.486 126.291,74.707 125.778,75.06C124.673,75.82 123.567,76.624 122.498,77.403C121.273,78.294 120.006,79.216 118.723,80.084C117.878,80.661 116.886,80.985 115.863,81.019C106.809,81.066 97.619,81.07 88.663,81.07M82.34,79.524L85.55,79.524C95.482,79.524 105.757,79.524 115.861,79.473C116.56,79.438 117.237,79.211 117.816,78.817C119.076,77.964 120.333,77.05 121.547,76.166C122.624,75.382 123.739,74.571 124.86,73.8C125.605,73.285 126.469,72.967 127.37,72.877C130.637,72.605 132.956,70.277 132.885,67.342C132.809,64.311 130.348,62.098 127.031,62.081C126.498,62.081 125.964,62.076 125.431,62.067C123.638,62.05 121.786,62.031 119.98,62.119C119.288,62.214 118.585,62.035 118.024,61.619C117.531,61.082 117.286,60.362 117.349,59.636C116.768,36.576 99.276,16.962 75.757,13C74.695,12.821 73.63,12.667 72.545,12.509L69.879,12.116L70.434,11.154C72.502,7.574 72.341,4.793 69.954,2.889C67.843,1.152 64.786,1.1 62.618,2.766C60.057,4.714 59.871,7.344 62.018,11.295L62.527,12.232L60.84,12.507C60.475,12.568 60.145,12.622 59.814,12.67C44.344,14.9 32.2,22.462 23.71,35.137C18.806,42.459 16.125,51.047 15.992,59.859C16.037,60.513 15.809,61.157 15.362,61.637C14.845,62.025 14.198,62.199 13.556,62.121C11.889,62.049 10.179,62.067 8.523,62.087L7.339,62.1C4.087,62.129 1.726,64.208 1.595,67.156C1.456,70.3 3.582,72.532 7.01,72.85C7.909,72.94 8.772,73.249 9.524,73.75C10.637,74.517 11.74,75.324 12.808,76.106C14.028,76.999 15.289,77.921 16.556,78.777C17.171,79.199 17.89,79.444 18.635,79.485C25.015,79.526 31.505,79.519 37.779,79.514L44.921,79.514L61.821,79.52C68.66,79.524 75.5,79.526 82.34,79.527M21.579,77.591C18.689,77.603 15.922,76.41 13.947,74.3L12.563,72.987L122.537,72.987L120.644,74.365C120.216,74.677 119.819,74.972 119.444,75.253C118.515,75.943 117.712,76.539 116.852,77.093C116.273,77.405 115.618,77.55 114.962,77.51C102.195,77.517 89.428,77.517 76.662,77.51L60.704,77.51C57.384,77.51 54.064,77.506 50.745,77.497C41.245,77.478 31.42,77.461 21.764,77.597L21.584,77.597M16.654,74.525C18.129,75.593 19.921,76.135 21.741,76.062C31.411,75.93 41.241,75.947 50.748,75.962C54.067,75.968 57.386,75.972 60.704,75.975L114.962,75.975C115.306,76.009 115.653,75.955 115.97,75.817C116.584,75.417 117.18,74.993 117.824,74.517L16.654,74.525ZM126.554,70.905L8.34,70.891L8.14,70.891C7.915,70.891 7.689,70.891 7.465,70.881C5.289,70.767 3.811,69.407 3.789,67.501C3.767,66.609 4.114,65.745 4.748,65.117C5.519,64.409 6.537,64.03 7.583,64.06C11.676,64.044 15.772,64.047 19.867,64.048L23.857,64.048L67.388,64.043L126.633,64.043C127.774,63.994 128.891,64.391 129.745,65.15C130.378,65.767 130.723,66.622 130.697,67.506C130.675,69.506 128.973,70.896 126.555,70.896M27.288,69.358L126.55,69.366C127.775,69.366 129.087,68.874 129.102,67.493C129.124,67.022 128.945,66.563 128.609,66.232C128.056,65.769 127.347,65.536 126.627,65.58L19.863,65.58C15.772,65.58 11.678,65.58 7.585,65.592C6.96,65.564 6.347,65.779 5.877,66.192C5.538,66.533 5.357,67.001 5.377,67.482C5.39,68.582 6.203,69.282 7.551,69.349C7.743,69.359 7.936,69.358 8.127,69.356L27.288,69.356L27.288,69.358ZM20.134,62.115C19.521,62.169 18.911,61.98 18.434,61.591C18.033,61.115 17.849,60.491 17.929,59.873C18.264,49.039 22.422,38.666 29.663,30.6C37.003,22.345 46.932,16.822 57.816,14.938C81.516,10.873 103.962,23.198 112.408,44.903C114.231,49.675 115.254,54.715 115.436,59.82C115.522,60.443 115.34,61.074 114.936,61.555C114.421,61.978 113.757,62.178 113.094,62.111L113.071,62.111C100.762,62.084 88.452,62.077 76.143,62.088L56.027,62.088C44.068,62.088 32.11,62.096 20.153,62.113L20.134,62.115ZM19.574,60.525C19.758,60.573 19.948,60.591 20.137,60.581L20.149,60.581C32.108,60.554 44.068,60.546 56.027,60.556L76.143,60.556C88.456,60.556 100.767,60.564 113.076,60.579L113.092,60.579C113.662,60.579 113.78,60.502 113.792,60.494C113.86,60.302 113.88,60.096 113.848,59.894C113.674,54.951 112.684,50.07 110.92,45.449C102.747,24.449 81.02,12.525 58.094,16.449C36.608,20.133 20.023,38.817 19.514,59.91C19.487,60.117 19.507,60.328 19.573,60.526M66.212,10.726L66.16,10.726C64.165,10.737 62.508,9.115 62.478,7.12C62.486,6.139 62.904,5.205 63.629,4.545C64.367,3.866 65.346,3.506 66.348,3.545C68.322,3.569 69.932,5.2 69.932,7.174C69.932,7.191 69.932,7.208 69.932,7.225C69.848,9.195 68.184,10.761 66.212,10.725M66.219,5.073C65.667,5.07 65.134,5.276 64.728,5.65C64.311,6.03 64.071,6.568 64.066,7.132C64.096,8.273 65.041,9.196 66.182,9.2C66.211,9.201 66.24,9.202 66.269,9.202C67.399,9.202 68.329,8.272 68.329,7.142C68.329,6.021 67.415,5.095 66.294,5.082L66.219,5.082" style="fill:rgb(225,8,25);fill-rule:nonzero;"/>
            <g transform="matrix(1,0,0,1,-10.13,-6.894)">
                <path d="M78.573,31.339C78.534,32.393 77.756,33.039 76.347,33.039C67.697,33.111 59.352,36.272 52.825,41.949C51.67,42.963 50.57,43.072 49.793,42.249C49.016,41.426 49.218,40.365 50.387,39.361C57.524,33.101 66.685,29.621 76.178,29.561C77.773,29.533 78.616,30.18 78.578,31.34" style="fill:rgb(225,8,25);fill-rule:nonzero;"/>
            </g>
            <g transform="matrix(1,0,0,1,-9.924,-6.661)">
                <path d="M50.8,43.328C50.116,43.326 49.464,43.039 49,42.537C48.547,42.087 48.304,41.467 48.331,40.829C48.442,39.924 48.919,39.103 49.65,38.558C56.937,32.185 66.276,28.635 75.956,28.558C76.877,28.471 77.796,28.759 78.501,29.358C78.965,29.825 79.205,30.47 79.16,31.127C79.104,32.627 77.948,33.562 76.142,33.565C67.688,33.638 59.532,36.728 53.152,42.276C52.524,42.903 51.686,43.278 50.8,43.328M76.072,30.092L75.988,30.092C66.686,30.166 57.713,33.577 50.71,39.7C50.304,39.985 50.022,40.414 49.921,40.9C49.917,41.125 50.009,41.341 50.174,41.493C50.63,41.973 51.274,41.854 52.085,41.14C58.759,35.334 67.294,32.102 76.14,32.03C77.54,32.03 77.565,31.308 77.574,31.072C77.609,30.84 77.535,30.604 77.374,30.433C76.997,30.164 76.535,30.042 76.074,30.087" style="fill:rgb(225,8,25);fill-rule:nonzero;"/>
            </g>
            <g transform="matrix(1,0,0,1,-7.992,-11.744)">
                <path d="M38.92,56.89C39.023,56.486 39.159,56.09 39.326,55.708C40.209,54.195 41.065,52.665 42.033,51.208C42.331,50.68 42.892,50.353 43.498,50.353C43.886,50.353 44.262,50.487 44.562,50.732C45.062,51.02 45.372,51.554 45.372,52.131C45.372,52.478 45.26,52.815 45.054,53.093C44.26,54.605 43.364,56.061 42.374,57.452C41.808,57.985 41.036,58.245 40.263,58.162C39.731,58.092 39.304,57.284 38.919,56.895" style="fill:rgb(225,8,25);fill-rule:nonzero;"/>
            </g>
            <g transform="matrix(1,0,0,1,-7.759,-11.511)">
                <path d="M40.274,58.706C40.157,58.706 40.04,58.699 39.924,58.684C39.284,58.52 38.735,58.107 38.4,57.538C38.309,57.415 38.212,57.297 38.108,57.185L37.782,56.855L37.927,56.421C37.996,56.221 38.046,56.046 38.089,55.9C38.157,55.621 38.261,55.352 38.397,55.1L38.907,54.221C39.607,53.01 40.333,51.756 41.127,50.56C41.493,49.965 42.088,49.545 42.772,49.4C43.476,49.28 44.199,49.447 44.779,49.864C45.492,50.29 45.931,51.062 45.931,51.892C45.931,52.369 45.786,52.836 45.516,53.229C45.351,53.517 45.187,53.808 45.024,54.098C44.361,55.342 43.611,56.537 42.778,57.674C42.125,58.351 41.219,58.726 40.278,58.709M39.578,56.49L39.678,56.623C39.82,56.831 39.991,57.017 40.185,57.178C40.662,57.203 41.131,57.054 41.507,56.76C42.294,55.68 43.004,54.546 43.631,53.366C43.796,53.072 43.962,52.778 44.131,52.486C44.571,51.72 44.231,51.358 43.883,51.129C43.657,50.957 43.374,50.877 43.092,50.904C42.832,50.979 42.61,51.152 42.475,51.387C41.707,52.545 40.992,53.778 40.302,54.97L39.789,55.853C39.719,56.003 39.664,56.16 39.625,56.321L39.575,56.49" style="fill:rgb(225,8,25);fill-rule:nonzero;"/>
            </g>
        </g>
    </g>
</svg>
