<?xml version="1.0" encoding="UTF-8" standalone="no"?>
<!DOCTYPE svg PUBLIC "-//W3C//DTD SVG 1.1//EN" "http://www.w3.org/Graphics/SVG/1.1/DTD/svg11.dtd">
<svg width="100%" height="100%" viewBox="0 0 81 78" version="1.1" xmlns="http://www.w3.org/2000/svg" xmlns:xlink="http://www.w3.org/1999/xlink" xml:space="preserve" xmlns:serif="http://www.serif.com/" style="fill-rule:evenodd;clip-rule:evenodd;stroke-linejoin:round;stroke-miterlimit:2;">
    <g transform="matrix(1,0,0,1,0,0.003)">
        <g>
            <path d="M40.661,77.81C18.181,78.218 -0.064,59.639 0,39.2C0.065,17.774 17.131,1.272 37.611,0.078C62.994,-1.4 79.844,18.459 80.753,36.749C81.891,59.911 62.753,77.918 40.661,77.811M68.513,36.177C70.396,36.177 72.272,36.16 74.161,36.183C74.789,36.183 75.011,35.983 74.941,35.345C74.853,34.406 74.665,33.489 74.489,32.566C73.49,27.647 71.39,23.017 68.349,19.024C68.165,18.687 67.81,18.476 67.426,18.476C67.23,18.476 67.038,18.531 66.871,18.634C64.971,19.387 63.053,20.09 61.118,20.745C59.669,21.237 59.646,21.198 60.01,22.629C61.062,26.767 61.712,30.997 61.95,35.26C61.991,35.973 62.284,36.188 62.976,36.182C64.823,36.159 66.665,36.176 68.512,36.176M12.281,41.672C10.398,41.672 8.516,41.678 6.633,41.672C6.07,41.666 5.695,41.757 5.794,42.464C6.188,45.506 6.966,48.486 8.111,51.332C9.269,54.007 10.733,56.538 12.474,58.875C12.629,59.195 12.955,59.398 13.31,59.398C13.507,59.398 13.699,59.336 13.858,59.22C15.707,58.427 17.598,57.736 19.523,57.149C21.136,56.566 21.142,56.628 20.737,55.055C19.686,51.022 19.045,46.892 18.826,42.73C18.785,41.966 18.544,41.643 17.718,41.66C15.912,41.7 14.094,41.671 12.281,41.671M68.636,41.671C66.789,41.671 64.941,41.699 63.1,41.66C62.22,41.637 61.9,41.966 61.945,42.786C61.922,44.562 61.739,46.333 61.4,48.077C61.145,50.52 60.668,52.935 59.975,55.292C59.74,56.028 59.635,56.701 60.737,57.012C62.813,57.573 64.842,58.294 66.807,59.168C66.983,59.282 67.188,59.342 67.397,59.342C67.811,59.342 68.191,59.105 68.373,58.732C70.238,56.273 71.759,53.571 72.895,50.702C73.9,48.101 74.586,45.387 74.936,42.621C75.024,41.795 74.696,41.648 73.962,41.659C72.191,41.687 70.414,41.67 68.637,41.67M12.237,36.175L12.237,36.169C14.084,36.169 15.937,36.158 17.779,36.18C18.453,36.18 18.779,35.988 18.817,35.263C19.107,30.671 19.75,26.107 20.741,21.614C20.847,21.127 20.7,20.941 20.254,20.814C18.119,20.192 16.037,19.422 13.979,18.601C13.806,18.502 13.611,18.451 13.412,18.451C12.993,18.451 12.607,18.68 12.407,19.048C8.92,23.818 6.67,29.379 5.859,35.232C5.742,35.945 5.924,36.2 6.698,36.183C8.54,36.149 10.387,36.177 12.234,36.177M43.183,47.948L43.183,53.392C43.177,53.85 43.183,54.269 43.846,54.309C47.005,54.462 50.152,54.802 53.271,55.328C53.94,55.452 54.256,55.175 54.415,54.507C55.351,50.622 55.948,46.663 56.2,42.674C56.247,41.882 55.983,41.661 55.226,41.667C51.572,41.684 47.913,41.69 44.259,41.661C43.459,41.655 43.139,41.899 43.159,42.708C43.206,44.451 43.171,46.2 43.177,47.948M31.077,36.183C32.919,36.183 34.766,36.172 36.613,36.194C37.313,36.205 37.604,35.968 37.598,35.26C37.575,31.701 37.575,28.139 37.598,24.576C37.604,23.767 37.258,23.576 36.484,23.512C33.36,23.391 30.249,23.053 27.172,22.5C26.756,22.409 26.515,22.483 26.415,22.924C25.481,26.951 24.851,31.042 24.532,35.164C24.473,35.911 24.784,36.188 25.541,36.177C27.388,36.16 29.23,36.177 31.077,36.177M43.177,29.833C43.177,31.621 43.206,33.398 43.165,35.186C43.153,35.922 43.411,36.193 44.191,36.186C47.85,36.169 51.51,36.167 55.17,36.18C55.962,36.186 56.278,35.959 56.226,35.127C55.929,31.036 55.308,26.975 54.367,22.983C54.215,22.304 53.816,22.445 53.358,22.525C50.326,23.168 47.238,23.507 44.139,23.538C43.406,23.527 43.16,23.793 43.171,24.489C43.206,26.272 43.183,28.054 43.177,29.831M31.131,41.678C29.248,41.678 27.372,41.689 25.489,41.667C24.779,41.661 24.556,41.876 24.589,42.623C24.845,46.539 25.406,50.429 26.266,54.258C26.512,55.424 27.023,55.48 27.966,55.282C30.814,54.622 33.729,54.295 36.652,54.309C37.414,54.326 37.596,53.998 37.596,53.336C37.578,49.776 37.567,46.217 37.602,42.652C37.608,41.894 37.309,41.652 36.552,41.662C34.746,41.696 32.933,41.673 31.127,41.679M37.578,12.173C37.578,10.492 37.543,8.817 37.59,7.142C37.613,6.265 37.297,6.248 36.634,6.61C35.988,6.938 35.382,7.337 34.825,7.8C32.27,10.204 30.253,13.122 28.907,16.362C28.649,16.917 28.825,17.086 29.423,17.228C31.815,17.663 34.229,17.969 36.654,18.145C37.334,18.23 37.598,17.987 37.587,17.319C37.558,15.604 37.581,13.89 37.581,12.175M43.181,65.624C43.181,66.965 43.152,68.306 43.199,69.653C43.222,70.259 42.841,71.192 43.41,71.413C44.038,71.651 44.73,70.943 45.287,70.508C48.215,68.107 50.474,64.989 51.844,61.459C52.12,60.825 51.826,60.759 51.293,60.627C48.959,60.021 46.537,60.112 44.173,59.722C43.457,59.603 43.158,59.863 43.173,60.588C43.208,62.269 43.185,63.944 43.179,65.624M37.579,65.698C37.579,63.983 37.561,62.269 37.591,60.554C37.597,59.999 37.456,59.754 36.817,59.841C34.377,60.169 31.891,60.124 29.463,60.633C28.783,60.78 28.677,60.978 28.935,61.572C29.711,63.34 30.665,65.025 31.782,66.6C32.96,68.453 34.558,70.004 36.445,71.127C37.518,71.727 37.577,71.682 37.583,70.533C37.595,68.92 37.589,67.307 37.583,65.695M43.183,12.082C43.183,13.689 43.224,15.308 43.165,16.915C43.13,17.843 43.517,18.103 44.402,17.99C46.702,17.679 49.041,17.673 51.334,17.215C51.95,17.085 52.061,16.926 51.821,16.355C50.719,13.65 49.149,11.16 47.182,9C46.301,7.988 45.228,7.159 44.027,6.561C43.411,6.272 43.153,6.301 43.171,7.042C43.2,8.723 43.183,10.403 43.183,12.084M26.983,69.438C25.531,67.226 24.256,64.902 23.171,62.489C22.907,61.917 22.491,61.9 21.971,62.099C20.734,62.557 19.461,62.899 18.241,63.406C17.508,63.717 17.467,63.938 18.077,64.406C19.33,65.428 20.664,66.348 22.065,67.156C23.59,68.144 25.246,68.912 26.986,69.437M53.964,8.537C55.363,10.798 56.616,13.145 57.717,15.565C57.917,15.972 58.292,15.972 58.708,15.825C59.975,15.372 61.242,14.92 62.52,14.484C63.2,14.252 63.37,13.992 62.725,13.477C61.495,12.485 60.196,11.583 58.837,10.777C57.327,9.804 55.686,9.051 53.963,8.542M54.074,69.518C57.197,68.304 60.125,66.639 62.766,64.578C63.288,64.165 63.206,63.933 62.637,63.661C61.464,63.101 60.186,62.88 59.001,62.393C58.838,62.29 58.649,62.235 58.456,62.235C57.982,62.235 57.569,62.565 57.464,63.027C56.581,65.311 55.444,67.488 54.074,69.518M26.873,8.244C25.997,8.524 25.154,8.895 24.357,9.353C22.104,10.392 20.01,11.747 18.14,13.377C17.389,14.022 17.424,14.192 18.334,14.492C19.023,14.725 19.724,14.921 20.434,15.081C21.179,15.234 21.924,15.788 22.639,15.581C23.495,15.338 23.425,14.308 23.759,13.64C24.662,11.766 25.703,9.961 26.873,8.24" style="fill:rgb(225,8,25);fill-rule:nonzero;"/>
        </g>
    </g>
</svg>
