<svg xmlns="http://www.w3.org/2000/svg" xmlns:xlink="http://www.w3.org/1999/xlink" width="174.038" height="171.211" viewBox="0 0 174.038 171.211"><defs><style>.a{fill:#be2629;}.b{clip-path:url(#a);}.c{clip-path:url(#b);}.d{clip-path:url(#c);}.e{clip-path:url(#d);}.f{clip-path:url(#e);}.g{clip-path:url(#f);}.h{clip-path:url(#g);}.i{clip-path:url(#h);}.j{clip-path:url(#i);}.k{clip-path:url(#j);}.l{clip-path:url(#k);}.m{clip-path:url(#l);}.n{clip-path:url(#m);}.o{clip-path:url(#n);}.p{clip-path:url(#o);}.q{clip-path:url(#p);}.r{clip-path:url(#q);}.s{clip-path:url(#r);}.t{clip-path:url(#s);}.u{clip-path:url(#t);}.v{clip-path:url(#u);}.w{clip-path:url(#v);}.x{clip-path:url(#w);}.y{clip-path:url(#x);}.z{clip-path:url(#y);}</style><clipPath id="a"><path class="a" d="M479.223,21.855a1.663,1.663,0,0,0,3.325,0,3.221,3.221,0,1,1,6.442,0,1.663,1.663,0,0,0,3.325,0,6.546,6.546,0,1,0-13.093,0" transform="translate(-479.223 -15.304)"/></clipPath><clipPath id="b"><path class="a" d="M491.289,21.855a1.663,1.663,0,0,0,3.325,0,3.221,3.221,0,1,1,6.442,0,1.663,1.663,0,0,0,3.325,0,6.546,6.546,0,1,0-13.093,0" transform="translate(-491.289 -15.304)"/></clipPath><clipPath id="c"><path class="a" d="M595.991,5.285l65.352,30.849v131.92H595.991Zm-2.552-4.028a1.66,1.66,0,0,0-.773,1.4V169.717a1.663,1.663,0,0,0,1.663,1.663h68.677a1.662,1.662,0,0,0,1.663-1.663V35.081a1.661,1.661,0,0,0-.953-1.5L595.038,1.158a1.661,1.661,0,0,0-1.6.1" transform="translate(-592.666 -0.999)"/></clipPath><clipPath id="d"><path class="a" d="M618.012,44.107v119.43a1.663,1.663,0,1,0,3.325,0V44.107a1.663,1.663,0,0,0-3.325,0" transform="translate(-618.012 -42.445)"/></clipPath><clipPath id="e"><path class="a" d="M649.595,53.023V165.041a1.662,1.662,0,1,0,3.324,0V53.023a1.662,1.662,0,1,0-3.324,0" transform="translate(-649.595 -51.36)"/></clipPath><clipPath id="f"><path class="a" d="M604.766,57.078a1.662,1.662,0,1,0,0,3.324H656.09a1.662,1.662,0,1,0,0-3.324Z" transform="translate(-603.103 -57.078)"/></clipPath><clipPath id="g"><path class="a" d="M604.766,81.36a1.663,1.663,0,0,0,0,3.325H656.09a1.663,1.663,0,0,0,0-3.325Z" transform="translate(-603.103 -81.36)"/></clipPath><clipPath id="h"><path class="a" d="M604.766,105.643a1.663,1.663,0,0,0,0,3.325H656.09a1.663,1.663,0,0,0,0-3.325Z" transform="translate(-603.103 -105.643)"/></clipPath><clipPath id="i"><path class="a" d="M604.766,129.926a1.662,1.662,0,1,0,0,3.324H656.09a1.662,1.662,0,1,0,0-3.324Z" transform="translate(-603.103 -129.926)"/></clipPath><clipPath id="j"><path class="a" d="M604.766,154.208a1.663,1.663,0,0,0,0,3.326H656.09a1.663,1.663,0,0,0,0-3.326Z" transform="translate(-603.103 -154.208)"/></clipPath><clipPath id="k"><path class="a" d="M604.766,178.491a1.663,1.663,0,0,0,0,3.325H656.09a1.663,1.663,0,0,0,0-3.325Z" transform="translate(-603.103 -178.491)"/></clipPath><clipPath id="l"><path class="a" d="M684.586,53.023V127.63a1.663,1.663,0,1,0,3.325,0V53.023a1.663,1.663,0,1,0-3.325,0" transform="translate(-684.586 -51.36)"/></clipPath><clipPath id="m"><path class="a" d="M684.586,152.773v35.121a1.663,1.663,0,1,0,3.325,0V152.773a1.663,1.663,0,1,0-3.325,0" transform="translate(-684.586 -151.11)"/></clipPath><clipPath id="n"><path class="a" d="M607.988,0a1.662,1.662,0,0,0-.69,3.166l54.034,25.446a1.663,1.663,0,1,0,1.417-3.008L608.716.158A1.65,1.65,0,0,0,608.034,0Z" transform="translate(-606.344)"/></clipPath><clipPath id="o"><path class="a" d="M502.934,61.048l55.2-26.058V173.067h-55.2Zm56.153-30.184L500.562,58.491a1.661,1.661,0,0,0-.952,1.5V174.729a1.662,1.662,0,0,0,1.663,1.663H559.8a1.663,1.663,0,0,0,1.663-1.663V32.367a1.662,1.662,0,0,0-2.372-1.5" transform="translate(-499.61 -30.704)"/></clipPath><clipPath id="p"><path class="a" d="M548.414,67.687V169.463a1.663,1.663,0,0,0,3.326,0V67.687a1.663,1.663,0,0,0-3.326,0" transform="translate(-548.414 -66.024)"/></clipPath><clipPath id="q"><path class="a" d="M521.5,75.284v95.461a1.663,1.663,0,0,0,3.325,0V75.284a1.663,1.663,0,0,0-3.325,0" transform="translate(-521.5 -73.622)"/></clipPath><clipPath id="r"><path class="a" d="M510.167,78.494a1.663,1.663,0,0,0,0,3.325H553.9a1.663,1.663,0,0,0,0-3.325Z" transform="translate(-508.504 -78.494)"/></clipPath><clipPath id="s"><path class="a" d="M510.167,99.187a1.663,1.663,0,0,0,0,3.325H553.9a1.663,1.663,0,0,0,0-3.325Z" transform="translate(-508.504 -99.187)"/></clipPath><clipPath id="t"><path class="a" d="M510.167,119.881a1.662,1.662,0,1,0,0,3.324H553.9a1.662,1.662,0,1,0,0-3.324Z" transform="translate(-508.504 -119.881)"/></clipPath><clipPath id="u"><path class="a" d="M510.167,140.573a1.663,1.663,0,0,0,0,3.326H553.9a1.663,1.663,0,0,0,0-3.326Z" transform="translate(-508.504 -140.573)"/></clipPath><clipPath id="v"><path class="a" d="M510.167,161.267a1.663,1.663,0,0,0,0,3.326H553.9a1.663,1.663,0,0,0,0-3.326Z" transform="translate(-508.504 -161.267)"/></clipPath><clipPath id="w"><path class="a" d="M510.167,181.961a1.662,1.662,0,1,0,0,3.324H553.9a1.662,1.662,0,1,0,0-3.324Z" transform="translate(-508.504 -181.961)"/></clipPath><clipPath id="x"><path class="a" d="M579.681,44.107V99.525a1.663,1.663,0,1,0,3.325,0V44.107a1.663,1.663,0,0,0-3.325,0" transform="translate(-579.681 -42.445)"/></clipPath><clipPath id="y"><path class="a" d="M579.681,120.4v63.089a1.663,1.663,0,0,0,3.325,0V120.4a1.663,1.663,0,1,0-3.325,0" transform="translate(-579.681 -118.738)"/></clipPath></defs><g transform="translate(593.228 -5004)"><g transform="translate(-593.228 5016.722)"><g class="b"><rect class="a" width="13.093" height="8.213" transform="translate(0 0)"/></g></g><g transform="translate(-583.198 5016.722)"><g class="c"><rect class="a" width="13.093" height="8.213" transform="translate(0 0)"/></g></g><g transform="translate(-498.926 5004.83)"><g class="d"><rect class="a" width="72.002" height="170.381" transform="translate(0 0)"/></g></g><g transform="translate(-477.856 5039.283)"><g class="e"><rect class="a" width="3.325" height="122.755" transform="translate(0 0)"/></g></g><g transform="translate(-451.602 5046.694)"><g class="f"><rect class="a" width="3.324" height="115.345" transform="translate(0 0)"/></g></g><g transform="translate(-490.25 5051.448)"><g class="g"><rect class="a" width="54.65" height="3.324" transform="translate(0 0)"/></g></g><g transform="translate(-490.25 5071.633)"><g class="h"><rect class="a" width="54.65" height="3.325" transform="translate(0 0)"/></g></g><g transform="translate(-490.25 5091.819)"><g class="i"><rect class="a" width="54.65" height="3.325" transform="translate(0 0)"/></g></g><g transform="translate(-490.25 5112.004)"><g class="j"><rect class="a" width="54.65" height="3.324" transform="translate(0 0)"/></g></g><g transform="translate(-490.25 5132.189)"><g class="k"><rect class="a" width="54.65" height="3.326" transform="translate(0 0)"/></g></g><g transform="translate(-490.25 5152.375)"><g class="l"><rect class="a" width="54.65" height="3.325" transform="translate(0 0)"/></g></g><g transform="translate(-422.515 5046.694)"><g class="m"><rect class="a" width="3.325" height="77.932" transform="translate(0 0)"/></g></g><g transform="translate(-422.515 5129.614)"><g class="n"><rect class="a" width="3.325" height="38.447" transform="translate(0 0)"/></g></g><g transform="translate(-487.556 5004)"><g class="o"><rect class="a" width="57.824" height="28.771" transform="translate(-0.232 0)"/></g></g><g transform="translate(-576.281 5029.523)"><g class="p"><rect class="a" width="61.849" height="145.688" transform="translate(0 0)"/></g></g><g transform="translate(-535.711 5058.884)"><g class="q"><rect class="a" width="3.326" height="105.101" transform="translate(0 0)"/></g></g><g transform="translate(-558.084 5065.2)"><g class="r"><rect class="a" width="3.325" height="98.785" transform="translate(0 0)"/></g></g><g transform="translate(-568.888 5069.25)"><g class="s"><rect class="a" width="47.062" height="3.325" transform="translate(0 0)"/></g></g><g transform="translate(-568.888 5086.452)"><g class="t"><rect class="a" width="47.062" height="3.325" transform="translate(0 0)"/></g></g><g transform="translate(-568.888 5103.654)"><g class="u"><rect class="a" width="47.062" height="3.324" transform="translate(0 0)"/></g></g><g transform="translate(-568.888 5120.855)"><g class="v"><rect class="a" width="47.062" height="3.326" transform="translate(0 0)"/></g></g><g transform="translate(-568.888 5138.057)"><g class="w"><rect class="a" width="47.062" height="3.326" transform="translate(0 0)"/></g></g><g transform="translate(-568.888 5155.26)"><g class="x"><rect class="a" width="47.062" height="3.324" transform="translate(0 0)"/></g></g><g transform="translate(-509.72 5039.283)"><g class="y"><rect class="a" width="3.325" height="58.742" transform="translate(0 0)"/></g></g><g transform="translate(-509.72 5102.704)"><g class="z"><rect class="a" width="3.325" height="66.413" transform="translate(0 0)"/></g></g></g></svg>