<svg xmlns="http://www.w3.org/2000/svg" xmlns:xlink="http://www.w3.org/1999/xlink" width="85.047" height="79.204" viewBox="0 0 85.047 79.204"><defs><style>.a{fill:#c30010;}.b{clip-path:url(#a);}</style><clipPath id="a"><rect class="a" width="85.047" height="79.204"/></clipPath></defs><g transform="translate(0)"><g class="b" transform="translate(0 0)"><path class="a" d="M28.454,36.86a2.092,2.092,0,0,1-1.53-.665l-7.584-8.134A2.091,2.091,0,0,1,22.4,25.209l5.885,6.312,12-15.914a2.091,2.091,0,0,1,3.341,2.516l-13.5,17.906a2.1,2.1,0,0,1-1.56.83c-.037,0-.073,0-.11,0" transform="translate(22.549 17.74)"/><path class="a" d="M42.1,22.9a2.091,2.091,0,0,1-1.527-3.519L43.262,16.5l-6.926-6.481L33.645,12.9a2.091,2.091,0,0,1-3.055-2.857l3.2-3.42a3.441,3.441,0,0,1,4.853-.165l8.02,7.5a3.437,3.437,0,0,1,.158,4.855l-3.2,3.42A2.087,2.087,0,0,1,42.1,22.9" transform="translate(36.056 6.648)"/><path class="a" d="M24.661,15.969a2.09,2.09,0,0,1-2.091-2.091V2.091a2.091,2.091,0,1,1,4.181,0V13.878a2.09,2.09,0,0,1-2.091,2.091" transform="translate(27.102 0)"/><path class="a" d="M17.8,24.1H14.249a2.091,2.091,0,1,1,0-4.181H17.8a2.091,2.091,0,1,1,0,4.181" transform="translate(14.597 23.915)"/><path class="a" d="M24.661,36.448a2.09,2.09,0,0,1-2.091-2.091v-3.55a2.091,2.091,0,0,1,4.181,0v3.55a2.09,2.09,0,0,1-2.091,2.091" transform="translate(27.102 34.484)"/><path class="a" d="M37.012,24.1H33.464a2.091,2.091,0,1,1,0-4.181h3.548a2.091,2.091,0,0,1,0,4.181" transform="translate(37.67 23.915)"/><path class="a" d="M24.661,17.232a2.09,2.09,0,0,1-2.091-2.091v-3.55a2.091,2.091,0,0,1,4.181,0v3.55a2.09,2.09,0,0,1-2.091,2.091" transform="translate(27.102 11.409)"/><path class="a" d="M37.838,4.181H20.787a2.091,2.091,0,1,1,0-4.181H37.838a2.091,2.091,0,0,1,0,4.181" transform="translate(22.45 0)"/><path class="a" d="M38.277,62.666A27.044,27.044,0,1,1,65.322,35.62,27.077,27.077,0,0,1,38.277,62.666m0-49.907A22.863,22.863,0,1,0,61.14,35.62,22.88,22.88,0,0,0,38.277,12.759" transform="translate(13.486 10.3)"/><path class="a" d="M20.562,24.107H2.091a2.091,2.091,0,1,1,0-4.181H20.562a2.091,2.091,0,1,1,0,4.181" transform="translate(0 23.927)"/><path class="a" d="M19.224,28.244H4.2a2.091,2.091,0,1,1,0-4.181h15.02a2.091,2.091,0,1,1,0,4.181" transform="translate(2.537 28.895)"/><path class="a" d="M19.463,32.382H7.962a2.091,2.091,0,0,1,0-4.182h11.5a2.091,2.091,0,0,1,0,4.182" transform="translate(7.05 33.863)"/><path class="a" d="M38.539,72.309a33.392,33.392,0,0,1-26.988-13.8,2.091,2.091,0,1,1,3.389-2.449,29.1,29.1,0,1,0-.134-33.877A2.091,2.091,0,1,1,11.4,19.757a33.285,33.285,0,1,1,27.14,52.553" transform="translate(13.223 6.895)"/><path class="a" d="M20.583,15.833H7.029a2.091,2.091,0,1,1,0-4.181H20.583a2.091,2.091,0,1,1,0,4.181" transform="translate(5.929 13.992)"/><path class="a" d="M19.39,19.97H4.2a2.091,2.091,0,1,1,0-4.182H19.39a2.091,2.091,0,0,1,0,4.182" transform="translate(2.536 18.96)"/></g></g></svg>