<svg xmlns="http://www.w3.org/2000/svg" width="66.809" height="59.935" viewBox="0 0 66.809 59.935"><defs><style>.a{fill:#919191;}.b{fill:#404040;}.c{fill:#fff;}.d{fill:#fdfcfc;}</style></defs><path class="a" d="M153.732,36.637q13.291,0,26.582,0a3.272,3.272,0,0,1,2.11.688,3.1,3.1,0,0,1,1.251,2.555c-.009.794-.071,1.588-.111,2.382q-.129,2.576-.259,5.152-.084,1.653-.173,3.305c-.09,1.677-.184,3.354-.273,5.032-.051.973-.092,1.946-.143,2.919-.068,1.31-.142,2.62-.213,3.93q-.035.64-.067,1.281c-.068,1.38-.132,2.76-.2,4.14q-.117,2.323-.24,4.645-.089,1.712-.178,3.424-.12,2.308-.24,4.615-.089,1.712-.178,3.425-.121,2.323-.241,4.645c-.059,1.141-.106,2.284-.183,3.424-.035.516-.029,1.033-.092,1.547a3.245,3.245,0,0,1-3.13,2.821h-.328q-23.7,0-47.406,0a3.434,3.434,0,0,1-1.593-.3,3.153,3.153,0,0,1-1.859-2.718c-.082-1.13-.122-2.263-.181-3.394q-.12-2.293-.241-4.585-.088-1.668-.176-3.335-.121-2.293-.241-4.585-.089-1.682-.178-3.365l-.239-4.526-.179-3.394q-.09-1.712-.18-3.424l-.237-4.5q-.12-2.278-.24-4.556-.089-1.683-.178-3.365-.12-2.278-.24-4.556-.09-1.7-.18-3.394c-.047-.863-.117-1.726-.143-2.59a3.259,3.259,0,0,1,2.554-3.276,3.934,3.934,0,0,1,.889-.069h26.552Z" transform="translate(-123.735 -36.633)"/><path class="b" d="M161.554,46.483q12.336,0,24.672,0a3.624,3.624,0,0,1,1.176.155,3.068,3.068,0,0,1,2.083,3.166c-.051.684-.075,1.369-.113,2.054q-.106,1.95-.212,3.9c-.028.516-.05,1.033-.076,1.549q-.119,2.308-.239,4.615-.129,2.531-.254,5.062-.087,1.712-.177,3.424-.119,2.293-.238,4.586t-.238,4.585q-.121,2.323-.241,4.645-.088,1.7-.177,3.394-.121,2.323-.241,4.645-.087,1.667-.176,3.335c-.071,1.33-.127,2.661-.222,3.989A3.007,3.007,0,0,1,184,102.334c-.1,0-.2,0-.3,0q-22.121,0-44.242,0a3.151,3.151,0,0,1-1.787-.472,2.97,2.97,0,0,1-1.413-2.456q-.116-2.323-.241-4.645-.085-1.623-.173-3.245c-.07-1.27-.144-2.54-.213-3.81-.05-.943-.091-1.886-.141-2.829-.07-1.32-.147-2.64-.217-3.959-.051-.953-.092-1.906-.142-2.859-.07-1.31-.146-2.619-.216-3.93-.052-.973-.093-1.946-.144-2.919-.068-1.29-.145-2.58-.214-3.87-.048-.893-.087-1.787-.134-2.68-.073-1.379-.152-2.759-.225-4.138-.049-.923-.089-1.847-.138-2.77-.071-1.33-.148-2.659-.218-3.989-.051-.963-.095-1.926-.142-2.889-.021-.427-.045-.854-.064-1.281a3.028,3.028,0,0,1,3.038-3.117h24.88Z" transform="translate(-131.582 -44.44)"/><path class="a" d="M424.894,38.481a2.411,2.411,0,1,0,2.455,2.416A2.4,2.4,0,0,0,424.894,38.481Zm-.009,4.3a1.835,1.835,0,0,1-1.837-1.926,1.846,1.846,0,1,1,3.69.052A1.809,1.809,0,0,1,424.885,42.78Z" transform="translate(-360.54 -38.098)"/><path class="a" d="M190.267,121.843a1.1,1.1,0,0,1-.039-.5c-.01-.188,0-.377,0-.567-.205.032-10.7,5.366-11.069,5.628.357-.05.677-.093,1-.141l3.446-.517q1.693-.255,3.386-.511c1.267-.189,2.534-.375,3.8-.564s2.532-.383,3.8-.571,2.554-.375,3.83-.563c.609-.09,1.217-.183,1.826-.273.1-.015.2-.024.3-.031.232-.016.34.057.367.244a.346.346,0,0,1-.272.4c-.212.052-.428.086-.643.126l-8.224,1.547q-4.683.88-9.367,1.758-3.922.738-7.843,1.48a1.536,1.536,0,0,0-.413.164q-3.493,1.778-6.986,3.557-1.2.609-2.387,1.224a.474.474,0,0,0-.238.17,3.632,3.632,0,0,1-.929.447c-.1.044-.2.084-.3.133l-4.7,2.4a.843.843,0,0,1-1.263-.457,1.615,1.615,0,0,1-.134-.577.53.53,0,0,1,.337-.566c.887-.426,1.764-.872,2.648-1.3q4.1-2,8.2-4a.56.56,0,0,0,.27-.18c-.374.07-.722.133-1.069.2l-8.891,1.722c-1.57.3-3.141.6-4.709.912a.445.445,0,0,1-.489-.183.665.665,0,0,1-.094-.151,3.43,3.43,0,0,1-.267-1.305c0-.4.156-.539.551-.6q2.636-.4,5.27-.809c1.365-.208,2.73-.411,4.094-.619q2.253-.344,4.5-.695c1.482-.228,2.965-.452,4.446-.681.834-.129,1.666-.27,2.5-.4a1.323,1.323,0,0,0,.366-.116q5.123-2.416,10.248-4.828c.323-.153.649-.3.971-.456.085-.041.2-.058.21-.185.673-.308,1.348-.61,2-.952.5-.221.982-.481,1.486-.691a.524.524,0,0,0,.347-.555c-.008-1.52-.006-3.04,0-4.559,0-.153-.041-.322.1-.447.19.106.134.294.135.451.006,1.439,0,2.877.006,4.315,0,.141-.072.334.083.409.138.067.275-.074.407-.136.2-.091.216-.264.216-.451q0-1.1,0-2.2c0-.972,0-1.945,0-2.917,0-.153-.039-.323.108-.443.068.1.034.213.034.319q0,2.624,0,5.247v.336a.671.671,0,0,0,.341-.114q1.149-.533,2.294-1.072c.117-.055.234-.11.353-.16.221-.092.345-.05.443.141s.048.294-.188.418c-.264.138-.531.271-.8.406-.743.379-1.483.764-2.23,1.135a.34.34,0,0,0-.222.365c.014.367.006.735,0,1.1a.568.568,0,0,1-.03.292c-.128-.075-.1-.2-.1-.318-.008-.3,0-.592,0-.888,0-.2-.074-.224-.255-.154a.642.642,0,0,0-.482.737C190.381,121.428,190.448,121.662,190.267,121.843Z" transform="translate(-147.048 -97.518)"/><path class="c" d="M305.643,212.345c0,1.3,0,2.6,0,3.907,0,.419.066.377-.39.392-.683.022-.577.009-.578-.541q0-3.355,0-6.71c0-.1,0-.2-.006-.3,0-.05-.015-.1-.077-.109s-.087.043-.1.091c-.038.113-.075.226-.107.341q-.966,3.455-1.93,6.91c-.088.315-.094.322-.43.325-.3,0-.6.005-.895,0-.272,0-.292-.018-.368-.286q-.646-2.292-1.288-4.586c-.236-.841-.469-1.682-.707-2.523-.03-.107-.026-.285-.176-.265s-.1.192-.1.3c0,2.256,0,4.513,0,6.77,0,.643.066.585-.6.585-.4,0-.4,0-.4-.394q0-3.907,0-7.813c0-.05,0-.1,0-.149.009-.247.023-.265.281-.267.428,0,.855,0,1.282,0,.291,0,.305.008.388.3q.463,1.632.921,3.266.528,1.877,1.055,3.755c.036.127.021.334.18.339s.155-.208.189-.331q.99-3.494,1.969-6.992c.1-.338.1-.338.443-.338.388,0,.775,0,1.163,0,.266,0,.287.02.288.292,0,.835,0,1.67,0,2.505v1.521Z" transform="translate(-261.477 -172.509)"/><path class="c" d="M302.7,120.32a6.289,6.289,0,0,1-.813.41q-.438.21-.878.414c-.086.04-.17.111-.273.038q-.976-3.5-1.953-7c-.027-.1-.063-.188-.1-.281a.088.088,0,0,0-.1-.051.1.1,0,0,0-.091.1c-.007.109-.011.218-.011.327q0,3.3,0,6.593c0,.139,0,.279,0,.418s-.055.225-.213.221c-.2-.006-.4,0-.6,0a.162.162,0,0,1-.182-.184c0-.07,0-.139,0-.209q0-3.908,0-7.816c0-.4,0-.4.411-.406q.552,0,1.1,0c.355,0,.357,0,.451.335q.545,1.935,1.088,3.87c.3,1.061.594,2.122.895,3.182.029.1.008.275.176.265.135-.008.126-.162.154-.26q1-3.54,1.994-7.081c.087-.311.09-.311.4-.312.4,0,.8,0,1.193,0,.1,0,.228-.04.278.107,0,.6-.008,1.19-.009,1.785,0,1.31,0,2.62,0,3.93a.32.32,0,0,1-.222.361c-.22.084-.429.2-.657.3a.6.6,0,0,1-.047-.337q0-2.352,0-4.7a.735.735,0,0,0-.023-.322c-.216-.011-.186.178-.217.292-.446,1.614-.9,3.225-1.357,4.837A3.57,3.57,0,0,1,302.7,120.32Z" transform="translate(-261.479 -97.09)"/><path class="c" d="M247.134,119.214c-.557,0-1.114.005-1.67,0a.245.245,0,0,0-.283.225c-.138.59-.288,1.176-.433,1.764-.087.353-.088.355-.463.353-.159,0-.318,0-.477-.006-.112,0-.164-.058-.147-.171a1.442,1.442,0,0,1,.024-.147q.95-3.707,1.9-7.414a2.355,2.355,0,0,1,.109-.34.737.737,0,0,1,.733-.5c.517.006,1.034.008,1.551,0a.65.65,0,0,1,.678.472A11.933,11.933,0,0,1,249,114.7q.82,3.218,1.637,6.437c.1.411.1.413-.323.415-.119,0-.239,0-.358,0-.3-.005-.315-.015-.386-.3q-.21-.838-.417-1.677c-.01-.039-.018-.077-.029-.116-.068-.243-.074-.254-.323-.256-.557,0-1.114,0-1.671,0Z" transform="translate(-218.807 -97.151)"/><path class="c" d="M250.175,216.674c-.6-.009-.507.071-.658-.517-.13-.509-.25-1.021-.378-1.532-.072-.286-.075-.288-.354-.288-1.083,0-2.166,0-3.249,0-.356,0-.281-.031-.368.293-.152.565-.282,1.136-.422,1.7-.082.332-.085.334-.412.334-.169,0-.338-.005-.507,0-.128,0-.186-.05-.164-.179.01-.058.02-.117.035-.175q.906-3.547,1.814-7.093c.047-.182.094-.366.154-.544a.764.764,0,0,1,.8-.585q.745-.009,1.491,0a.643.643,0,0,1,.714.506c.207.58.323,1.186.476,1.782q.747,2.911,1.479,5.827c.111.441.215.474-.359.469Z" transform="translate(-218.807 -172.559)"/><path class="c" d="M203.5,120.005c0-.338-.01-.677,0-1.014a1.74,1.74,0,0,0-.186-.832q-1.158-2.418-2.306-4.841c-.167-.35-.166-.351.208-.353.2,0,.4,0,.6,0a.281.281,0,0,1,.3.193c.045.11.093.219.141.329q.789,1.816,1.581,3.632c.042.1.052.255.168.258.137,0,.149-.165.2-.266.587-1.271,1.177-2.541,1.748-3.819a.453.453,0,0,1,.517-.326c.167.018.338.008.507.012.128,0,.151.073.108.178-.026.064-.059.126-.089.189-.757,1.6-1.511,3.2-2.274,4.79a1.879,1.879,0,0,0-.189.861c.011.746.005,1.492,0,2.237,0,.305-.012.314-.322.318-.149,0-.3,0-.447,0-.235-.007-.259-.027-.261-.258,0-.427,0-.855,0-1.283Z" transform="translate(-184.913 -97.141)"/><path class="c" d="M203.618,209.416a3.262,3.262,0,0,1,.929-.447l1.573,3.6c.162-.072.183-.2.23-.3q.849-1.839,1.692-3.68c.046-.1.093-.2.137-.3a.247.247,0,0,1,.226-.159,3.161,3.161,0,0,1,.838.023c.031.139-.05.235-.1.337-.75,1.589-1.5,3.178-2.258,4.762a1.979,1.979,0,0,0-.206.916c.013.735.006,1.471,0,2.206,0,.312-.006.316-.316.319-.169,0-.338,0-.507,0s-.212-.07-.21-.217c0-.278,0-.557,0-.835,0-.507-.007-1.014,0-1.521a1.725,1.725,0,0,0-.184-.8q-.915-1.906-1.82-3.817C203.637,209.473,203.628,209.444,203.618,209.416Z" transform="translate(-187.065 -172.577)"/><path class="d" d="M332.286,147.88c0-.325,0-.651,0-.976a.224.224,0,0,1,.132-.237c.247-.119.491-.245.783-.392.008.564.016,1.088.024,1.612a.119.119,0,0,1-.089.07,4.009,4.009,0,0,1-.738.008A.117.117,0,0,1,332.286,147.88Z" transform="translate(-289.068 -123.555)"/><path class="b" d="M322.645,123.983c.2-.715.394-1.431.594-2.145q.556-1.991,1.116-3.98c.021-.076.045-.152.069-.227.018-.057.04-.125.111-.116.094.012.075.1.086.167-.006.109-.016.217-.016.325,0,1.6,0,3.21,0,4.815a.346.346,0,0,1-.233.383c-.49.212-.97.45-1.453.677A.871.871,0,0,1,322.645,123.983Z" transform="translate(-281.427 -100.754)"/><path class="b" d="M254.088,121.461c-.447,0-.894,0-1.341,0-.361,0-.365,0-.281-.338q.5-2.02,1.012-4.04c.064-.257.083-.27.341-.276.169,0,.338,0,.506,0,.315,0,.33.015.406.313q.2.807.408,1.615.289,1.154.575,2.309c.1.418.1.419-.316.419Z" transform="translate(-225.755 -100.191)"/><path class="b" d="M254.109,216.651H252.8c-.06,0-.12,0-.179,0-.19-.016-.217-.051-.169-.243q.412-1.66.828-3.32c.072-.289.147-.577.213-.867a.249.249,0,0,1,.29-.226c.208.011.417,0,.626,0,.234,0,.262.024.322.261.123.48.242.962.363,1.443l.626,2.512c0,.01.007.018.01.028.1.389.08.41-.307.411Z" transform="translate(-225.761 -175.654)"/><path class="a" d="M431.279,45.454c.09-.055.151-.087.207-.126a.551.551,0,0,0,.224-.7.6.6,0,0,0-.483-.394,3.442,3.442,0,0,0-1.241-.012c-.221.032-.224.033-.225.252q0,.937,0,1.874c0,.294,0,.294.3.293.03,0,.06,0,.089,0,.143.013.193-.055.189-.194-.006-.208,0-.417,0-.625,0-.1.039-.145.141-.145.337,0,.536.038.644.5.122.521.028.472.627.46a.306.306,0,0,0,.09-.039C431.683,46.206,431.749,45.726,431.279,45.454Zm-.295-.256a.768.768,0,0,1-.222.075c-.385.08-.423.048-.423-.341,0-.371,0-.373.384-.351a.553.553,0,0,1,.255.063A.314.314,0,0,1,430.984,45.2Z" transform="translate(-366.344 -42.609)"/></svg>