<svg xmlns="http://www.w3.org/2000/svg" xmlns:xlink="http://www.w3.org/1999/xlink" width="77.26" height="78.224" viewBox="0 0 77.26 78.224"><defs><style>.a{fill:#c30010;}.b{clip-path:url(#a);}</style><clipPath id="a"><rect class="a" width="77.26" height="78.224"/></clipPath></defs><g class="b" transform="translate(0)"><path class="a" d="M24.6,21.658c-.015,1.881-.064,3.765.1,5.641a11.82,11.82,0,0,0,4.421,8.3,10.982,10.982,0,0,1,4.008,6.156,24.632,24.632,0,0,1,.242,4.77,6.924,6.924,0,0,1-5,6.938q-8.548,2.977-17.07,6.028A5,5,0,0,0,7.875,63.5C7.066,67.586,6.2,71.661,5.356,75.74a4.982,4.982,0,0,1-.208.737,2.341,2.341,0,0,1-2.881,1.686A2.462,2.462,0,0,1,.058,75.2c.412-1.988.849-3.97,1.266-5.957.546-2.605,1.082-5.213,1.625-7.819a8.4,8.4,0,0,1,5.3-6.342c3.643-1.512,7.4-2.722,11.113-4.046,2.282-.813,4.573-1.6,6.857-2.409,1.585-.56,1.77-.817,1.755-2.5a21.147,21.147,0,0,0-.034-2.662A5.832,5.832,0,0,0,25.9,39.8a18.241,18.241,0,0,1-6.512-12.94c-.13-2.648-.108-5.3-.057-7.946a20.242,20.242,0,0,1,2.107-9.153A18.053,18.053,0,0,1,28.52,2.543,18.231,18.231,0,0,1,36.058.093a17.408,17.408,0,0,1,9.964,1.918,18.214,18.214,0,0,1,9.8,13.229,18.085,18.085,0,0,1,.293,3.231c.031,1.73.093,3.462.067,5.192a29.059,29.059,0,0,1-.661,6.675,17.3,17.3,0,0,1-5.5,9.028,7.477,7.477,0,0,0-2.259,2.655,4.84,4.84,0,0,0-.4,1.794c-.012.888.008,1.777-.021,2.665a1.847,1.847,0,0,0,1.238,1.94,2.449,2.449,0,0,1,1.675,2.52A2.707,2.707,0,0,1,47.1,53.4a6.676,6.676,0,0,1-4.945-5.754,26.217,26.217,0,0,1,.056-5.092A10.422,10.422,0,0,1,46.2,35.711a12.317,12.317,0,0,0,4.147-6.16,14.509,14.509,0,0,0,.548-4.281c-.022-1.866.06-3.733,0-5.6a21.879,21.879,0,0,0-.221-3.645c-1.1-5.543-4.375-9.116-9.877-10.4-5.575-1.3-10.191.48-13.7,4.972A11.974,11.974,0,0,0,24.6,18.089c-.006,1.189,0,2.379,0,3.568" transform="translate(0 0)"/><path class="a" d="M647.7,500.524a7.626,7.626,0,0,1,2.17-5.744,9.111,9.111,0,0,1,2.374-1.7,6,6,0,0,0,2.065-1.5,4.843,4.843,0,1,0-8.114-5.259,2.551,2.551,0,0,1-4.427.474,2.446,2.446,0,0,1-.249-2.944,9.666,9.666,0,0,1,7.461-5.226,9.11,9.11,0,0,1,5.833.9,9.955,9.955,0,0,1,5.574,7.789c.533,4.158-1.137,7.382-4.515,9.769a14.05,14.05,0,0,1-1.3.723,2.651,2.651,0,0,0-1.493,2.579,5.555,5.555,0,0,1-.085,1.392,2.623,2.623,0,0,1-2.79,2.178,2.852,2.852,0,0,1-2.5-2.661c-.008-.256,0-.512,0-.767" transform="translate(-583.229 -435.263)"/><path class="a" d="M711.777,803.138a2.949,2.949,0,0,1-3.127-3.073,3.079,3.079,0,0,1,3.171-3.118,3.118,3.118,0,0,1,3.12,3.14,2.983,2.983,0,0,1-3.164,3.051" transform="translate(-644.633 -724.953)"/></g></svg>