<svg xmlns="http://www.w3.org/2000/svg" xmlns:xlink="http://www.w3.org/1999/xlink" width="83.318" height="79.084" viewBox="0 0 83.318 79.084"><defs><style>.a{fill:#c30010;}.b{clip-path:url(#a);}</style><clipPath id="a"><rect class="a" width="83.318" height="79.084"/></clipPath></defs><g transform="translate(0)"><g class="b" transform="translate(0 0)"><path class="a" d="M73.471,69.337H38.6a2.221,2.221,0,1,1,0-4.441H73.471a2.186,2.186,0,0,0,2.185-2.185V11.523a2.186,2.186,0,0,0-2.185-2.185H65.823v3.1a2.221,2.221,0,0,1-4.441,0v-3.1H51v3.1a2.221,2.221,0,0,1-4.441,0v-3.1H36.176v3.1a2.221,2.221,0,0,1-4.441,0v-3.1H21.353v3.1a2.221,2.221,0,1,1-4.441,0v-3.1H9.264a2.186,2.186,0,0,0-2.185,2.185V40.732a2.221,2.221,0,0,1-4.441,0V11.523A6.632,6.632,0,0,1,9.264,4.9h7.648V2.221a2.221,2.221,0,1,1,4.441,0V4.9H31.735V2.221a2.221,2.221,0,0,1,4.441,0V4.9H46.558V2.221a2.221,2.221,0,0,1,4.441,0V4.9H61.381V2.221a2.221,2.221,0,0,1,4.441,0V4.9h7.648A6.632,6.632,0,0,1,80.1,11.523V62.71a6.632,6.632,0,0,1-6.627,6.627" transform="translate(3.219 0)"/><rect class="a" width="73.019" height="4.441" transform="translate(8.079 16.451)"/><path class="a" d="M22.918,60.808a22.919,22.919,0,1,1,22.92-22.918,22.945,22.945,0,0,1-22.92,22.918m0-41.4A18.477,18.477,0,1,0,41.4,37.891,18.5,18.5,0,0,0,22.918,19.412" transform="translate(0 18.276)"/><path class="a" d="M6.935,34.639A2.221,2.221,0,0,1,5.822,30.5l10.233-5.9a2.221,2.221,0,1,1,2.221,3.846l-10.233,5.9a2.215,2.215,0,0,1-1.108.3" transform="translate(5.752 29.653)"/><path class="a" d="M11.595,36.967h-.009a2.22,2.22,0,0,1-2.212-2.23l.064-15.016a2.221,2.221,0,0,1,2.221-2.212h.009a2.223,2.223,0,0,1,2.212,2.232l-.064,15.014a2.221,2.221,0,0,1-2.221,2.212" transform="translate(11.443 21.374)"/></g></g></svg>