<svg xmlns="http://www.w3.org/2000/svg" xmlns:xlink="http://www.w3.org/1999/xlink" width="71.71" height="77.788" viewBox="0 0 71.71 77.788"><defs><style>.a{fill:#c30010;}.b{clip-path:url(#a);}</style><clipPath id="a"><rect class="a" width="71.71" height="77.788"/></clipPath></defs><g class="b" transform="translate(0 0)"><path class="a" d="M36.462.143Q47.885,5.682,59.308,11.219q5.559,2.691,11.13,5.357a2.137,2.137,0,0,1,1.23,1.788,6.826,6.826,0,0,1,.023.833q0,19.79.019,39.579a2.745,2.745,0,0,1-1.748,2.782q-16.383,7.9-32.734,15.873a2.951,2.951,0,0,1-2.807.007Q18.134,69.51,1.816,61.647A2.846,2.846,0,0,1,0,58.749Q.05,38.922,0,19.094a2.754,2.754,0,0,1,1.745-2.787Q18.436,8.253,35.1.143a1.708,1.708,0,0,1,1.365,0M4.181,40.025c0,5.762.009,11.524-.013,17.286a1.189,1.189,0,0,0,.8,1.262c2,.918,3.963,1.9,5.94,2.86q11.011,5.344,22.022,10.688c.732.355.75.341.763-.447,0-.126,0-.253,0-.379q0-17.021.02-34.041a1.561,1.561,0,0,0-1.03-1.663q-13.8-6.63-27.562-13.331c-.943-.457-.944-.459-.945.631q0,8.567,0,17.134m33.687,14.21q0,8.68,0,17.36c0,.891.009.894.824.5q14.007-6.805,28.019-13.6a1.2,1.2,0,0,0,.813-1.251Q67.495,39.922,67.51,22.6c0-.862-.006-.864-.752-.5-3.115,1.508-6.239,3-9.339,4.533-2.012,1-1.628.388-1.646,2.61-.025,3.133,0,6.267-.011,9.4a2.093,2.093,0,0,1-2.66,2.166,2.269,2.269,0,0,1-1.494-2.312c-.012-2.729,0-5.458-.006-8.187,0-.841-.011-.845-.779-.473-4.092,1.982-8.178,3.977-12.281,5.935a1.1,1.1,0,0,0-.683,1.182q.024,8.642.01,17.284m11.474-28.4c-.2-.114-.386-.233-.583-.329q-13.8-6.7-27.6-13.4a1.313,1.313,0,0,0-1.279,0c-4.15,2.032-8.31,4.043-12.464,6.066-.166.081-.4.092-.466.373.153.08.3.164.46.239Q21.32,25.516,35.222,32.264a1.23,1.23,0,0,0,1.2-.04q6.1-2.967,12.2-5.913c.239-.116.532-.167.716-.478M25.445,9.52c.08.188.267.223.419.3Q39.8,16.572,53.735,23.332a1.162,1.162,0,0,0,1.134-.039c3.039-1.486,6.086-2.954,9.127-4.436.216-.105.484-.149.615-.388-.067-.172-.221-.209-.354-.273Q50.32,11.441,36.386,4.679a1.227,1.227,0,0,0-1.2,0c-3.059,1.5-6.131,2.979-9.2,4.471-.193.094-.442.126-.543.369" transform="translate(0 0)"/></g></svg>