<svg xmlns="http://www.w3.org/2000/svg" width="76.375" height="84.14" viewBox="0 0 76.375 84.14"><defs><style>.a{fill:#919191;}.b{fill:#404040;}</style></defs><g transform="translate(-119.476 -53.463)"><path class="a" d="M190.09,132.978c-6.372,3.6-17.3,4.625-32.427,4.625s-26.054-1.028-32.427-4.625c-3.825-2.154-5.761-5.09-5.761-7.2,0-1.2.638-1.884,2.058-1.884h72.257c1.422,0,2.058.685,2.058,1.884C195.851,127.888,193.915,130.824,190.09,132.978Zm3.7-55.8H121.534a1.818,1.818,0,0,1-2.058-2.055c0-7.832,11.79-21.66,38.187-21.66,26.153,0,38.187,13.827,38.187,21.66A1.818,1.818,0,0,1,193.791,77.178Z" transform="translate(0 0)"/><path class="b" d="M135.34,540.412a1.24,1.24,0,0,1-.245-.661c0-.269.147-.465.441-.734a22.494,22.494,0,0,0,3.309-3.671,5.53,5.53,0,0,0,1-2.936,3.984,3.984,0,0,0-4.044-3.794,4.126,4.126,0,0,0-3.48,2.154,32.983,32.983,0,0,1-3.406,4.871c-.221.221-.343.269-.514.269-.295,0-.417-.2-.417-.513v-2.448c0-2.4-1.422-4.332-4-4.332-2.6,0-4,1.933-4,4.332v15.076c0,2.4,1.4,4.333,4,4.333,2.574,0,4-1.933,4-4.333V544.55c0-.294.122-.514.417-.514.392,0,.491.391.588.587a25.866,25.866,0,0,0,3.726,5.9,5.058,5.058,0,0,0,3.652,1.836,4.272,4.272,0,0,0,4.192-4.112,4.921,4.921,0,0,0-1.643-3.475A45.265,45.265,0,0,1,135.34,540.412Z" transform="translate(-0.473 -430.928)"/><path class="b" d="M541.6,354.1c3.848,0,6.275-2.448,6.275-6.02,0-2.276-1.373-3.843-4.118-3.843h-.784c-1.447,0-2.574.686-2.574,2.227a2.063,2.063,0,0,0,2.108,2.032c.466,0,.76.147.76.49,0,.44-.514.734-1.1.734-1.839,0-3.088-1.3-3.088-3.72,0-2.692,1.716-3.671,3.039-3.671,1.618,0,1.887.833,3.014.833a2.188,2.188,0,0,0,2.182-2.2,2.345,2.345,0,0,0-.931-1.909,7.507,7.507,0,0,0-4.632-1.321c-3.8,0-7.5,2.5-7.5,8.272C534.25,351.529,537.951,354.1,541.6,354.1Z" transform="translate(-376.169 -257.807)"/><path class="b" d="M122.343,355.36H125.8c3.26,0,5.245-2.179,5.245-4.895a4.187,4.187,0,0,0-1.593-3.426c-.122-.1-.245-.2-.245-.294,0-.122.074-.171.2-.318a3.936,3.936,0,0,0,.931-2.644c0-2.936-1.986-4.5-5.074-4.5h-2.917a2.536,2.536,0,0,0-2.867,2.644v10.792A2.535,2.535,0,0,0,122.343,355.36Zm1.447-11.869a.542.542,0,0,1,.613-.563h.318a1.265,1.265,0,0,1,1.373,1.371,1.323,1.323,0,0,1-1.373,1.42H124.4a.542.542,0,0,1-.613-.563Zm0,5.727a.542.542,0,0,1,.613-.563h.441a1.375,1.375,0,0,1,1.519,1.493,1.443,1.443,0,0,1-1.519,1.542H124.4a.542.542,0,0,1-.613-.563Z" transform="translate(0 -259.214)"/><path class="b" d="M814.219,355.494a2.4,2.4,0,0,0,2.427-2.644v-2.594c0-.318.147-.465.392-.465.295,0,.392.171.441.465a10.086,10.086,0,0,0,1.47,3.794,2.955,2.955,0,0,0,2.4,1.445,2.339,2.339,0,0,0,2.378-2.252,3.133,3.133,0,0,0-.784-2.007,9.611,9.611,0,0,1-1.666-2.594.434.434,0,0,1,.2-.538,4.881,4.881,0,0,0,1.643-3.94c0-3.108-2.574-4.871-5.687-4.871h-2.77a2.535,2.535,0,0,0-2.867,2.644v10.916A2.4,2.4,0,0,0,814.219,355.494Zm2.157-11.575a.543.543,0,0,1,.613-.563h.343a1.258,1.258,0,0,1,1.348,1.371,1.305,1.305,0,0,1-1.348,1.42h-.343a.542.542,0,0,1-.613-.563Z" transform="translate(-627.878 -259.227)"/><path class="b" d="M363.611,528.6c-2.745,0-4.24,2.055-4.24,4.625v14.489c0,2.57,1.5,4.625,4.24,4.625s4.24-2.055,4.24-4.625V533.228C367.852,530.659,366.358,528.6,363.611,528.6Z" transform="translate(-217.567 -430.916)"/><path class="b" d="M734.137,538.012h-1.2c-2.157,0-3.823,1-3.823,3.206a3.061,3.061,0,0,0,3.162,2.961c.661,0,1.127.2,1.127.709,0,.637-.784,1.052-1.618,1.052-2.77,0-4.657-1.885-4.657-5.384,0-3.891,2.574-5.311,4.558-5.311,2.427,0,2.819,1.224,4.51,1.224a3.249,3.249,0,0,0,3.284-3.206,3.33,3.33,0,0,0-1.4-2.766,11.489,11.489,0,0,0-6.937-1.909c-5.71,0-11.275,3.6-11.275,11.968,0,8,5.563,11.747,11.054,11.747,5.759,0,9.411-3.548,9.411-8.737C740.338,540.288,738.28,538.012,734.137,538.012Z" transform="translate(-544.513 -430.902)"/><path class="b" d="M700.538,355.334a2.271,2.271,0,1,0,0-4.528h-2.206a.542.542,0,0,1-.613-.563v-.465a.542.542,0,0,1,.613-.563h1.691a1.963,1.963,0,1,0,0-3.916h-1.691a.542.542,0,0,1-.613-.563v-.391a.542.542,0,0,1,.613-.563h2.206a2.271,2.271,0,1,0,0-4.528h-4.632a2.535,2.535,0,0,0-2.867,2.644v10.792a2.536,2.536,0,0,0,2.867,2.644h4.632Z" transform="translate(-520.178 -259.189)"/><path class="b" d="M262.187,355.008c3.971,0,6.079-2.374,6.079-5.359V341.4a2.435,2.435,0,1,0-4.853,0v7.978a1.189,1.189,0,0,1-1.226,1.273,1.15,1.15,0,0,1-1.177-1.273V341.4a2.447,2.447,0,1,0-4.878,0v8.247C256.133,352.635,258.217,355.008,262.187,355.008Z" transform="translate(-123.937 -258.741)"/><path class="b" d="M412.92,355.482a2.339,2.339,0,0,0,2.378-2.252,3.133,3.133,0,0,0-.784-2.007,10.934,10.934,0,0,1-1.666-2.594.434.434,0,0,1,.2-.538,4.881,4.881,0,0,0,1.643-3.94c0-3.109-2.574-4.871-5.687-4.871h-2.771a2.535,2.535,0,0,0-2.867,2.644v10.916a2.435,2.435,0,1,0,4.853,0v-2.594c0-.318.147-.465.392-.465.295,0,.392.171.441.465a10.093,10.093,0,0,0,1.47,3.794A2.959,2.959,0,0,0,412.92,355.482Zm-4.021-9.349h-.343a.542.542,0,0,1-.613-.563v-1.663a.542.542,0,0,1,.613-.563h.343a1.258,1.258,0,0,1,1.348,1.371A1.3,1.3,0,0,1,408.9,346.133Z" transform="translate(-257.462 -259.214)"/><path class="b" d="M497.459,528.6c-2.525,0-3.9,1.884-3.9,4.259v5.286c0,.44-.147.637-.417.637-.2,0-.343-.122-.514-.465l-3.406-6.608c-1.3-2.521-2.647-3.108-4.192-3.108-2.574,0-4,1.933-4,4.356v15.126c0,2.375,1.373,4.259,3.9,4.259s3.9-1.885,3.9-4.259V542.8c0-.44.147-.637.417-.637.2,0,.343.122.514.465l3.406,6.608c1.3,2.522,2.7,3.109,4.192,3.109,2.574,0,4-1.933,4-4.356V532.862C501.356,530.487,499.984,528.6,497.459,528.6Z" transform="translate(-327.908 -430.916)"/><path class="b" d="M902.694,923.312a1.21,1.21,0,0,1,2.42,0,1.21,1.21,0,1,1-2.42,0Zm2.157,0a.947.947,0,1,0-.947.969A.938.938,0,0,0,904.851,923.312Zm-1.367.519V922.8a.134.134,0,0,1,.124-.131h.346a.412.412,0,0,1,.46.386.382.382,0,0,1-.354.394l.271.3a.129.129,0,0,1,.041.081.117.117,0,0,1-.123.123.126.126,0,0,1-.107-.058l-.362-.427h-.041v.353a.128.128,0,0,1-.255,0Zm.437-.584c.149,0,.23-.073.23-.172s-.073-.164-.205-.164h-.205v.337h.18Z" transform="translate(-710.319 -787.792)"/></g></svg>