<svg xmlns="http://www.w3.org/2000/svg" width="89.316" height="80.126" viewBox="0 0 89.316 80.126"><defs><style>.a{fill:#919191;}.b{fill:#404040;}.c{fill:#fff;}.d{fill:#fdfcfc;}</style></defs><g transform="translate(0)"><path class="a" d="M163.837,36.638q17.768,0,35.537,0a4.374,4.374,0,0,1,2.821.919,4.137,4.137,0,0,1,1.673,3.416c-.012,1.062-.1,2.123-.148,3.185q-.172,3.444-.346,6.888-.112,2.209-.231,4.419c-.121,2.242-.246,4.484-.365,6.727-.069,1.3-.123,2.6-.191,3.9-.091,1.751-.19,3.5-.285,5.254q-.046.856-.089,1.712c-.091,1.845-.177,3.69-.27,5.535q-.157,3.105-.321,6.21-.119,2.289-.237,4.578-.16,3.085-.32,6.17-.119,2.289-.237,4.578-.161,3.1-.322,6.21c-.079,1.526-.142,3.053-.245,4.577-.047.689-.039,1.381-.123,2.068a4.338,4.338,0,0,1-4.184,3.772c-.146,0-.293,0-.439,0q-31.688,0-63.376,0a4.591,4.591,0,0,1-2.13-.405,4.215,4.215,0,0,1-2.485-3.633c-.109-1.51-.163-3.025-.242-4.538q-.161-3.065-.322-6.13-.118-2.229-.236-4.459-.162-3.065-.322-6.13-.118-2.249-.238-4.5l-.319-6.051-.239-4.538q-.12-2.289-.241-4.577l-.317-6.011q-.16-3.046-.321-6.091-.118-2.249-.237-4.5-.161-3.045-.321-6.091-.12-2.269-.24-4.538c-.063-1.154-.157-2.307-.191-3.462a4.357,4.357,0,0,1,3.414-4.38,5.26,5.26,0,0,1,1.189-.092h35.5Z" transform="translate(-123.735 -36.633)"/><path class="b" d="M170.96,46.483q16.492,0,32.983,0a4.845,4.845,0,0,1,1.572.208,4.1,4.1,0,0,1,2.785,4.232c-.068.914-.1,1.831-.15,2.746q-.141,2.607-.283,5.214c-.037.69-.066,1.38-.1,2.071q-.159,3.085-.32,6.17-.172,3.384-.339,6.768-.116,2.289-.237,4.578-.159,3.065-.319,6.13t-.319,6.13q-.161,3.1-.322,6.21-.118,2.269-.236,4.538-.161,3.1-.322,6.21-.116,2.229-.235,4.458c-.1,1.778-.17,3.557-.3,5.333a4.019,4.019,0,0,1-3.853,3.674c-.133,0-.266,0-.4,0q-29.573,0-59.146,0a4.212,4.212,0,0,1-2.389-.631,3.97,3.97,0,0,1-1.889-3.283q-.155-3.105-.322-6.21-.114-2.169-.232-4.338c-.093-1.7-.193-3.4-.284-5.094-.067-1.26-.122-2.522-.188-3.782-.094-1.765-.2-3.529-.29-5.293-.068-1.274-.122-2.548-.19-3.822-.093-1.751-.2-3.5-.288-5.253-.069-1.3-.124-2.6-.193-3.9-.091-1.725-.193-3.449-.286-5.174-.064-1.194-.116-2.389-.18-3.583-.1-1.844-.2-3.688-.3-5.532-.065-1.234-.119-2.469-.184-3.7-.094-1.778-.2-3.555-.292-5.333-.068-1.287-.127-2.575-.19-3.862-.028-.571-.06-1.141-.085-1.712a4.047,4.047,0,0,1,4.061-4.167H170.96Z" transform="translate(-130.891 -43.753)"/><path class="a" d="M425.722,38.481A3.223,3.223,0,1,0,429,41.712,3.2,3.2,0,0,0,425.722,38.481Zm-.012,5.747a2.453,2.453,0,0,1-2.455-2.575,2.468,2.468,0,1,1,4.933.07A2.419,2.419,0,0,1,425.71,44.229Z" transform="translate(-339.688 -37.969)"/><path class="a" d="M202.773,124.677a1.47,1.47,0,0,1-.052-.662c-.013-.252,0-.5,0-.759-.274.043-14.307,7.173-14.8,7.524.477-.067.9-.125,1.331-.189q2.3-.344,4.606-.692,2.263-.341,4.527-.684c1.693-.253,3.387-.5,5.08-.754s3.385-.512,5.079-.764,3.414-.5,5.121-.752c.814-.12,1.627-.244,2.441-.365.131-.019.264-.032.4-.042.311-.022.455.076.49.327a.462.462,0,0,1-.363.539c-.283.07-.572.114-.859.168q-5.5,1.035-10.995,2.069-6.261,1.176-12.522,2.35-5.243.987-10.485,1.979a2.053,2.053,0,0,0-.552.219q-4.67,2.377-9.339,4.755-1.6.814-3.191,1.636a.634.634,0,0,0-.318.227,4.855,4.855,0,0,1-1.241.6c-.133.059-.269.112-.4.178q-3.142,1.6-6.282,3.211a1.127,1.127,0,0,1-1.689-.611,2.159,2.159,0,0,1-.179-.771.709.709,0,0,1,.451-.757c1.185-.57,2.358-1.166,3.54-1.743q5.479-2.677,10.959-5.351a.748.748,0,0,0,.362-.241c-.5.093-.965.177-1.429.267q-5.943,1.15-11.886,2.3c-2.1.406-4.2.8-6.295,1.219a.6.6,0,0,1-.654-.245.889.889,0,0,1-.125-.2,4.586,4.586,0,0,1-.357-1.745c0-.53.208-.72.737-.8q3.523-.538,7.046-1.081c1.824-.278,3.649-.549,5.473-.828q3.012-.46,6.022-.929c1.981-.3,3.963-.6,5.944-.911,1.115-.173,2.228-.361,3.342-.535a1.769,1.769,0,0,0,.49-.155q6.849-3.229,13.7-6.455c.432-.2.868-.4,1.3-.61.113-.055.265-.077.28-.248.9-.411,1.8-.815,2.68-1.273.668-.3,1.313-.643,1.987-.924a.7.7,0,0,0,.464-.742c-.011-2.032-.007-4.063,0-6.1,0-.2-.054-.431.134-.6.254.142.18.393.181.6.008,1.923,0,3.846.008,5.769,0,.188-.1.446.111.547.184.089.367-.1.545-.181.261-.122.288-.354.288-.6q0-1.472,0-2.944c0-1.3,0-2.6,0-3.9,0-.2-.052-.431.145-.592.091.134.046.284.046.426q0,3.508,0,7.015v.45a.9.9,0,0,0,.457-.152q1.535-.713,3.067-1.434c.156-.073.313-.147.472-.213.3-.122.462-.067.593.189s.065.394-.251.559c-.353.185-.71.362-1.064.543-.993.507-1.983,1.022-2.982,1.518a.455.455,0,0,0-.3.487c.019.491.008.983,0,1.474a.76.76,0,0,1-.04.39c-.171-.1-.133-.274-.138-.425-.011-.4-.006-.791,0-1.187,0-.274-.1-.3-.341-.205a.858.858,0,0,0-.645.985C202.926,124.121,203.016,124.435,202.773,124.677Z" transform="translate(-144.995 -92.156)"/><path class="c" d="M308.392,213.8c0,1.741.007,3.482,0,5.223,0,.56.089.5-.522.525-.913.03-.772.012-.773-.724q-.006-4.485,0-8.97c0-.133,0-.266-.008-.4,0-.067-.02-.14-.1-.146s-.117.057-.138.121c-.051.151-.1.3-.143.455q-1.291,4.619-2.58,9.238c-.118.422-.126.43-.575.434-.4,0-.8.007-1.2,0-.363,0-.391-.024-.492-.383q-.863-3.065-1.722-6.131c-.315-1.124-.627-2.249-.945-3.372-.04-.143-.035-.381-.236-.355s-.134.257-.134.4c0,3.017,0,6.033-.006,9.05,0,.859.088.782-.8.782-.529,0-.53-.007-.53-.526q0-5.223,0-10.445c0-.066,0-.133,0-.2.012-.331.031-.354.376-.357.572,0,1.143,0,1.714,0,.39,0,.408.011.519.4q.62,2.182,1.232,4.367.706,2.51,1.41,5.02c.048.169.028.446.241.453.229.007.207-.278.253-.442q1.323-4.672,2.632-9.348c.127-.452.13-.452.592-.451.518,0,1.037,0,1.555,0,.355,0,.384.027.385.39,0,1.116,0,2.233,0,3.349V213.8Z" transform="translate(-249.349 -160.544)"/><path class="c" d="M304.453,122.822a8.407,8.407,0,0,1-1.086.548q-.585.281-1.173.554c-.114.053-.228.148-.365.051q-1.3-4.678-2.611-9.357c-.035-.127-.084-.251-.131-.375a.118.118,0,0,0-.132-.068.131.131,0,0,0-.122.134c-.009.146-.015.292-.015.438q0,4.407,0,8.814c0,.186,0,.372-.006.558s-.073.3-.284.3c-.266-.007-.532,0-.8,0a.216.216,0,0,1-.244-.245c0-.093,0-.186,0-.279q0-5.225,0-10.449c0-.54,0-.541.549-.542q.738,0,1.476,0c.474,0,.477,0,.6.448q.729,2.587,1.455,5.174c.4,1.418.793,2.837,1.2,4.255.039.139.011.368.235.355.181-.011.169-.216.206-.348q1.336-4.732,2.666-9.466c.117-.416.12-.416.538-.417.532,0,1.064,0,1.6,0,.136,0,.305-.053.372.143,0,.8-.011,1.591-.011,2.387,0,1.751-.005,3.5,0,5.254a.427.427,0,0,1-.3.482c-.294.112-.573.261-.879.4a.8.8,0,0,1-.063-.451q0-3.144,0-6.289a.982.982,0,0,0-.03-.431c-.289-.015-.248.239-.29.39-.6,2.158-1.208,4.311-1.814,6.466A4.773,4.773,0,0,1,304.453,122.822Z" transform="translate(-249.35 -91.767)"/><path class="c" d="M248.305,121.317c-.744,0-1.489.007-2.233,0a.328.328,0,0,0-.378.3c-.184.788-.385,1.573-.579,2.359-.117.472-.118.474-.619.472-.213,0-.426,0-.638-.008-.149,0-.219-.077-.2-.229a1.925,1.925,0,0,1,.032-.2q1.27-4.956,2.543-9.912a3.15,3.15,0,0,1,.145-.455.985.985,0,0,1,.98-.673c.691.008,1.383.011,2.074,0a.869.869,0,0,1,.906.631,15.961,15.961,0,0,1,.463,1.689q1.1,4.3,2.188,8.605c.139.549.135.552-.432.555-.16,0-.319,0-.479,0-.4-.007-.421-.02-.516-.4q-.281-1.12-.557-2.241c-.013-.052-.024-.1-.039-.155-.091-.324-.1-.339-.432-.342-.744-.006-1.489,0-2.233,0Z" transform="translate(-210.436 -91.822)"/><path class="c" d="M252.37,219.567c-.8-.012-.678.1-.88-.692-.174-.681-.334-1.365-.505-2.048-.1-.382-.1-.385-.473-.385-1.448,0-2.9,0-4.344,0-.476,0-.375-.042-.492.392-.2.755-.377,1.519-.565,2.279-.109.444-.114.447-.551.447-.226,0-.452-.007-.678,0-.171,0-.248-.067-.219-.24.013-.078.027-.157.047-.234q1.212-4.741,2.425-9.482c.063-.244.126-.489.206-.727a1.022,1.022,0,0,1,1.067-.783q1-.012,1.993,0a.86.86,0,0,1,.955.677c.277.776.432,1.586.636,2.382q1,3.892,1.978,7.789c.148.589.287.633-.48.626Z" transform="translate(-210.436 -160.59)"/><path class="c" d="M204.374,122.379c0-.452-.013-.9,0-1.356a2.327,2.327,0,0,0-.249-1.113q-1.548-3.233-3.083-6.472c-.223-.468-.222-.469.278-.472.266,0,.532.006.8,0a.376.376,0,0,1,.4.257c.061.147.124.293.188.439q1.055,2.428,2.113,4.856c.056.129.069.341.225.345.183,0,.2-.221.262-.356.785-1.7,1.573-3.4,2.337-5.105a.606.606,0,0,1,.692-.436c.224.024.452.011.677.016.171,0,.2.1.144.238-.035.086-.079.168-.119.252-1.012,2.135-2.02,4.273-3.04,6.4a2.511,2.511,0,0,0-.253,1.151c.014,1,.007,1.994,0,2.991,0,.408-.016.42-.431.426-.2,0-.4,0-.6,0-.314-.01-.346-.036-.349-.344-.006-.572,0-1.143,0-1.715Z" transform="translate(-179.526 -91.813)"/><path class="c" d="M203.618,209.855a4.361,4.361,0,0,1,1.242-.6l2.1,4.807c.217-.1.245-.265.308-.4q1.134-2.458,2.261-4.919c.061-.133.125-.264.183-.4a.33.33,0,0,1,.3-.212,4.227,4.227,0,0,1,1.12.03c.042.185-.067.314-.131.45-1,2.124-2,4.249-3.019,6.366a2.646,2.646,0,0,0-.276,1.225c.017.983.008,1.967.005,2.95,0,.418-.009.422-.423.426-.226,0-.452-.006-.678,0-.208.007-.283-.093-.28-.291.005-.372,0-.744,0-1.116,0-.678-.01-1.355.005-2.033a2.306,2.306,0,0,0-.247-1.073q-1.223-2.548-2.433-5.1C203.643,209.931,203.632,209.893,203.618,209.855Z" transform="translate(-181.488 -160.606)"/><path class="d" d="M332.287,148.421c0-.435,0-.87,0-1.3a.3.3,0,0,1,.176-.317c.331-.159.656-.327,1.047-.524.011.754.021,1.454.032,2.155a.16.16,0,0,1-.119.093,5.359,5.359,0,0,1-.987.011A.156.156,0,0,1,332.287,148.421Z" transform="translate(-274.51 -115.901)"/><path class="b" d="M322.645,126.163c.264-.956.526-1.913.793-2.868q.744-2.661,1.493-5.321c.029-.1.06-.2.092-.3.024-.076.054-.167.148-.155.126.016.1.135.114.223-.008.145-.021.29-.021.434,0,2.146-.006,4.291.005,6.437a.462.462,0,0,1-.311.512c-.655.284-1.3.6-1.943.906A1.164,1.164,0,0,1,322.645,126.163Z" transform="translate(-267.541 -95.107)"/><path class="b" d="M254.65,123.03c-.6,0-1.2,0-1.793,0-.483,0-.488,0-.376-.452q.674-2.7,1.353-5.4c.086-.343.111-.361.456-.369.225,0,.451,0,.677,0,.421,0,.442.019.543.418q.274,1.079.546,2.159.386,1.543.768,3.088c.139.558.138.56-.422.56Z" transform="translate(-216.771 -94.594)"/><path class="b" d="M254.674,218.22h-1.753c-.08,0-.16,0-.239,0-.253-.021-.29-.068-.226-.324q.551-2.22,1.108-4.438c.1-.386.2-.771.285-1.159a.332.332,0,0,1,.388-.3c.278.014.558,0,.836,0,.313,0,.35.032.431.349.165.642.324,1.286.485,1.929q.419,1.678.837,3.358c0,.013.009.025.013.038.128.52.107.549-.411.55Q255.551,218.221,254.674,218.22Z" transform="translate(-216.777 -163.413)"/><path class="a" d="M431.791,45.887c.12-.073.2-.116.276-.168a.736.736,0,0,0,.3-.937.807.807,0,0,0-.646-.526,4.6,4.6,0,0,0-1.659-.016c-.3.043-.3.044-.3.337q0,1.253,0,2.506c0,.393,0,.393.394.391.04,0,.08,0,.119,0,.191.017.258-.074.252-.259-.008-.278,0-.557,0-.835,0-.128.052-.193.189-.194.45,0,.717.051.861.664.164.7.037.631.839.615a.408.408,0,0,0,.12-.052C432.332,46.891,432.419,46.25,431.791,45.887Zm-.394-.342a1.028,1.028,0,0,1-.3.1c-.514.107-.566.064-.565-.455,0-.5,0-.5.513-.469a.739.739,0,0,1,.341.084A.42.42,0,0,1,431.4,45.545Z" transform="translate(-344.981 -42.083)"/></g></svg>