<svg xmlns="http://www.w3.org/2000/svg" width="194.352" height="60.894" viewBox="0 0 194.352 60.894"><defs><style>.a,.b{fill:#404040;}.a,.c{fill-rule:evenodd;}.c{fill:#919191;}</style></defs><g transform="translate(-12.724 -12.164)"><path class="a" d="M432.906,86.6v18.753h3.568a6.511,6.511,0,0,0,2.6-.494,5.277,5.277,0,0,0,1.969-1.477,6.661,6.661,0,0,0,1.242-2.271,9.374,9.374,0,0,0,.414-2.881V93.69a7.692,7.692,0,0,0-1.657-5.12,5.257,5.257,0,0,0-1.969-1.474,6.54,6.54,0,0,0-2.6-.491Zm3.849-4.288a13.747,13.747,0,0,1,2.525.224,11.349,11.349,0,0,1,2.278.672l.012,0,.006.012c1.033,1.85,2.128,3.793,3.24,5.752,1.142,2.01,2.3,4.037,3.434,6l.005.009v3.247a12.305,12.305,0,0,1-.811,4.562,10.426,10.426,0,0,1-2.436,3.641,10.765,10.765,0,0,1-3.686,2.386,12.593,12.593,0,0,1-4.568.8H424.469v-3.343l2.9-.562V86.24l-2.9-.562V82.316Z" transform="translate(-267.728 -45.615)"/><path class="a" d="M369.3,95a15.42,15.42,0,0,0-.438-3.817,9.787,9.787,0,0,0-1.311-3.023,5.7,5.7,0,0,0-2.168-1.964,6.559,6.559,0,0,0-3-.655,6.487,6.487,0,0,0-2.983.65,5.47,5.47,0,0,0-2.117,1.949,9.788,9.788,0,0,0-1.263,3.013A16.161,16.161,0,0,0,355.6,95v.447a16.207,16.207,0,0,0,.426,3.876,9.841,9.841,0,0,0,1.279,3.035,5.535,5.535,0,0,0,2.126,1.954,6.45,6.45,0,0,0,2.974.652,6.607,6.607,0,0,0,3.013-.652,5.6,5.6,0,0,0,2.158-1.954,9.818,9.818,0,0,0,1.3-3.035,15.941,15.941,0,0,0,.434-3.875Zm5.52.447a16.653,16.653,0,0,1-.859,5.479,13.233,13.233,0,0,1-2.578,4.439,11.167,11.167,0,0,1-3.959,2.939,13.23,13.23,0,0,1-10.023,0,11.1,11.1,0,0,1-3.939-2.94,13.31,13.31,0,0,1-2.553-4.443,16.77,16.77,0,0,1-.852-5.475V95.04a16.716,16.716,0,0,1,.85-5.455,13.392,13.392,0,0,1,2.549-4.444,11.023,11.023,0,0,1,3.928-2.953,12.255,12.255,0,0,1,5-.985,12.4,12.4,0,0,1,5.023.985,11.245,11.245,0,0,1,3.973,2.954,13.383,13.383,0,0,1,2.582,4.447,16.5,16.5,0,0,1,.861,5.451Z" transform="translate(-219.346 -44.891)"/><path class="a" d="M294.313,95a15.419,15.419,0,0,0-.438-3.817,9.8,9.8,0,0,0-1.311-3.023A5.7,5.7,0,0,0,290.4,86.2a6.558,6.558,0,0,0-3-.655,6.487,6.487,0,0,0-2.983.65,5.467,5.467,0,0,0-2.117,1.949,9.788,9.788,0,0,0-1.263,3.013A16.141,16.141,0,0,0,280.608,95v.447a16.207,16.207,0,0,0,.426,3.876,9.823,9.823,0,0,0,1.279,3.035,5.531,5.531,0,0,0,2.125,1.954,6.45,6.45,0,0,0,2.975.652,6.608,6.608,0,0,0,3.013-.652,5.606,5.606,0,0,0,2.157-1.954,9.827,9.827,0,0,0,1.3-3.035,15.96,15.96,0,0,0,.433-3.875Zm5.52.447a16.653,16.653,0,0,1-.859,5.479,13.227,13.227,0,0,1-2.578,4.439,11.161,11.161,0,0,1-3.959,2.939,13.23,13.23,0,0,1-10.023,0,11.1,11.1,0,0,1-3.939-2.94,13.31,13.31,0,0,1-2.553-4.443,16.781,16.781,0,0,1-.852-5.475V95.04a16.706,16.706,0,0,1,.85-5.455,13.386,13.386,0,0,1,2.549-4.444,11.022,11.022,0,0,1,3.928-2.953,12.256,12.256,0,0,1,5-.985,12.4,12.4,0,0,1,5.023.985,11.242,11.242,0,0,1,3.973,2.954,13.384,13.384,0,0,1,2.582,4.447,16.511,16.511,0,0,1,.861,5.451Z" transform="translate(-170.584 -44.891)"/><path class="a" d="M211.44,106.271l2.867-.556V86.24l-2.9-.562V82.316h21.751v7.537c-1.422,0-2.844,0-4.266,0l-.243-3.248h-8.806v7.418h9.536V98.31h-9.536v7.405l2.917.562v3.343H211.41v-3.343Z" transform="translate(-129.191 -45.615)"/><path class="b" d="M52.182,64.354a17.008,17.008,0,0,0,2.385-.964,16.629,16.629,0,0,0,2.695-1.675,14.862,14.862,0,0,0,2.307-2.182,15.841,15.841,0,0,0,1.839-2.676,3.346,3.346,0,0,0,.329-.944,1.552,1.552,0,0,0-.037-.729.525.525,0,0,0-.28-.343,1.22,1.22,0,0,0-.692-.03,6.247,6.247,0,0,0-1.526.5,7.55,7.55,0,0,0-1.458.919,15.094,15.094,0,0,0-2.6,2.647q-.58.756-1.069,1.53t-.894,1.577q-.405.8-.69,1.51-.18.446-.314.86M62.937,58a17.532,17.532,0,0,1-2.146,2.959,16.969,16.969,0,0,1-2.7,2.419A19.933,19.933,0,0,1,51.816,66.4c0,.13,0,.26,0,.386a5.409,5.409,0,0,0,.061.627,4.856,4.856,0,0,0,.132.606,4.482,4.482,0,0,0,.206.565h0a2.833,2.833,0,0,0,.278.491,2.754,2.754,0,0,0,.366.419h0a1.889,1.889,0,0,0,.441.307,2.4,2.4,0,0,0,.563.2h0a3.32,3.32,0,0,0,.84.077,5.179,5.179,0,0,0,.993-.132,6.381,6.381,0,0,0,1.1-.362,9.321,9.321,0,0,0,1.179-.614,12.932,12.932,0,0,0,1.241-.864Q59.849,67.615,60.5,67A18.089,18.089,0,0,0,61.8,65.628q.649-.758,1.288-1.646.317-.442.612-.884t.552-.862q.258-.421.507-.84c.5-.838.83-1.761,1.244-2.643q.492-1.048.993-2.03.512-1,1.073-2.018t1.1-2.011q.4-.737.761-1.429l-.235.1q-.572.24-1.118.485-.569.257-1.127.534t-1.137.591l-.037.02-.035.01a1.281,1.281,0,0,1-.351.051.915.915,0,0,1-.347-.064.877.877,0,0,1-.274-.175.807.807,0,0,1-.248-.6.957.957,0,0,1,.067-.325,1.032,1.032,0,0,1,.184-.3,1.3,1.3,0,0,1,.273-.236l.006,0q1.47-.93,2.974-1.71,1.444-.749,2.928-1.363.565-1.12,1.034-2.142.49-1.066.9-2.079t.72-1.9q.314-.9.548-1.719l.043-.15.139-.069a1.258,1.258,0,0,1,.638-.118,2.33,2.33,0,0,1,.7.167,4.481,4.481,0,0,1,.7.342,4.884,4.884,0,0,1,.646.466,4.145,4.145,0,0,1,.567.587,4.09,4.09,0,0,1,.438.684,2.061,2.061,0,0,1,.229.793,1.784,1.784,0,0,1-.126.788q-.087.226-.23.547-.157.351-.338.734t-.442.9l-.2.385a31.566,31.566,0,0,1,7.332-.553l.237.01.078.222a1.584,1.584,0,0,1,.086.43,1.971,1.971,0,0,1-.027.453,2.745,2.745,0,0,1-.112.433,2.588,2.588,0,0,1-.178.4,2.219,2.219,0,0,1-.248.362,2.026,2.026,0,0,1-.309.3,1.26,1.26,0,0,1-.387.208h0a.965.965,0,0,1-.418.038q-.972-.059-1.914-.057t-1.9.07q-.942.066-1.911.205-.89.127-1.8.317-.191.379-.389.758-.243.465-.485.909-.252.462-.478.887-.24.45-.463.876l-.412.785-.655,1.24q-.354.668-.826,1.577c-.355.682-.664,1.281-.919,1.778q-.469.916-.958,1.928T69.4,62.1q-.477,1.044-.86,1.98t-.687,1.8q-.3.848-.473,1.551a8.35,8.35,0,0,0-.222,1.235l-.007.1a1.074,1.074,0,0,0,.08.572.26.26,0,0,0,.213.123l.034,0h.4a5.9,5.9,0,0,0,1.186-.5,7.02,7.02,0,0,0,1.165-.822,15.422,15.422,0,0,0,1.116-1.066q.539-.569,1.033-1.2t.966-1.311q.478-.686.9-1.368.438-.705.854-1.359.454-.713.8-1.242a.825.825,0,0,1,.251-.256h0a.768.768,0,0,1,.35-.118h0a.962.962,0,0,1,.321.023h0a.933.933,0,0,1,.295.134,1.005,1.005,0,0,1,.38.481.733.733,0,0,1,.031.4,1.149,1.149,0,0,1-.147.369l-.011.016q-.39.584-.8,1.223t-.781,1.241q-.4.649-.795,1.247-.407.616-.824,1.206T73.3,67.741q-.453.579-.931,1.133t-1.014,1.073q-.526.509-1.1.968c-.094.079-.206.168-.332.265s-.257.192-.41.3-.32.217-.491.317-.351.194-.538.283-.378.169-.583.246-.415.147-.62.205a4.781,4.781,0,0,1-.688.141,5.541,5.541,0,0,1-.729.046h-.016a3.237,3.237,0,0,1-.851-.15,2.555,2.555,0,0,1-.726-.371,2.7,2.7,0,0,1-.563-.56,3.067,3.067,0,0,1-.4-.717,4.689,4.689,0,0,1-.237-.824,6.185,6.185,0,0,1-.1-.922A7.457,7.457,0,0,1,63,68.18a8.818,8.818,0,0,1,.159-1.035l.055-.313q-.422.54-.893,1.1T61.3,69.042q-.536.542-1.129,1.063a13,13,0,0,1-1.172.922,9.026,9.026,0,0,1-1.14.678,9.573,9.573,0,0,1-2.1.771q-.489.11-.929.171a7.5,7.5,0,0,1-.837.07q-.366.009-.68.014t-.548,0a7.681,7.681,0,0,1-2.486-.376,5.009,5.009,0,0,1-3.091-2.941,6.7,6.7,0,0,1-.439-2.3v0a10.868,10.868,0,0,1,.218-2.308,12.094,12.094,0,0,1,.714-2.293,17.446,17.446,0,0,1,1.229-2.361,27.858,27.858,0,0,1,1.775-2.531h0a11.354,11.354,0,0,1,.781-.886q.438-.452.993-.945t1.165-.946q.616-.458,1.282-.875A14.091,14.091,0,0,1,57.757,52.6a8.478,8.478,0,0,1,3.045-.486,3.3,3.3,0,0,1,1.8.49,2.9,2.9,0,0,1,.663.577,2.811,2.811,0,0,1,.45.746,2.974,2.974,0,0,1,.21.891,4.043,4.043,0,0,1-.048.989,4.634,4.634,0,0,1-.326,1.079A7.152,7.152,0,0,1,62.937,58Zm-17.8-5.817a.653.653,0,0,1,.514.019h0a2.033,2.033,0,0,1,.452.27q.264.2.558.462t.581.558q.3.305.564.618t.5.641a3.605,3.605,0,0,1,.367.6.991.991,0,0,1,.108.565l-.006.039-.014.035q-.7,1.745-1.42,3.588-.7,1.778-1.432,3.7-.724,1.886-1.513,3.718-.779,1.808-1.65,3.617c-2.132,4.432-7.456,10.908-11.042,14.167a14.3,14.3,0,0,1-2.244,1.742c-.749.433-1.323.5-1.647.118a1.029,1.029,0,0,1-.2-.7c.022-1,.2-1.2.957-2.077a51.608,51.608,0,0,0,5.386-7.617l.6-.97c.735-1.185,1.482-2.389,2.184-3.654l-.248.163q-.757.494-1.563.974h0q-.836.5-1.661.919-.845.431-1.72.808a23.563,23.563,0,0,1-3.561,1.211,15.326,15.326,0,0,1-1.8.343,13.589,13.589,0,0,1-1.758.113,14.67,14.67,0,0,1-6.082-1.1A9.681,9.681,0,0,1,14.226,71.5a9.5,9.5,0,0,1-1.5-5.188,22.973,22.973,0,0,1,.992-7.044,30.625,30.625,0,0,1,1.324-3.643,33.82,33.82,0,0,1,1.816-3.568,35.965,35.965,0,0,1,2.286-3.435,39,39,0,0,1,2.726-3.244,33.5,33.5,0,0,1,3.146-2.956,34.675,34.675,0,0,1,3.533-2.556,31.321,31.321,0,0,1,3.906-2.1A33.475,33.475,0,0,1,36.709,36.2a28.083,28.083,0,0,1,4.558-.938,31.043,31.043,0,0,1,4.8-.2,11.837,11.837,0,0,1,2.3.283,6.884,6.884,0,0,1,1.834.694,6.557,6.557,0,0,1,1.363,1.009,5.1,5.1,0,0,1,.95,1.257,5.9,5.9,0,0,1,.538,1.444,6.757,6.757,0,0,1,.166,1.595,11.111,11.111,0,0,1-.137,1.639,11.664,11.664,0,0,1-.38,1.625,12.641,12.641,0,0,1-.606,1.576,12.943,12.943,0,0,1-.816,1.495,13.279,13.279,0,0,1-.959,1.33A10.334,10.334,0,0,1,49.3,50.089a1.067,1.067,0,0,1-.474.266,4.573,4.573,0,0,1-.719.149q-.432.061-.879.095t-.936.043q-.492.009-.916-.016a8,8,0,0,1-.816-.089l-.1-.018a1.875,1.875,0,0,1-.566-.182.509.509,0,0,1-.3-.552,1.3,1.3,0,0,1,.021-.13l.1-.083q.3-.256.712-.625c.307-.274.594-.533.865-.78a14.979,14.979,0,0,0,1.772-1.957A12.209,12.209,0,0,0,48.5,43.746a6.635,6.635,0,0,0,.441-1.385,7.535,7.535,0,0,0,.146-1.519v-.007a2.979,2.979,0,0,0-.03-.476,4.036,4.036,0,0,0-.111-.525,2.905,2.905,0,0,0-.2-.509,3.121,3.121,0,0,0-.3-.477,2.4,2.4,0,0,0-.394-.414,3.2,3.2,0,0,0-.534-.355,3.022,3.022,0,0,0-.673-.257,5.1,5.1,0,0,0-.871-.138,18.715,18.715,0,0,0-3.382.149,20.047,20.047,0,0,0-3.391.767,26.537,26.537,0,0,0-3.325,1.31,27.806,27.806,0,0,0-3.172,1.767,31.657,31.657,0,0,0-3,2.192,34.053,34.053,0,0,0-2.793,2.584,37.782,37.782,0,0,0-2.524,2.884,36.354,36.354,0,0,0-2.186,3.087A32.4,32.4,0,0,0,19,59.05a25.348,25.348,0,0,0-.938,3.408,22.209,22.209,0,0,0-.413,3.353,8.8,8.8,0,0,0,.785,3.83,7.441,7.441,0,0,0,2.286,2.88,5.5,5.5,0,0,0,1.606.826,7.2,7.2,0,0,0,1.967.331,13.46,13.46,0,0,0,2.1-.126,15.733,15.733,0,0,0,2.175-.463,21.993,21.993,0,0,0,2.186-.751,22.442,22.442,0,0,0,2.114-.984,23.221,23.221,0,0,0,2-1.188A22.159,22.159,0,0,0,36.7,68.806a21.072,21.072,0,0,0,1.6-1.462,15.955,15.955,0,0,0,1.278-1.458q.312-.634.574-1.282.13-.322.291-.679t.319-.679q.448-1.006.874-1.976.377-.859.817-1.88.413-.958.73-1.729.337-.819.617-1.541l.147-.384a41.385,41.385,0,0,1-4.413.561,25.474,25.474,0,0,0-7.781,1.566l-.067.028-.072,0a1.293,1.293,0,0,1-.732-.232,1.382,1.382,0,0,1-.539-.865,2.335,2.335,0,0,1,.059-1.114,3.447,3.447,0,0,1,1.061-1.624l.035-.03.04-.02c2.4-1.188,4.8-1.118,7.186-1.048A14.577,14.577,0,0,0,45.137,52.182Z" transform="translate(0 -14.874)"/><path class="a" d="M527.317,169.261a2.973,2.973,0,1,1-2.973,2.973,2.973,2.973,0,0,1,2.973-2.973" transform="translate(-332.67 -102.149)"/><path class="c" d="M467.268,28.189a1.88,1.88,0,1,1-1.6,2.121,1.88,1.88,0,0,1,1.6-2.121m15.555-6.311a4.329,4.329,0,1,1-3.691,4.883A4.329,4.329,0,0,1,482.823,21.877Zm-9.937,10.85a3.826,3.826,0,1,1-3.263,4.316A3.825,3.825,0,0,1,472.886,32.727Zm7.033,17.149a2.055,2.055,0,1,1-1.752,2.318A2.055,2.055,0,0,1,479.919,49.876Zm2.23-16.4,3.073,2.174a.758.758,0,1,1-.87,1.229L481.28,34.7a.753.753,0,1,1,.87-1.229Zm-7.48-8.314-3.514,1.349c-1.116.428-1.744-.943-.54-1.406l3.515-1.349C475.246,23.323,475.807,24.721,474.67,25.158Zm1.316,18.668-.548,3.724c-.156,1.059-1.616.639-1.49-.219l.548-3.724C474.675,42.393,476.16,42.642,475.986,43.826Zm6.66-3.6a2.82,2.82,0,1,1-2.82,2.82A2.82,2.82,0,0,1,482.646,40.222Zm11.008-21.729c-9.751-11-31.113-6-38.34,2.433-2.517,2.939.446,6.7,3.319,4.052,8.373-7.722,18.292-9.748,28.764-5.251-10.911-1.767-20.253-.381-28.217,7.849,3.738,6.907,13.008,23.366,18.069,31.711,3.006,4.957,3.986,8.347,5.926-.166,1.283-5.632,9.367-36.361,9.367-36.361S495.458,20.336,493.654,18.492Z" transform="translate(-287.167 0)"/></g></svg>