<svg xmlns="http://www.w3.org/2000/svg" xmlns:xlink="http://www.w3.org/1999/xlink" width="133.795" height="93.079" viewBox="0 0 133.795 93.079"><defs><style>.a{fill:#c30010;}.b{clip-path:url(#a);}</style><clipPath id="a"><rect class="a" width="133.795" height="93.078"/></clipPath></defs><g class="b"><path class="a" d="M131.157,84.7a17.307,17.307,0,0,0-13.684-26.454l-.439-2.349v0l-3.918-20.954a5.131,5.131,0,0,1,2.493-5.586,1.353,1.353,0,0,0,.476-.437,1.436,1.436,0,0,0,.24-.777V18.481a1.4,1.4,0,0,0-1.391-1.39h-3.853V11.355a5.763,5.763,0,1,0-2.741,0v5.737h-2.576V12.83a1.371,1.371,0,0,0-.437-1l-3.75-3.486A5.784,5.784,0,1,0,99.8,10.429l1.534,1.426,1.691,1.572v3.664H94.1v-.753a1.371,1.371,0,1,0-2.741,0v.753H82.365a1.371,1.371,0,1,0,0,2.741h8.994v.985a1.371,1.371,0,0,0,2.741,0v-.985h5.083l.9,12.113L93.058,49.3A27.53,27.53,0,0,1,67.448,66.58h0a1.916,1.916,0,0,1-1.754-2.689l6.457-14.645c0-.007,0-.013.006-.02a1.358,1.358,0,0,0,.122-.561V45.838a5.9,5.9,0,0,0-5.892-5.892H53.016a8.727,8.727,0,0,0-8.636,7.576c-.058.007-.116.013-.174.022V20.186a8.05,8.05,0,0,0-8.041-8.041H8.041A8.05,8.05,0,0,0,0,20.186V43.563a6.481,6.481,0,0,0,6.474,6.473H23.439c.853,1.424,3.032,5.194,4.63,7.976a23.025,23.025,0,0,0-3.646,12.452v.985a7.364,7.364,0,0,0,4.1,6.59,17.293,17.293,0,0,0,34.172.772H93.007a1.37,1.37,0,0,0,1.308-.96L98.5,64.531a12.144,12.144,0,0,1,9.857-6.937l.485,2.414a17.307,17.307,0,0,0,7.6,32.834,17.472,17.472,0,0,0,3.924-.449A17.2,17.2,0,0,0,131.157,84.7M113.581,27.394a7.853,7.853,0,0,0-2.861,3.8h-7.95l-.839-11.359h11.65Zm.459,27.408H109.45a14.887,14.887,0,0,0-13.477,8.663,1.27,1.27,0,0,0-.062.161l-2.334,7.426H61.255a1.371,1.371,0,1,0,0,2.741H92.717L92,76.07H31.786A4.516,4.516,0,0,1,31.109,76a4.627,4.627,0,0,1-3.944-4.553v-.985A20.451,20.451,0,0,1,47.592,50.036H68.807L63.186,62.784a4.658,4.658,0,0,0,4.261,6.537h0A30.258,30.258,0,0,0,95.6,50.329l6.632-16.4h8.036a7.666,7.666,0,0,0,.161,1.556ZM41.466,47.295H6.474a3.736,3.736,0,0,1-3.733-3.732V20.186a5.307,5.307,0,0,1,5.3-5.3H36.166a5.306,5.306,0,0,1,5.3,5.3Zm-4.793,2.741a23.333,23.333,0,0,0-6.831,5.558c-1.472-2.565-2.493-4.335-3.227-5.558ZM52.156,78.811a7.16,7.16,0,0,1-12.976,0ZM115.2,61.029l.585,3.127.508,2.717,1.377,7.366a1.525,1.525,0,0,1-.093.874,1.6,1.6,0,0,1-1.871,1.009,1.523,1.523,0,0,1-1.061-1.154l-1.5-7.433-.548-2.726-.63-3.128-.542-2.692-.291-1.445h3.41l.146.781Zm5.165,12.706-1.2-6.437a8.664,8.664,0,1,1-8.492,1.8l1.29,6.408a4.26,4.26,0,0,0,2.957,3.237,4.1,4.1,0,0,0,1.19.176,4.358,4.358,0,0,0,3.984-2.714,4.289,4.289,0,0,0,.276-2.474M31.417,78.792c.122.005.244.019.369.019h4.448a9.911,9.911,0,0,0,18.867,0h4.812a14.567,14.567,0,0,1-28.5-.019m38.121-31.5H47.2a5.988,5.988,0,0,1,5.82-4.607H66.387a3.154,3.154,0,0,1,3.151,3.151ZM99.449,5.764a3.022,3.022,0,1,1-3.022-3.022,3.026,3.026,0,0,1,3.022,3.022m13.281,0a3.022,3.022,0,1,1-3.022-3.022,3.026,3.026,0,0,1,3.022,3.022m16.1,77.485A14.568,14.568,0,1,1,109.4,62.8l.665,3.3a11.41,11.41,0,1,0,8.542-1.768L118,61.04a14.566,14.566,0,0,1,10.837,22.209"/><path class="a" d="M8.83,52.35H42.281V49.609H40.966A15.367,15.367,0,0,0,27.053,35.7v-1.26H28.48V31.694H22.83v2.741h1.482V35.7A15.367,15.367,0,0,0,10.4,49.609H8.83Zm4.319-2.741a12.608,12.608,0,0,1,25.068,0H17.528A8.285,8.285,0,0,1,25.683,42.7V39.96a11.029,11.029,0,0,0-10.925,9.649Z" transform="translate(-3.451 -12.388)"/></g></svg>