<svg xmlns="http://www.w3.org/2000/svg" xmlns:xlink="http://www.w3.org/1999/xlink" width="107.6" height="26.048" viewBox="0 0 107.6 26.048"><defs><style>.a{fill:none;}.b{clip-path:url(#a);}.c{fill:#0f0e0b;}.d{fill:#161615;}.e{clip-path:url(#b);}.f{fill:url(#c);}</style><clipPath id="a"><rect class="a" width="107.6" height="26.048"/></clipPath><clipPath id="b"><path class="a" d="M0,44.557H14.28L0,24.2Z" transform="translate(0 -24.202)"/></clipPath><linearGradient id="c" y1="1" x2="0.012" y2="1" gradientUnits="objectBoundingBox"><stop offset="0" stop-color="#ad0011"/><stop offset="1" stop-color="#830a0f"/></linearGradient></defs><g transform="translate(0)"><g transform="translate(0)"><g class="b"><path class="c" d="M170.3,32.705h7.554V36.09h-7.307a1.867,1.867,0,0,0-1.381.4,2.187,2.187,0,0,0-.382,1.488v1.026h9.07v3.408h-9.07v1.208a2.168,2.168,0,0,0,.376,1.471,1.879,1.879,0,0,0,1.386.4h7.307V48.9H170.3a4.873,4.873,0,0,1-3.675-1.168,5.648,5.648,0,0,1-1.1-3.915V37.766a5.619,5.619,0,0,1,1.091-3.9,4.9,4.9,0,0,1,3.681-1.157" transform="translate(-136.784 -26.682)"/><path class="d" d="M275.666,32.705h7.92V36.09H275.6a1.778,1.778,0,0,0-1.22.37,1.4,1.4,0,0,0-.414,1.1,1.367,1.367,0,0,0,.414,1.083,1.793,1.793,0,0,0,1.22.365h3.428a5.4,5.4,0,0,1,3.858,1.311,4.764,4.764,0,0,1,1.386,3.636,4.764,4.764,0,0,1-1.386,3.636A5.4,5.4,0,0,1,279.03,48.9h-8.006V45.493h8.082a2.2,2.2,0,0,0,1.412-.387,1.63,1.63,0,0,0,0-2.308,2.226,2.226,0,0,0-1.412-.382h-3.44a4.948,4.948,0,0,1-3.626-1.3,4.754,4.754,0,0,1-1.327-3.551A4.75,4.75,0,0,1,272.039,34a4.961,4.961,0,0,1,3.626-1.3" transform="translate(-223.707 -26.682)"/><path class="d" d="M378.871,32.7h12.52V36.09h-4.622V48.9h-3.256V36.09h-4.642Z" transform="translate(-313.087 -26.681)"/><rect class="d" width="3.255" height="16.196" transform="translate(84.027 6.023)"/><path class="d" d="M541.373,47.435h3.45L540.6,33.894a4.25,4.25,0,0,0-1.317-2.24,3.561,3.561,0,0,0-2.338-.747,3.5,3.5,0,0,0-2.294.713,4.7,4.7,0,0,0-1.36,2.274l-4.2,13.541h3.46l1.292-4.24h6.238Zm-6.7-6.967,1.7-5.593a.968.968,0,0,1,.22-.428.479.479,0,0,1,.349-.131.519.519,0,0,1,.371.137.95.95,0,0,1,.231.433l1.7,5.582Z" transform="translate(-437.223 -25.216)"/></g></g><g transform="translate(0 5.693)"><g class="e"><rect class="f" width="14.28" height="20.355" transform="translate(0 0)"/></g></g><g transform="translate(0)"><g class="b"><path class="d" d="M3.43,5.187l.01.015h9.581a3.3,3.3,0,0,1,2.305.625,2.866,2.866,0,0,1,.645,2.112v2.073a3.139,3.139,0,0,1-.627,2.191,3.157,3.157,0,0,1-2.323.664H8.51l3.363,5.085h0l5.421,8.1h6.563l-5.937-8.917Q21.5,15.528,21.5,10.6V7.393q0-3.755-1.9-5.574T13.317,0H0Z" transform="translate(0 0)"/></g></g></g></svg>