<svg xmlns="http://www.w3.org/2000/svg" xmlns:xlink="http://www.w3.org/1999/xlink" width="45.667" height="72.109" viewBox="0 0 45.667 72.109"><defs><style>.a{fill:#c30010;}.b{clip-path:url(#a);}</style><clipPath id="a"><rect class="a" width="45.667" height="72.109"/></clipPath></defs><g class="b"><path class="a" d="M45.665,36.089q0,14.174,0,28.348a7.551,7.551,0,0,1-6.083,7.5,8.91,8.91,0,0,1-1.772.162q-11.914.016-23.828.007c-2.046,0-4.092.008-6.137,0A7.786,7.786,0,0,1,0,63.969C.045,52.343.015,40.717.015,29.091q0-10.519,0-21.038A7.686,7.686,0,0,1,7.959,0Q22.886.007,37.814.01a7.542,7.542,0,0,1,7.434,5.161,9.451,9.451,0,0,1,.4,2.849c.029,9.356.017,18.713.017,28.069M4.267,55.164h37.18v-41.5H4.267ZM4.23,59.426c0,1.712-.035,3.4.009,5.085a3.494,3.494,0,0,0,3.3,3.375c.833.049,1.67.015,2.505.015H37.437c.279,0,.558,0,.836-.02a3.3,3.3,0,0,0,3.139-3.059c.09-1.76.052-3.527.068-5.29,0-.03-.037-.06-.066-.1ZM41.424,9.449c0-.576.011-1.073,0-1.569-.061-2.415-1.24-3.609-3.651-3.708-.167-.007-.335,0-.5,0H14.737c-2.212,0-4.424-.007-6.637,0C6.089,4.18,4.685,5.166,4.357,6.9A19.548,19.548,0,0,0,4.2,9.449Z" transform="translate(0 0)"/><path class="a" d="M86.48,190.41c.453,0,.842.027,1.225-.006a1.448,1.448,0,0,0,1.39-1.292,4.746,4.746,0,0,0,.061-.831c0-2.269-.009-4.539,0-6.808a1.462,1.462,0,0,1,.193-.894,1.6,1.6,0,0,1,.963-.5.844.844,0,0,1,.876.715,3.531,3.531,0,0,1,.082.772c0,2.344.008,4.688,0,7.031a3.689,3.689,0,0,1-4,3.944h-.79v.685c0,3.181,0,6.362,0,9.542a2.646,2.646,0,0,1-.142.926.9.9,0,0,1-1.005.624.988.988,0,0,1-.948-.87,4.576,4.576,0,0,1-.031-.668q0-4.632.005-9.263c0-.913-.056-.976-.969-.994a3.541,3.541,0,0,1-3.831-3.832c-.023-2.4-.014-4.8-.016-7.2a2.957,2.957,0,0,1,.041-.555,1.046,1.046,0,0,1,1-.892.968.968,0,0,1,1.018.842,4,4,0,0,1,.078.829c.01,2.325,0,4.65.022,6.975a1.737,1.737,0,0,0,1.939,1.806c.442-.049.685-.241.684-.7,0-.167.008-.335.008-.5q.013-3.878.025-7.757c0-1.013.373-1.516,1.089-1.5.673.019,1.041.54,1.042,1.5q0,4.074,0,8.147Z" transform="translate(-68.977 -156.132)"/><path class="a" d="M208.738,194.563c-1.618,0-3.124,0-4.629,0-1.136,0-1.472-.323-1.466-1.46.012-2.306-.067-4.619.094-6.915a7.16,7.16,0,0,1,6.488-6.124c1.25-.053,1.653.324,1.653,1.58q0,7.478,0,14.956c0,2.083.005,4.167,0,6.25a2.448,2.448,0,0,1-.1.765,1.024,1.024,0,0,1-2.006-.28c-.03-.687-.022-1.376-.023-2.064q0-2.846,0-5.692c0-.313,0-.626,0-1.015m.016-12.193a4.688,4.688,0,0,0-3.877,3.92c-.149,1.884-.094,3.784-.121,5.677-.005.342.181.482.532.48.91-.006,1.82.019,2.73.026.6,0,.735-.133.737-.763,0-1.319,0-2.638,0-3.957,0-1.782,0-3.563,0-5.383" transform="translate(-175.725 -156.147)"/><path class="a" d="M143.494,455.487a3.808,3.808,0,1,1,7.615-.045,3.808,3.808,0,1,1-7.615.045m3.778-1.721a1.686,1.686,0,0,0-.011,3.371,1.686,1.686,0,1,0,.011-3.371" transform="translate(-124.438 -391.658)"/><path class="a" d="M140.664,46.12c-1.243,0-2.487.015-3.73,0a1,1,0,0,1-1.087-1.214.9.9,0,0,1,.727-.812,3.019,3.019,0,0,1,.716-.083q3.341-.009,6.683,0a3.45,3.45,0,0,1,.608.057.97.97,0,0,1,.888,1.082.984.984,0,0,1-1.02.969c-1.261.021-2.523.006-3.785.007" transform="translate(-117.794 -38.159)"/></g></svg>