<svg xmlns="http://www.w3.org/2000/svg" width="80.841" height="77.382" viewBox="0 0 80.841 77.382"><defs><style>.a{fill:#c30010;}</style></defs><g transform="translate(-1365.673 -321.619)"><path class="a" d="M1443.225,501.976c-2.28.79-4.261,1.481-6.245,2.164a2.021,2.021,0,0,1-2.33-.456,1.881,1.881,0,0,1,.677-3.125c3.545-1.356,7.106-2.676,10.687-3.934,1.547-.543,2.59,0,3.148,1.587,1.225,3.481,2.4,6.98,3.556,10.484a1.846,1.846,0,0,1-1.137,2.57,1.927,1.927,0,0,1-2.567-1.21c-.649-1.593-1.174-3.237-1.754-4.858-.094-.261-.193-.52-.365-.982-.3.468-.527.8-.734,1.142-3.855,6.379-8.735,11.734-15.376,15.307a38.975,38.975,0,0,1-22.594,4.268c-11.856-1.123-20.925-7.124-27.681-16.757a36.87,36.87,0,0,1-6.775-21.919,24.707,24.707,0,0,1,.2-2.844,1.988,1.988,0,0,1,2.159-1.853c1.128.06,1.735.753,1.819,2.038a80.273,80.273,0,0,0,.683,9.349c2.379,12.848,9.856,21.492,22.1,26.011a33.986,33.986,0,0,0,14.063,2.281c7.506-.485,13.959-3.56,19.752-8.193a30.636,30.636,0,0,0,7.842-9.3C1442.614,503.251,1442.845,502.742,1443.225,501.976Z" transform="translate(-6.358 -126.142)"/><path class="a" d="M1375.239,344.878c2.279-.768,4.394-1.5,6.523-2.19a1.755,1.755,0,0,1,2.307.916,1.828,1.828,0,0,1-.427,2.381,3.093,3.093,0,0,1-.922.491c-3.329,1.235-6.657,2.474-10,3.678-1.733.625-2.818.157-3.423-1.559-1.2-3.415-2.351-6.851-3.485-10.29a1.972,1.972,0,1,1,3.715-1.32c.652,1.631,1.217,3.3,1.824,4.946.072.194.174.378.323.7.45-.75.834-1.409,1.236-2.057,5.832-9.392,14.018-15.638,24.865-17.982,12.34-2.665,23.487.167,33.163,8.265a37.665,37.665,0,0,1,12.749,20.427,35.149,35.149,0,0,1,.782,11.957,1.87,1.87,0,0,1-1.827,1.826,1.943,1.943,0,0,1-1.963-1.94c-.07-1.758-.043-3.522-.173-5.276-.747-10.156-5.3-18.27-13.128-24.7-12.084-9.93-29.621-9.523-41.934-.643a31.553,31.553,0,0,0-9.49,10.752c-.183.34-.355.687-.522,1.036C1375.376,344.419,1375.345,344.558,1375.239,344.878Z"/><path class="a" d="M1496.216,424.813c-.09,11.451-10.057,21.112-21.685,21.02a21.635,21.635,0,0,1,.153-43.27C1486.865,402.608,1496.313,412.386,1496.216,424.813Zm-21.288,16.9c9.121.192,17.163-7.842,17.274-17.369a17.546,17.546,0,1,0-17.274,17.369Z" transform="translate(-68.869 -63.84)"/><path class="a" d="M1527.1,471.328a5.318,5.318,0,0,1-.736,1.191q-5.693,5.8-11.442,11.541c-1.267,1.263-2.172,1.315-3.47.075-2.313-2.209-4.556-4.494-6.775-6.8a1.953,1.953,0,1,1,2.888-2.6c1.539,1.642,3.081,3.283,4.577,4.964.558.627.947.635,1.529.029q4.5-4.678,9.063-9.29a5.418,5.418,0,0,1,1.964-1.322A1.991,1.991,0,0,1,1527.1,471.328Z" transform="translate(-109.108 -116.264)"/></g></svg>