<svg xmlns="http://www.w3.org/2000/svg" width="147" height="60.5" viewBox="0 0 147 60.5"><defs><style>.a{fill:#c1272d;}.b{fill:none;stroke:#c1272d;stroke-miterlimit:10;stroke-width:3px;}</style></defs><g transform="translate(-1289 -603)"><path class="a" d="M1314.9,619.954l-2.226,4.514-4.981.727a1.092,1.092,0,0,0-.6,1.862l3.6,3.51-.851,4.96a1.089,1.089,0,0,0,1.581,1.149l4.456-2.342,4.456,2.342a1.091,1.091,0,0,0,1.58-1.149l-.851-4.96,3.6-3.51a1.092,1.092,0,0,0-.6-1.862l-4.981-.727-2.226-4.514a1.092,1.092,0,0,0-1.957,0Z"/><path class="b" d="M1296.5,604.5h132.858c2.84,0,5.142,2.036,5.142,4.547v40.426c0,2.511-2.3,4.547-5.142,4.547H1375.63a5.5,5.5,0,0,0-3.636,1.331l-6.013,5.317a5.637,5.637,0,0,1-7.11.137l-6.9-5.59a5.53,5.53,0,0,0-3.474-1.2h-53a4.741,4.741,0,0,1-5-4.547V608.921C1290.5,606.269,1293.5,604.5,1296.5,604.5Z"/><path class="a" d="M1337.931,620l-2.226,4.513-4.981.728a1.091,1.091,0,0,0-.6,1.861l3.6,3.511-.85,4.96a1.09,1.09,0,0,0,1.581,1.149l4.456-2.342,4.456,2.342a1.091,1.091,0,0,0,1.58-1.149l-.851-4.96,3.6-3.511a1.091,1.091,0,0,0-.6-1.861l-4.981-.728L1339.888,620a1.091,1.091,0,0,0-1.957,0Z"/><path class="a" d="M1360.931,620l-2.226,4.513-4.981.728a1.091,1.091,0,0,0-.6,1.861l3.6,3.511-.85,4.96a1.09,1.09,0,0,0,1.581,1.149l4.456-2.342,4.456,2.342a1.091,1.091,0,0,0,1.58-1.149l-.851-4.96,3.6-3.511a1.091,1.091,0,0,0-.6-1.861l-4.981-.728L1362.888,620a1.091,1.091,0,0,0-1.957,0Z"/><path class="a" d="M1383.931,620l-2.226,4.513-4.981.728a1.091,1.091,0,0,0-.6,1.861l3.6,3.511-.85,4.96a1.09,1.09,0,0,0,1.581,1.149l4.456-2.342,4.456,2.342a1.091,1.091,0,0,0,1.58-1.149l-.851-4.96,3.6-3.511a1.091,1.091,0,0,0-.6-1.861l-4.981-.728L1385.888,620a1.091,1.091,0,0,0-1.957,0Z"/><path class="a" d="M1406.931,620l-2.226,4.513-4.981.728a1.091,1.091,0,0,0-.6,1.861l3.6,3.511-.85,4.96a1.09,1.09,0,0,0,1.581,1.149l4.456-2.342,4.456,2.342a1.091,1.091,0,0,0,1.58-1.149l-.851-4.96,3.6-3.511a1.091,1.091,0,0,0-.6-1.861l-4.981-.728L1408.888,620a1.091,1.091,0,0,0-1.957,0Z"/></g></svg>