<svg xmlns="http://www.w3.org/2000/svg" xmlns:xlink="http://www.w3.org/1999/xlink" width="72.974" height="72.022" viewBox="0 0 72.974 72.022"><defs><style>.a{fill:#c30010;}.b{clip-path:url(#a);}</style><clipPath id="a"><rect class="a" width="72.974" height="72.022"/></clipPath></defs><g transform="translate(0 0)"><g class="b"><path class="a" d="M12.5,129.419c.812.277,1.6.475,2.325.806a9.666,9.666,0,0,1,3.665,3.331c2.375,3.237,4.778,6.455,7.112,9.721a20.772,20.772,0,0,1,3.98,12.223q.027,5.128.02,10.256c0,1.123-.319,1.425-1.452,1.436-2.276.022-2.3-.033-2.343-2.285-.06-3.5-.156-6.992-.245-10.487a16.707,16.707,0,0,0-3.312-9.372c-2.4-3.381-4.89-6.7-7.342-10.043a5.57,5.57,0,0,0-.444-.546,1.5,1.5,0,0,0-1.918-.315,1.41,1.41,0,0,0-.677,1.8c.788,2.066,1.617,4.117,2.453,6.165.906,2.217,1.844,4.422,2.756,6.637.508,1.233.389,1.516-.793,2.055-1.948.889-2.026.888-2.869-1.106-1.752-4.146-3.462-8.31-5.188-12.468a6.22,6.22,0,0,1,.216-5.579,2.668,2.668,0,0,0,.254-1.2q.031-5.676.009-11.353a4.589,4.589,0,0,0-.183-1.311,1.264,1.264,0,0,0-2.3-.486,2.67,2.67,0,0,0-.594,1.163,81.378,81.378,0,0,0-1.8,16.219,40.127,40.127,0,0,0,5.91,21.109c.866,1.425,1.687,2.879,2.479,4.347a13.465,13.465,0,0,1,1.527,5.776c.046.886-.318,1.3-1.212,1.365-.337.024-.677.026-1.016.02a1.323,1.323,0,0,1-1.36-1.067c-.245-.877-.477-1.758-.73-2.632a35.144,35.144,0,0,0-3.948-7.877,39.85,39.85,0,0,1-5.39-23.271c.309-4.8,1.122-9.566,1.763-14.34a7.883,7.883,0,0,1,.756-2.207,4.983,4.983,0,0,1,5.631-2.822,5.1,5.1,0,0,1,4.1,4.878c.068,3.547.108,7.095.159,10.642,0,.285,0,.569,0,.818" transform="translate(0 -95.277)"/><path class="a" d="M276.735,159.466c.1-2.372.122-4.75.31-7.115a16.932,16.932,0,0,1,3.583-8.79c2.714-3.666,5.4-7.356,8.1-11.029a6.478,6.478,0,0,1,4.386-2.751c.6-.085.709-.324.706-.853-.017-3.21-.036-6.421.01-9.631a9.145,9.145,0,0,1,.4-2.61,4.932,4.932,0,0,1,4.554-3.58,4.829,4.829,0,0,1,4.978,2.96,16.229,16.229,0,0,1,1.011,3.909,93.691,93.691,0,0,1,1.516,14.142,41.376,41.376,0,0,1-6.361,23.276c-.317.509-.607,1.034-.933,1.536a14.326,14.326,0,0,0-2.712,7.229c-.037.886-.434,1.157-1.326,1.176-.13,0-.261,0-.392,0-1.883,0-2.108-.294-1.984-2.149a15.174,15.174,0,0,1,2.437-6.61c2.127-3.651,4.3-7.265,5.548-11.348a44.525,44.525,0,0,0,1.676-17.871c-.356-3.393-.922-6.765-1.459-10.137a4.455,4.455,0,0,0-.8-1.834,1.154,1.154,0,0,0-2.129.341,4.378,4.378,0,0,0-.226,1.456c-.02,3.863-.017,7.726-.012,11.588a1.54,1.54,0,0,0,.121.762c1.356,2.222.974,4.443.038,6.671q-2.57,6.117-5.144,12.232c-.445,1.057-.666,1.16-1.778.843-.225-.064-.45-.132-.669-.213-1.037-.381-1.379-.964-.988-2,.719-1.9,1.521-3.761,2.29-5.639.936-2.289,1.9-4.568,2.793-6.873a6.2,6.2,0,0,0,.385-1.979,1,1,0,0,0-1.521-1.021,3.658,3.658,0,0,0-1.385,1.09q-4.35,6.024-8.618,12.106a16.209,16.209,0,0,0-2.578,9.43c-.033,2.975-.029,5.95-.049,8.924a2.67,2.67,0,0,1-.1,1.156c-.22.419-.587.951-.984,1.045a6.092,6.092,0,0,1-2.165,0c-.514-.068-.617-.532-.613-1.028.016-2.27.007-4.54.007-6.81h.07" transform="translate(-233.33 -95.386)"/><path class="a" d="M83.491,0q12.368,0,24.736,0c2.769,0,3.049.284,3.061,3.039.015,3.209.021,6.418.038,9.627a2.963,2.963,0,0,1-1.619,2.9c-1.279.66-2.217.072-2.219-1.4,0-2.817.013-5.634.018-8.451,0-2.245.293-2.012-1.977-2.011q-22.231.007-44.461.022c-.261,0-.523.019-.783,0-.578-.044-.755.2-.751.781.024,3.209.013,6.419.011,9.628,0,1.495-.649,1.988-2.072,1.588C56,15.314,55.76,15,55.76,13.481q0-5.44,0-10.88c0-2.188.386-2.577,2.6-2.578Q70.927.015,83.491.02Z" transform="translate(-47.026 -0.001)"/><path class="a" d="M200.688,348.975c1.562,0,3.124.014,4.686-.007a.94.94,0,0,1,1.07.955c.318,2.355.029,2.715-2.346,2.731-2.578.017-5.155,0-7.733,0-.662,0-1.369.016-1.647-.74a2.546,2.546,0,0,1,.141-2.467,1.634,1.634,0,0,1,1.143-.491c1.56-.055,3.123-.023,4.685-.023Z" transform="translate(-164.014 -294.282)"/></g></g></svg>