<svg xmlns="http://www.w3.org/2000/svg" width="85.569" height="89.898" viewBox="0 0 85.569 89.898"><defs><style>.a{fill:#c30010;}</style></defs><g transform="translate(-295.177 -1152.314)"><path class="a" d="M500.067,1203.168c-1.251-.46-2.526-.869-3.743-1.408a1.527,1.527,0,0,0-1.271-.114,4.615,4.615,0,0,0-3.349,3.259c-1,3.031-4.154,4.576-7.472,4.208a7.324,7.324,0,0,1-6.092-5.742c-.065-.318-.436-.574-.672-.854-.034-.04-.107-.046-.159-.074a4.426,4.426,0,0,0-4.511-.084,6.875,6.875,0,0,1-8.254-2.16,7.146,7.146,0,0,1-.315-8.41,1.184,1.184,0,0,0,.13-1.19,4.662,4.662,0,0,0-3.326-3.389c-2.871-.916-4.576-4.252-4.222-7.155a7.158,7.158,0,0,1,5.676-6.32,1.3,1.3,0,0,0,1.048-.864,4.565,4.565,0,0,0,.041-4.591c-1.428-2.7-.321-6.153,2.06-8.11a7.347,7.347,0,0,1,8.5-.445,1.276,1.276,0,0,0,1.34.085,4.5,4.5,0,0,0,3.245-3.132c.962-3.023,4.087-4.633,7.332-4.328a7.185,7.185,0,0,1,6.2,5.7c.118.595.407.773.887,1.019a4.5,4.5,0,0,0,4.512.058,6.888,6.888,0,0,1,8.259,2.144,7.182,7.182,0,0,1,.332,8.415,1.268,1.268,0,0,0-.109,1.27,4.583,4.583,0,0,0,3.285,3.335c2.85.927,4.54,4.147,4.246,7.059a7.165,7.165,0,0,1-5.525,6.362,1.75,1.75,0,0,0-1.318,1.145,4.392,4.392,0,0,0,.036,4.259c2.133,4.663-1.544,9.859-6.7,9.8ZM463.9,1184.182c1.675-.136,2.21.279,2.687,1.546.61,1.617,1.28,3.215,2,4.789a1.912,1.912,0,0,1-.571,2.712,3.048,3.048,0,0,0-1.117,3.233,3.4,3.4,0,0,0,5.843,1.552,1.967,1.967,0,0,1,2.781-.575c1.544.708,3.12,1.356,4.712,1.95a2.046,2.046,0,0,1,1.625,2.285,3.393,3.393,0,1,0,6.757.041c-.044-1.339.4-1.867,1.665-2.336,1.566-.58,3.114-1.221,4.629-1.923,1.254-.581,2.013-.489,2.861.574a3.121,3.121,0,0,0,3.361.97,3.031,3.031,0,0,0,2.435-2.412,3.164,3.164,0,0,0-.985-3.3c-1.117-.968-1.215-1.594-.6-2.914.7-1.515,1.335-3.066,1.918-4.632.484-1.3.988-1.7,2.347-1.6a3.414,3.414,0,1,0,.018-6.812c-1.345.09-1.893-.336-2.364-1.607-.56-1.512-1.152-3.018-1.844-4.472-.712-1.5-.648-2.058.6-3.128a3.365,3.365,0,0,0-1.581-5.687,3.142,3.142,0,0,0-3.283,1,2,2,0,0,1-2.844.6c-1.513-.708-3.058-1.361-4.626-1.938-1.3-.479-1.765-1.025-1.682-2.4a3.222,3.222,0,0,0-1.546-3.072,3.17,3.17,0,0,0-3.512-.093,3.232,3.232,0,0,0-1.724,3.063c.039,1.438-.333,2.006-1.4,2.428-1.718.677-3.423,1.391-5.117,2.125a1.929,1.929,0,0,1-2.517-.57,3.129,3.129,0,0,0-3.478-1.1,3.013,3.013,0,0,0-2.445,2.5,3.094,3.094,0,0,0,1.158,3.3,1.885,1.885,0,0,1,.588,2.57c-.741,1.691-1.445,3.4-2.128,5.115a2,2,0,0,1-2.181,1.4,3.166,3.166,0,0,0-3.213,1.567,3.425,3.425,0,0,0,2.783,5.235Z" transform="translate(-132.953)"/><path class="a" d="M337.421,1427.7a5.8,5.8,0,0,1-1.856,3.573,2.361,2.361,0,0,0,.339,2.973,6,6,0,0,1,2.756,6.848,6.075,6.075,0,0,1-5.888,4.345,2.364,2.364,0,0,0-1.9,2.4,5.979,5.979,0,0,1-2.793,6.673,6.158,6.158,0,0,1-7.2-.9,2.257,2.257,0,0,0-3.264.355,6.018,6.018,0,0,1-6.765,2.578,6.116,6.116,0,0,1-4.344-5.9,2.307,2.307,0,0,0-2.312-1.875,6.2,6.2,0,0,1-6.811-2.919,6.041,6.041,0,0,1,1.117-7.22,2.358,2.358,0,0,0-.391-3.046,6.012,6.012,0,0,1-2.7-6.8,6.107,6.107,0,0,1,5.8-4.362,2.24,2.24,0,0,0,1.965-2.49,6.009,6.009,0,0,1,2.841-6.585,6.16,6.16,0,0,1,7.266.968,2.319,2.319,0,0,0,3.159-.36,6.077,6.077,0,0,1,6.837-2.608,5.982,5.982,0,0,1,4.267,5.842,2.354,2.354,0,0,0,2.391,1.9C333.816,1420.2,337.43,1423.018,337.421,1427.7Zm-11.111,19.154a11.881,11.881,0,0,1,.774-1.344c.815-1.076,1.7-2.1,2.507-3.183a1.974,1.974,0,0,1,2.449-.842,3.1,3.1,0,0,0,1.2.143,2.18,2.18,0,0,0,1.875-2.045,2.241,2.241,0,0,0-1.6-2.276c-1.546-.538-1.872-1.054-1.945-2.637a25.618,25.618,0,0,0-.417-3.317,1.959,1.959,0,0,1,1.243-2.492,2.13,2.13,0,0,0,.978-3.031,2.208,2.208,0,0,0-3.055-.8,1.959,1.959,0,0,1-2.84-.234,36.672,36.672,0,0,0-2.893-2.305,2.1,2.1,0,0,1-1.039-2.542,4.105,4.105,0,0,0-.245-2.108,1.788,1.788,0,0,0-2.021-.944,2.208,2.208,0,0,0-1.9,1.627,2.407,2.407,0,0,1-2.207,1.84q-1.883.174-3.755.474a1.972,1.972,0,0,1-2.434-1.221,2.185,2.185,0,0,0-3.034-1.024,2.144,2.144,0,0,0-.786,3.1,1.969,1.969,0,0,1-.263,2.777,28.263,28.263,0,0,0-2.116,2.6c-1.021,1.477-1.308,1.632-3.064,1.213a2.212,2.212,0,1,0-1.084,4.29,2.3,2.3,0,0,1,1.844,2.1c.124,1.373.3,2.743.478,4.111a1.9,1.9,0,0,1-1.2,2.2,2.148,2.148,0,0,0-1.057,3.072,2.2,2.2,0,0,0,3.13.735,1.9,1.9,0,0,1,2.695.241,26.217,26.217,0,0,0,2.521,2.068c1.621,1.12,1.72,1.262,1.349,3.18a2.267,2.267,0,0,0,1.109,2.482,2.155,2.155,0,0,0,2.587-.45,4.547,4.547,0,0,0,.661-1.225,2.312,2.312,0,0,1,1.939-1.58c1.37-.154,2.741-.309,4.106-.507a1.931,1.931,0,0,1,2.278,1.218,2.18,2.18,0,1,0,3.807-2.083A11.014,11.014,0,0,1,326.311,1446.856Z" transform="translate(0 -214.576)"/><path class="a" d="M586.388,1273.168a8.517,8.517,0,1,1-8.551-8.509A8.552,8.552,0,0,1,586.388,1273.168Zm-3.766.03a4.751,4.751,0,1,0-4.726,4.737A4.726,4.726,0,0,0,582.622,1273.2Z" transform="translate(-225.592 -92.437)"/><path class="a" d="M385.866,1496.365a7.1,7.1,0,0,1,6.991,7.168,7.19,7.19,0,0,1-7.179,7.022,7.1,7.1,0,0,1,.188-14.19Zm-.114,10.361a3.291,3.291,0,1,0-3.3-3.224A3.3,3.3,0,0,0,385.752,1506.727Z" transform="translate(-68.728 -283.083)"/></g></svg>