<svg xmlns="http://www.w3.org/2000/svg" xmlns:xlink="http://www.w3.org/1999/xlink" width="51.273" height="85.262" viewBox="0 0 51.273 85.262"><defs><style>.a{fill:#c30010;}.b{clip-path:url(#a);}</style><clipPath id="a"><rect class="a" width="51.273" height="66.231"/></clipPath></defs><g transform="translate(-1327.723 -1548.285)"><g class="b" transform="translate(1327.723 1548.285)"><path class="a" d="M51.215,26.846c.3,5.485-1.945,10.42-4.8,15.114-3.872,6.376-8.28,12.392-12.708,18.388-1.075,1.456-2.253,2.837-3.376,4.258a5.031,5.031,0,0,1-7.316.043c-2.254-2.729-4.363-5.566-6.433-8.432-2.756-3.814-5.463-7.665-8.028-11.611-2.784-4.282-5.347-8.689-6.2-13.821a23.938,23.938,0,0,1,3.032-16.46A23.578,23.578,0,0,1,17.007,4.069C25.754.489,34,1.6,41.624,7.162a24.064,24.064,0,0,1,9.592,19.684M26.828,4.131c-1,.048-1.858.019-2.693.138a22.525,22.525,0,0,0-17.1,11.366A21.668,21.668,0,0,0,4.072,26.863,25.93,25.93,0,0,0,8.047,39.785c2.542,4.38,5.492,8.49,8.391,12.632,2.531,3.615,5.142,7.174,7.927,10.6a2.823,2.823,0,0,0,4.6.019c.743-.9,1.474-1.815,2.179-2.747q4.068-5.388,7.894-10.951C41.9,45.173,44.863,41.064,47,36.45A22.531,22.531,0,0,0,26.828,4.131" transform="translate(-0.984 -0.989)"/><path class="a" d="M25.707,66.231a5.763,5.763,0,0,1-4.454-1.924c-2.421-2.932-4.63-5.934-6.472-8.484-3.325-4.6-5.81-8.195-8.057-11.651C4.132,40.185,1.29,35.471.37,29.965A25.005,25.005,0,0,1,3.527,12.827,24.608,24.608,0,0,1,15.64,2.143c9.014-3.691,17.627-2.609,25.6,3.212a25.155,25.155,0,0,1,10.009,20.5C51.564,31.94,48.927,37.177,46.3,41.5c-4.05,6.67-8.879,13.209-12.759,18.464-.711.963-1.472,1.9-2.208,2.807-.4.491-.8.982-1.188,1.477a5.555,5.555,0,0,1-4.367,1.984ZM49.245,26.85a24.446,24.446,0,0,1-2.309,9.038,80.649,80.649,0,0,1-7.183,11.783l-.866,1.253c-2.579,3.745-5.244,7.442-7.92,10.987-.635.841-1.336,1.724-2.2,2.78A4.175,4.175,0,0,1,26.693,64.1a3.236,3.236,0,0,0,1.863-1.106c.4-.5.8-1,1.205-1.5.722-.888,1.467-1.808,2.151-2.733,4.9-6.641,8.949-12.206,12.657-18.312,2.331-3.838,4.674-8.423,4.676-13.6M25.886,2.044a24.915,24.915,0,0,0-9.479,1.975A22.624,22.624,0,0,0,5.278,13.849,23.029,23.029,0,0,0,2.371,29.631c.856,5.121,3.574,9.62,6.054,13.436,2.228,3.428,4.7,7,8,11.569,1.823,2.524,4.009,5.493,6.393,8.38a3.343,3.343,0,0,0,1.7,1.029,4.238,4.238,0,0,1-1.924-1.378c-2.508-3.085-5.041-6.472-7.971-10.657l-.948-1.353c-2.557-3.644-5.2-7.412-7.488-11.352C3.409,34.521,2.1,30.256,2.074,25.881a22.676,22.676,0,0,1,3.1-11.746A23.572,23.572,0,0,1,23.007,2.278a15.567,15.567,0,0,1,1.869-.119c.294-.007.6-.014.92-.029h.049a22.978,22.978,0,0,1,10.1,2.352A22.312,22.312,0,0,0,25.886,2.044m-.019,2.113c-.328.015-.641.023-.943.029a13.867,13.867,0,0,0-1.63.1A21.631,21.631,0,0,0,6.929,15.16,20.667,20.667,0,0,0,4.1,25.868c.026,4.007,1.245,7.953,3.838,12.42,2.243,3.864,4.862,7.6,7.395,11.2l.95,1.355c2.9,4.144,5.406,7.494,7.882,10.54a2,2,0,0,0,1.517.821h0A1.988,1.988,0,0,0,27.2,61.4c.851-1.034,1.535-1.9,2.152-2.714,2.658-3.521,5.306-7.193,7.868-10.915l.868-1.257A79.119,79.119,0,0,0,45.1,35.036,21.517,21.517,0,0,0,25.868,4.157M38.512,5.944A23.8,23.8,0,0,1,49.029,22.336q.114.769.175,1.538A23.237,23.237,0,0,0,40.042,6.993q-.761-.555-1.53-1.049" transform="translate(0 0)"/><path class="a" d="M35.179,51.934a15.879,15.879,0,1,1,15.94-15.77,15.808,15.808,0,0,1-15.94,15.77M21.448,36.106A13.777,13.777,0,1,0,35.2,22.3a13.7,13.7,0,0,0-13.749,13.8" transform="translate(-9.536 -9.946)"/><path class="a" d="M34.134,51.962a16.938,16.938,0,0,1-11.876-4.941A16.672,16.672,0,0,1,17.346,35.1,16.873,16.873,0,0,1,34.262,18.177a16.5,16.5,0,0,1,11.832,4.892,17.114,17.114,0,0,1,5.054,12.113,16.905,16.905,0,0,1-16.906,16.78h-.108M34.418,20.2h-.137A14.862,14.862,0,0,0,19.374,35.1a14.657,14.657,0,0,0,4.316,10.482,14.9,14.9,0,0,0,10.443,4.349h.109A14.873,14.873,0,0,0,49.12,35.173a15.076,15.076,0,0,0-4.456-10.666,14.468,14.468,0,0,0-10.246-4.3M34.2,49.9A14.72,14.72,0,0,1,19.448,35.128,14.271,14.271,0,0,1,23.559,24.87,14.715,14.715,0,0,1,34.21,20.3h.018a14.847,14.847,0,0,1,14.8,14.771A14.744,14.744,0,0,1,34.255,49.9Zm.024-27.568h-.015a12.7,12.7,0,0,0-9.194,3.945,12.232,12.232,0,0,0-3.543,8.807v.057a12.5,12.5,0,0,0,3.636,8.931,12.645,12.645,0,0,0,9.092,3.8h.044a12.77,12.77,0,0,0-.021-25.54" transform="translate(-8.551 -8.96)"/></g><path class="a" d="M20.612,14.885,11.725,9.755,2.839,14.885A1.892,1.892,0,1,1,.947,11.607L7.941,7.569.947,3.532A1.892,1.892,0,1,1,2.839.254l8.887,5.131L20.612.254A1.893,1.893,0,0,1,22.5,3.532L15.51,7.569,22.5,11.607a1.893,1.893,0,1,1-1.893,3.278Z" transform="translate(1341.543 1618.408)"/></g></svg>