<svg xmlns="http://www.w3.org/2000/svg" xmlns:xlink="http://www.w3.org/1999/xlink" width="68.088" height="68.088" viewBox="0 0 68.088 68.088"><defs><style>.a{fill:none;}.b{clip-path:url(#a);}</style><clipPath id="a"><rect class="a" width="32.045" height="64.245"/></clipPath></defs><g transform="translate(0 22.659) rotate(-45)"><g class="b"><path d="M32.042,32.145q0,13.025,0,26.05c0,3.7-2.091,5.948-5.817,5.991q-10.192.117-20.386,0C2.132,64.138,0,61.806,0,58.068Q0,32.064.009,6.061C.01,2.43,2.224.085,5.865.05q10.193-.1,20.387,0C29.841.087,32.031,2.413,32.038,6q.023,11.187.005,22.374,0,1.888,0,3.776M29.108,53.454V8.139a.842.842,0,0,0-.842-.842h-.3c-7.955,0-15.909.016-23.864-.024-.973,0-1.205.283-1.2,1.225q.081,12.725.072,25.45,0,9.444-.074,18.888c-.009.937.286,1.152,1.176,1.149,7.988-.031,15.976-.018,23.964-.018h.556a.514.514,0,0,0,.514-.513m-13.057,2.49a2.933,2.933,0,1,0,2.93,2.926,2.98,2.98,0,0,0-2.93-2.926M15.985,4.383c1.193,0,2.386-.012,3.579.006.5.007.859-.109.866-.685.006-.527-.241-.769-.793-.766q-3.579.022-7.158,0c-.525,0-.814.183-.813.743,0,.585.335.711.84.7,1.16-.016,2.32,0,3.48,0" transform="translate(-0.001 0)"/></g></g></svg>