<svg xmlns="http://www.w3.org/2000/svg" width="74.449" height="55.259" viewBox="0 0 74.449 55.259"><defs><style>.a{fill:#85487e;}</style></defs><g transform="matrix(0.966, 0.259, -0.259, 0.966, -1536.412, -2028.808)"><path class="a" d="M2019,1586.264v-20.815a2.728,2.728,0,0,0,.073-.374,5.79,5.79,0,0,1,1.407-3.473,6.209,6.209,0,0,1,4.989-2.214q26.648,0,53.3,0a11.936,11.936,0,0,1,1.571.108,6.135,6.135,0,0,1,5.053,5.056c.042.3.089.6.133.894v20.815c-.026.134-.057.267-.076.4-.031.228-.038.459-.082.684a6.188,6.188,0,0,1-6.132,4.984c-6.309-.019-12.619-.006-18.928,0-.133,0-.265.015-.459.026l2.62,6.416c-.158-.084-.239-.125-.318-.169q-5.506-3.058-11.015-6.11a1.346,1.346,0,0,0-.625-.157q-12.582-.012-25.163-.009a7.972,7.972,0,0,1-.855-.049,6.111,6.111,0,0,1-5.36-5.119C2019.086,1586.86,2019.043,1586.562,2019,1586.264Zm23.258-7.5c-.035-.081-.072-.155-.1-.231a50.576,50.576,0,0,1-2.235-8.027,7.021,7.021,0,0,0-.567-1.983,1.906,1.906,0,0,0-2.6-.787,2.981,2.981,0,0,0-1.261,1.356q-2.858,5.42-5.709,10.844c-.053.1-.107.2-.192.355-.046-.16-.075-.245-.094-.333-.469-2.214-.978-4.422-1.4-6.646-.45-2.395-.826-4.8-1.21-7.21-.191-1.2-.7-1.833-1.845-1.971a2.3,2.3,0,0,0-2.617,1.4,2.768,2.768,0,0,0-.085,1.525c.322,1.942.62,3.888.972,5.825q.587,3.231,1.257,6.447a58.806,58.806,0,0,0,1.931,7.285,6.305,6.305,0,0,0,.993,1.994,1.347,1.347,0,0,0,1.934.35,6.222,6.222,0,0,0,1.273-1.131,17.007,17.007,0,0,0,2.216-3.53q1.811-3.6,3.608-7.2c.038-.075.084-.146.128-.221.324.963.618,1.9.957,2.829a25.266,25.266,0,0,0,3.966,7.341,8.478,8.478,0,0,0,1.744,1.767,2.167,2.167,0,0,0,1.709.383,1.859,1.859,0,0,0,1.463-1.592,7.334,7.334,0,0,0,.072-1.505,40.852,40.852,0,0,1,.164-4.8c.122-1.088.185-2.184.356-3.263.332-2.088.682-4.175,1.1-6.248a19.861,19.861,0,0,1,1.812-5.407,2.351,2.351,0,0,0,.206-1.535,2.415,2.415,0,0,0-1.988-1.841,2.173,2.173,0,0,0-2.335,1.124,16.218,16.218,0,0,0-.74,1.515,35.121,35.121,0,0,0-2.163,8.064C2042.71,1575.379,2042.5,1577.066,2042.258,1578.764Zm24.32-1.15c.023.312.053.624.068.936a10.347,10.347,0,0,0,.785,3.483,6.692,6.692,0,0,0,7.878,4.081,7.018,7.018,0,0,0,4.265-3.055,14.508,14.508,0,0,0,2.6-9.965,9.706,9.706,0,0,0-1.189-3.821,6.726,6.726,0,0,0-7.835-3.083,7.306,7.306,0,0,0-3.851,2.927A14.46,14.46,0,0,0,2066.578,1577.615Zm-16.9.141c.014.227.038.64.065,1.053a10.009,10.009,0,0,0,.917,3.562,6.65,6.65,0,0,0,7.219,3.845,6.429,6.429,0,0,0,3.743-1.935,12.235,12.235,0,0,0,2.572-4,14.544,14.544,0,0,0,1.075-6.862,9.867,9.867,0,0,0-1.375-4.412,6.692,6.692,0,0,0-6.931-2.993,6.788,6.788,0,0,0-4.26,2.675A14.246,14.246,0,0,0,2049.674,1577.755Z"/><path class="a" d="M2961.144,1766.782a8.394,8.394,0,0,1,2.028-5.466,2.819,2.819,0,0,1,1.622-1.087,1.605,1.605,0,0,1,1.73.71,5.35,5.35,0,0,1,.946,2.511,8.845,8.845,0,0,1-1.167,5.711,4.742,4.742,0,0,1-1.791,1.77,1.668,1.668,0,0,1-2.477-.621A6.259,6.259,0,0,1,2961.144,1766.782Z" transform="translate(-889.914 -189.669)"/><path class="a" d="M2655.247,1766.865a8.533,8.533,0,0,1,2.083-5.651,2.772,2.772,0,0,1,1.514-1.013,1.623,1.623,0,0,1,1.786.7,5.193,5.193,0,0,1,.93,2.43,8.656,8.656,0,0,1-1.37,6.113,4.5,4.5,0,0,1-1.6,1.462,1.693,1.693,0,0,1-2.484-.68A6.28,6.28,0,0,1,2655.247,1766.865Z" transform="translate(-600.974 -189.632)"/></g></svg>