<svg xmlns="http://www.w3.org/2000/svg" width="127.417" height="52.013" viewBox="0 0 127.417 52.013"><defs><style>.a{fill:#b60011;}.b{fill:#1c1c1c;}</style></defs><g transform="translate(5.686) rotate(13)"><path class="a" d="M295.974,122.077,285.39,111.432a.186.186,0,0,1,.03-.091c3.044-2.865,5.708-6.176,9.433-8.255a15.085,15.085,0,0,1,7.372-1.971c1.767-.01,3.532-.038,5.3,0a5.944,5.944,0,0,1,5.736,4.974,6.611,6.611,0,0,1,0,.886H312.2c-2.837,0-5.671.013-8.507-.013-.627,0-.9.157-.859.825s.01,1.382.01,2.115a3.319,3.319,0,0,0,.538.1c2.836,0,5.673-.021,8.507.012a4.61,4.61,0,0,0,3.466-1.513c2.2-2.22,4.434-4.4,6.613-6.646a2.333,2.333,0,0,1,1.9-.77c2.3.046,4.619.016,7.146.016-.312.358-.485.587-.7.793L315.06,117.219a2.227,2.227,0,0,1-1.569.742c-4.012.234-8.022.586-12.032.749a4.879,4.879,0,0,0-4.339,1.94C296.786,121.15,296.365,121.592,295.974,122.077Z" transform="translate(-284.747 -94.017)"/><path class="a" d="M335.955,96.8a4.731,4.731,0,0,1-1.795,3.649,6.036,6.036,0,0,1-3.86,1.316q-19.832.01-39.668,0a5.4,5.4,0,0,1-5.492-3.926c-.272-.957-.216-1.039.8-1.039Z" transform="translate(-285 -96.798)"/><path class="b" d="M321.807,112.254v-4.307a5.318,5.318,0,0,0,.584-.122c.645-.186,1.049-.648.858-1.28a1.561,1.561,0,0,0-.934-.929,1.058,1.058,0,0,0-1.326.691v0a.928.928,0,0,0-.041.178,4.807,4.807,0,0,0-.076,1.033V118h-4.822a2.556,2.556,0,0,1-.087-.485c.021-3.68-.017-7.359.1-11.031a5.744,5.744,0,0,1,4.861-5.449,5.989,5.989,0,0,1,6.725,2.928,5.691,5.691,0,0,1-.193,6.015C326.143,111.988,324.121,112.389,321.807,112.254Z" transform="translate(-264.887 -94.164)"/><path class="b" d="M343.308,103.726a6.275,6.275,0,0,1,6.331,6.214v.183a6.417,6.417,0,0,1-6.44,6.363,6.294,6.294,0,0,1-6.386-6.2v-.157a6.213,6.213,0,0,1,6.016-6.4C342.988,103.718,343.149,103.72,343.308,103.726Zm1.734,6.384a1.81,1.81,0,1,0-1.749,1.942,1.984,1.984,0,0,0,1.749-1.938Z" transform="translate(-251.343 -92.301)"/><path class="b" d="M333.176,117.858h-3.722V101.141h3.722Z" transform="translate(-256.122 -93.977)"/><path class="b" d="M350.267,117.856h-4.406V101.145h4.406Z" transform="translate(-245.464 -93.974)"/><path class="b" d="M359.157,117.852h-4.4V101.146h4.4Z" transform="translate(-239.683 -93.973)"/><path class="b" d="M365.425,116.122c-1.628,0-3.1.013-4.564-.025a.826.826,0,0,1-.592-.449q-1.324-3.566-2.58-7.163a1.2,1.2,0,0,1,.087-.8c.51-1.107,1.039-2.192,1.607-3.261a1.022,1.022,0,0,1,.658-.533c1.378-.051,2.76-.025,4.324-.025-.693,1.368-1.25,2.56-1.882,3.717a1.564,1.564,0,0,0-.063,1.536C363.424,111.391,364.378,113.669,365.425,116.122Z" transform="translate(-237.801 -92.208)"/><path class="b" d="M329.018,116.1h-4.382c-.023-.287-.058-.559-.059-.833,0-3.5.018-7-.018-10.493-.008-.737.228-.953.937-.916.982.054,1.961.031,2.946.01.457-.012.688.112.685.627-.015,3.756-.01,7.512-.018,11.273A1.771,1.771,0,0,1,329.018,116.1Z" transform="translate(-259.302 -92.215)"/><path class="b" d="M354.681,116.1h-4.352c-.021-.3-.061-.572-.061-.85,0-3.5.011-7-.013-10.493,0-.65.137-.949.858-.9,1.008.063,2.022.021,3.032.012.393,0,.666.056.665.553q-.025,5.726-.028,11.448C354.783,115.918,354.744,115.97,354.681,116.1Z" transform="translate(-242.609 -92.217)"/><path class="b" d="M339.651,116.123c-1.577,0-3.068.016-4.565-.02-.176,0-.434-.264-.5-.459q-1.3-3.543-2.549-7.1a1.042,1.042,0,0,1,.02-.721q.816-1.772,1.717-3.505a.816.816,0,0,1,.581-.386c1.353-.036,2.714-.02,4.246-.02-.632,1.264-1.16,2.436-1.793,3.552a1.764,1.764,0,0,0-.043,1.777c.912,2.027,1.768,4.089,2.633,6.13C339.477,115.577,339.538,115.795,339.651,116.123Z" transform="translate(-254.483 -92.177)"/><path class="b" d="M326.96,100.554a2.169,2.169,0,1,1-2.39,2.085,2.228,2.228,0,0,1,2.362-2.088h0Z" transform="translate(-259.296 -94.363)"/><path class="b" d="M355.592,101.413a16.123,16.123,0,0,1-2.491,2.529c-.607.394-1.582.213-2.4.29l-.087-.206c.749-.821,1.457-1.683,2.27-2.44.232-.219.752-.15,1.145-.168C354.52,101.389,355.012,101.413,355.592,101.413Z" transform="translate(-242.374 -93.806)"/></g></svg>