<svg xmlns="http://www.w3.org/2000/svg" width="138.622" height="32.527" viewBox="0 0 138.622 32.527"><defs><style>.a{fill:#e50d1c;}</style></defs><g transform="translate(-483.964 -396.381)"><path class="a" d="M491.036,428.906c-1.65,0-3.3.007-4.949,0s-2.242-.611-2.1-2.263q.869-10.3,1.784-20.593c.223-2.556.437-5.114.695-7.667a2.043,2.043,0,0,1,2.067-2c4.418.056,8.867-.109,13.244.368,7.284.794,11.733,6.05,11.822,13.4.054,4.468-.858,8.678-3.652,12.291-3.1,4.009-7.365,5.868-12.282,6.28-2.194.184-4.416.031-6.625.031Zm16-21.632-.067-.007c.009-.14.016-.281.029-.421.147-1.608,0-1.77-1.6-1.773-1.333,0-2.668.031-4-.01-.979-.03-1.382.4-1.453,1.359-.173,2.347-.416,4.689-.611,7.035a2.442,2.442,0,0,1-1.44,2.376,2.266,2.266,0,0,1-2.712-.854c-.512-.647-1.02-.6-1.615-.114-1.034.843-2.073,1.682-3.145,2.474-.8.592-.848,1.152-.219,1.926a8.186,8.186,0,0,0,6.191,2.9c4.782.318,8.957-2.331,9.746-6.94C506.586,412.6,506.744,409.927,507.033,407.274Z" transform="translate(0)"/><path class="a" d="M616.041,442.581h-2.526c-.844,0-1.217-.425-1.143-1.261.361-4.059.708-8.12,1.091-12.177.136-1.438.338-1.579,1.789-1.584,1.263,0,2.526-.012,3.789,0,4.829.048,7.47,3.074,6.867,7.858a7.681,7.681,0,0,1-7.553,7.123c-.768.049-1.543.007-2.314.007Zm.871-11.872-.75,8.722c2.061.163,3.881.106,5.146-1.651a5.69,5.69,0,0,0,.365-5.605C620.534,430.447,618.786,430.612,616.912,430.709Z" transform="translate(-92.298 -22.407)"/><path class="a" d="M704,443.373c3-2.265,4.579-2.248,6.326.007a3.3,3.3,0,0,1,.7-.567,10.265,10.265,0,0,1,2.782-1.064,2.67,2.67,0,0,1,3.248,2.939,69.041,69.041,0,0,1-.577,7.029c-.045.374-.674.759-1.114.976-.311.154-.757.023-1.143.04-.987.042-1.291-.464-1.2-1.386.166-1.642.329-3.287.4-4.934.021-.463-.167-1.251-.438-1.339a1.639,1.639,0,0,0-1.491.334,7.071,7.071,0,0,0-1.132,2.518,25.036,25.036,0,0,0-.369,3.559,1.174,1.174,0,0,1-1.355,1.247c-.316-.008-.632.01-.947,0-1.084-.043-1.347-.359-1.245-1.456.149-1.608.34-3.215.41-4.827.021-.484-.238-1.354-.48-1.4a1.909,1.909,0,0,0-1.569.479,4.978,4.978,0,0,0-.959,2.152c-.243,1.271-.3,2.579-.414,3.873a1.146,1.146,0,0,1-1.312,1.177c-.386-.006-.772,0-1.157,0-.742,0-1.127-.373-1.064-1.112q.37-4.3.779-8.606c.11-1.152.992-1.064,1.815-1.083C703.4,441.905,704.181,441.99,704,443.373Z" transform="translate(-155.22 -32.564)"/><path class="a" d="M863.9,432.249c.108-1.217.189-2.336.311-3.45.137-1.249.644-1.481,2.548-1.34,1.119.082,1.038.83.973,1.59-.344,3.986-.7,7.971-1.038,11.958-.064.763-.218,1.459-1.148,1.452-.877-.007-2,.453-2.266-.821a14.393,14.393,0,0,1-2.887,1.037,3.78,3.78,0,0,1-4.46-3.2,9.7,9.7,0,0,1,.17-4.133C857.1,431.827,860.292,430.6,863.9,432.249Zm-4.641,4.873c-.007,1.541.568,2.415,1.526,2.608a2.181,2.181,0,0,0,2.567-1.624,4.5,4.5,0,0,0,.225-1.331,2.044,2.044,0,0,0-1.549-2.3,2.265,2.265,0,0,0-2.476,1.5A7.409,7.409,0,0,0,859.254,437.122Z" transform="translate(-267.281 -22.313)"/><path class="a" d="M926.257,441.739c3.116-.006,5.375,1.859,5.65,4.665a6.2,6.2,0,0,1-5.126,6.479,8.8,8.8,0,0,1-1.463.135,5.353,5.353,0,0,1-5.277-3.109,5.959,5.959,0,0,1,1.524-6.378A6.717,6.717,0,0,1,926.257,441.739Zm-2.956,5.982a2.148,2.148,0,0,0,2.278,2.316,2.738,2.738,0,0,0,2.7-2.883,2.263,2.263,0,0,0-2.288-2.463A2.835,2.835,0,0,0,923.3,447.721Z" transform="translate(-313.2 -32.605)"/><path class="a" d="M766.924,447.974c.219,1.28.88,1.909,1.937,1.939a6.5,6.5,0,0,0,2.245-.367c.816-.28,1.4-.328,1.783.6.423,1.017.312,1.49-.649,1.976a7.361,7.361,0,0,1-5.215.624c-3.78-.938-5-5.717-2.318-8.97A6.11,6.11,0,0,1,771.1,441.9a4.349,4.349,0,0,1,2.734,5.085,1.371,1.371,0,0,1-1.535.992C770.548,447.966,768.8,447.974,766.924,447.974Zm3.528-2.1c-.027-1.067-.509-1.572-1.4-1.622a1.668,1.668,0,0,0-1.683,1.622Z" transform="translate(-200.774 -32.531)"/><path class="a" d="M666.275,451.841a15.633,15.633,0,0,1-2.872,1.086,2.89,2.89,0,0,1-3.373-1.882,3.117,3.117,0,0,1,1.443-3.814,13.74,13.74,0,0,1,3.054-1.035,14.045,14.045,0,0,1,2.029-.237c.158-.84-.258-1.3-.96-1.3a8.81,8.81,0,0,0-2.351.386c-.809.227-1.332.124-1.659-.739-.313-.827-.235-1.453.621-1.825a7.946,7.946,0,0,1,5.132-.587,3.394,3.394,0,0,1,2.82,3.559c-.07,2.034-.287,4.063-.47,6.092-.063.7-.406,1.234-1.2,1.179-.765-.053-1.779.416-2.053-.856a.754.754,0,0,0-.144-.251c-.011-.016-.067,0-.1,0Zm.088-3.908A12.857,12.857,0,0,0,664,448.6a1.274,1.274,0,0,0-.429,1.189,1.394,1.394,0,0,0,1.177.488C665.7,450.176,666.329,449.275,666.363,447.933Z" transform="translate(-126.434 -32.573)"/><path class="a" d="M816.641,444.224c-.293,3.183-.542,6.37-.892,9.547a4.64,4.64,0,0,1-5.335,3.894,1.237,1.237,0,0,1-.8-.873c.015-.715-.2-1.8.794-1.948,1.747-.262,1.917-1.414,2.012-2.8.184-2.662.445-5.319.665-7.979.116-1.4.523-1.633,2.468-1.558C816.816,442.559,816.665,443.4,816.641,444.224Z" transform="translate(-234.082 -33.15)"/><path class="a" d="M900.933,438.055c.249-3.007.489-6.015.752-9.021.156-1.776,1.452-2.585,3.052-1.808.33.161.547.93.516,1.4-.2,3.011-.476,6.017-.733,9.024-.059.691-.045,1.221.769,1.609.927.441.435,1.4.25,2.079a1.55,1.55,0,0,1-1.09.875c-2.135.276-3.43-.862-3.547-3-.021-.384,0-.771,0-1.156Z" transform="translate(-299.707 -21.96)"/><path class="a" d="M839.5,453.254c-1.567,0-1.739-.247-1.576-1.812.264-2.551.448-5.11.7-7.662.126-1.26.651-1.495,2.535-1.331,1.094.1,1.044.843.979,1.609-.209,2.45-.414,4.9-.646,7.349C841.335,453.114,841.157,453.259,839.5,453.254Z" transform="translate(-254.408 -33.082)"/><path class="a" d="M966.205,472.3c-.708.024-1.43-.011-1.4-1.179.04-1.847.338-2.212,1.959-2.224.882-.006,1.507.149,1.47,1.257C968.169,471.976,967.914,472.3,966.205,472.3Z" transform="translate(-345.646 -52.124)"/><path class="a" d="M681.085,427.017l1.244.549a6.95,6.95,0,0,1-.566,1.168c-.649.887-1.364,1.7-2.643,1.531-.812-.106-1.059-.484-.638-1.187C679.06,428.111,679.5,426.907,681.085,427.017Z" transform="translate(-139.682 -22.017)"/><path class="a" d="M825.475,427.553c.708-.027,1.471-.021,1.448,1.141-.025,1.271-.417,1.607-1.964,1.61-.807,0-1.583.026-1.56-1.14C823.426,427.889,823.819,427.546,825.475,427.553Z" transform="translate(-244.001 -22.403)"/><path class="a" d="M847.151,427.113c.391.161,1.021.239,1.112.5.107.308-.187.831-.43,1.172-.664.93-1.423,1.748-2.747,1.544-.551-.085-.827-.335-.683-.919A3.117,3.117,0,0,1,847.151,427.113Z" transform="translate(-259.073 -22.091)"/></g></svg>