<svg xmlns="http://www.w3.org/2000/svg" xmlns:xlink="http://www.w3.org/1999/xlink" width="169.297" height="64.865" viewBox="0 0 169.297 64.865"><defs><style>.a{fill:none;}.b{clip-path:url(#a);}.c{fill:#0f0e0b;}.d{fill:#161615;}.e{clip-path:url(#b);}.f{fill:url(#c);}.g{fill:#830a0f;font-size:19px;font-family:Rubik-Medium, Rubik;font-weight:500;}</style><clipPath id="a"><rect class="a" width="92.942" height="22.5"/></clipPath><clipPath id="b"><path class="a" d="M0,41.784H12.334L0,24.2Z" transform="translate(0 -24.202)"/></clipPath><linearGradient id="c" y1="1" x2="0.012" y2="1" gradientUnits="objectBoundingBox"><stop offset="0" stop-color="#ad0011"/><stop offset="1" stop-color="#830a0f"/></linearGradient></defs><g transform="matrix(0.966, -0.259, 0.259, 0.966, -1334.765, -205.24)"><g transform="translate(1225 585.372)"><g transform="translate(0)"><g class="b"><path class="c" d="M169.645,32.705h6.525v2.924h-6.312a1.613,1.613,0,0,0-1.192.349,1.89,1.89,0,0,0-.33,1.285v.886h7.834v2.944h-7.834v1.043a1.873,1.873,0,0,0,.325,1.271,1.623,1.623,0,0,0,1.2.344h6.312v2.944h-6.525a4.209,4.209,0,0,1-3.175-1.009,4.879,4.879,0,0,1-.947-3.382V37.077a4.854,4.854,0,0,1,.942-3.372,4.231,4.231,0,0,1,3.179-1" transform="translate(-140.699 -27.502)"/><path class="d" d="M274.991,32.705h6.841v2.924h-6.9a1.536,1.536,0,0,0-1.054.32,1.211,1.211,0,0,0-.357.95,1.181,1.181,0,0,0,.357.935,1.549,1.549,0,0,0,1.054.315H277.9a4.661,4.661,0,0,1,3.333,1.132,4.115,4.115,0,0,1,1.2,3.141,4.115,4.115,0,0,1-1.2,3.141,4.66,4.66,0,0,1-3.333,1.132h-6.916V43.751h6.981a1.9,1.9,0,0,0,1.22-.334,1.408,1.408,0,0,0,0-1.994,1.923,1.923,0,0,0-1.22-.33h-2.971a4.274,4.274,0,0,1-3.132-1.127,4.107,4.107,0,0,1-1.146-3.067,4.1,4.1,0,0,1,1.146-3.072,4.285,4.285,0,0,1,3.132-1.122" transform="translate(-230.111 -27.502)"/><path class="d" d="M378.871,32.7h10.814v2.924h-3.992V46.694h-2.812V35.629h-4.01Z" transform="translate(-322.048 -27.502)"/><rect class="d" width="2.812" height="13.99" transform="translate(72.581 5.203)"/><path class="d" d="M539.7,45.184h2.979l-3.648-11.7a3.67,3.67,0,0,0-1.138-1.934,3.074,3.074,0,0,0-2.019-.645,3.018,3.018,0,0,0-1.981.615,4.058,4.058,0,0,0-1.174,1.964l-3.63,11.7h2.989l1.116-3.663h5.389Zm-5.788-6.018,1.472-4.831a.835.835,0,0,1,.19-.369.414.414,0,0,1,.3-.113.449.449,0,0,1,.321.118.823.823,0,0,1,.2.374l1.47,4.821Z" transform="translate(-449.737 -25.991)"/></g></g><g transform="translate(0 4.917)"><g class="e"><rect class="f" width="12.334" height="17.582" transform="translate(0 0)"/></g></g><g transform="translate(0)"><g class="b"><path class="d" d="M2.963,4.48l.008.013h8.276a2.853,2.853,0,0,1,1.991.54A2.476,2.476,0,0,1,13.8,6.858V8.649a2.711,2.711,0,0,1-.542,1.892,2.727,2.727,0,0,1-2.007.574h-3.9l2.9,4.392h0L14.942,22.5h5.669l-5.128-7.7q3.089-1.385,3.089-5.642V6.386a6.384,6.384,0,0,0-1.64-4.815Q15.292,0,11.5,0H0Z" transform="translate(0 0)"/></g></g></g><text class="g" transform="translate(1358.942 603.986)"><tspan x="-34.324" y="0">ONLINE</tspan></text></g></svg>