<svg xmlns="http://www.w3.org/2000/svg" width="31.633" height="27.4" viewBox="0 0 31.633 27.4"><defs><style>.a{fill:#fff;}</style></defs><path class="a" d="M827.129,490.8c-.565-1.5-.4-2.775,1.046-3.667a2.778,2.778,0,0,1,3.136.235,2.809,2.809,0,0,1,.759,3.406c.144.044.284.094.427.129a14.342,14.342,0,0,1,5.492,2.7,12.265,12.265,0,0,1,3.875,5.355,14.776,14.776,0,0,1,.936,4.207c.071,0,.147.01.223.01.493,0,.986,0,1.478.006a.9.9,0,0,1,.926.553.847.847,0,0,1-.647,1.16,2.4,2.4,0,0,1-.453.04q-14.274,0-28.548,0c-.37,0-.74-.006-1.108-.032a.852.852,0,0,1-.045-1.7c.4-.039.81-.022,1.216-.028.158,0,.317,0,.5,0A13.26,13.26,0,0,1,827.129,490.8Zm-9.014,12.335h22.916a10.942,10.942,0,0,0-4.624-8.517c-4.027-2.829-8.263-3.221-12.616-.686A11.085,11.085,0,0,0,818.116,503.136ZM828.56,489.52a1,1,0,0,0,.963,1.028,1.016,1.016,0,0,0,1.061-1,1.012,1.012,0,1,0-2.024-.027Z" transform="translate(-813.861 -477.534)"/><path class="a" d="M1312.566,291.909a3.43,3.43,0,0,1-.925,2.228c-.125.141-.246.285-.372.426a1.7,1.7,0,0,0,.027,2.571,4.453,4.453,0,0,1,1.232,2.575.871.871,0,0,1-.716,1.018.843.843,0,0,1-1.018-.785,2.183,2.183,0,0,0-.654-1.448c-.075-.078-.137-.169-.213-.247a3.485,3.485,0,0,1,.1-4.946c.036-.036.068-.076.1-.111a2.042,2.042,0,0,0,.654-1.421.875.875,0,0,1,1.677-.3A2.693,2.693,0,0,1,1312.566,291.909Z" transform="translate(-1287.417 -290.237)"/><path class="a" d="M971.109,292.034a3.276,3.276,0,0,1-.786,2.046c-.162.195-.33.385-.5.573a1.674,1.674,0,0,0-.09,2.388c.264.336.537.665.791,1.008a3.506,3.506,0,0,1,.579,1.905.821.821,0,0,1-.818.842.809.809,0,0,1-.906-.716,2.569,2.569,0,0,0-.789-1.664,3.625,3.625,0,0,1-1.007-1.863,3.431,3.431,0,0,1,.79-2.914,7.776,7.776,0,0,0,.672-.822,3.559,3.559,0,0,0,.288-.781,1.606,1.606,0,0,0,.037-.258.855.855,0,0,1,.938-.769.872.872,0,0,1,.8.85C971.112,291.918,971.109,291.976,971.109,292.034Z" transform="translate(-960.842 -290.3)"/><path class="a" d="M1138.355,278.419a2.287,2.287,0,0,1,.853-1.729c.158-.138.319-.274.483-.405a1.275,1.275,0,0,0,.517-.867.8.8,0,0,1,.86-.694.815.815,0,0,1,.842.7,2.256,2.256,0,0,1-.036.708,2.225,2.225,0,0,1-.765,1.257c-.249.221-.51.43-.749.662a.571.571,0,0,0,0,.953c.245.236.513.448.768.673a2.421,2.421,0,0,1,.811,1.587.9.9,0,0,1-1.014,1.048.733.733,0,0,1-.657-.557,2.7,2.7,0,0,0-1.039-1.4A2.28,2.28,0,0,1,1138.355,278.419Z" transform="translate(-1124.243 -274.723)"/></svg>