<svg xmlns="http://www.w3.org/2000/svg" xmlns:xlink="http://www.w3.org/1999/xlink" width="44.317" height="21.896" viewBox="0 0 44.317 21.896"><defs><style>.a{fill:#fff;}.b{clip-path:url(#a);}</style><clipPath id="a"><rect class="a" width="44.317" height="21.896"/></clipPath></defs><g class="b"><path class="a" d="M149.783.017c2.59,0,5.18.013,7.77-.006a3.222,3.222,0,0,1,2.69,1.276c1.535,1.9,3.1,3.768,4.66,5.65a8.272,8.272,0,0,0,2.817,2.287,2.875,2.875,0,0,1,1.674,2.673,31.662,31.662,0,0,1,0,3.218,3.215,3.215,0,0,1-2.443,2.968,1.478,1.478,0,0,0-1.1,1.125,3.705,3.705,0,0,1-3.764,2.687A3.75,3.75,0,0,1,158.42,19.2c-.256-.8-.32-.847-1.185-.844q-4.967.016-9.934.035c-.277,0-.554-.025-.83-.034-.434-.015-.766-.169-.817-.65a1.117,1.117,0,0,1,.831-1.041,3.754,3.754,0,0,1,.5-.012q5.044,0,10.089,0c.509,0,1.342-.027,1.849-.077.65-.065.965.158,1.017.767.022.256-.018.518,0,.775a2.27,2.27,0,0,0,2.235,2.106,2.3,2.3,0,0,0,2.2-2.158,2.243,2.243,0,0,0-1.98-2.29c-.294-.035-.592-.049-.881-.108a.793.793,0,0,1-.721-.733.762.762,0,0,1,.639-.8,3.564,3.564,0,0,1,3.6,1.181,3.794,3.794,0,0,1,.669.946c.157.305.326.326.618.234a1.849,1.849,0,0,0,1.416-1.83c.022-.813.015-1.628,0-2.442a1.632,1.632,0,0,0-1.009-1.587,8.277,8.277,0,0,1-3.094-2.546c-1.392-1.729-2.813-3.434-4.191-5.174a3.21,3.21,0,0,0-2.731-1.291c-4.958.037-9.916.037-14.874.036a1.242,1.242,0,0,1-.821-.217,1.048,1.048,0,0,1-.262-.862.971.971,0,0,1,.7-.542c.958-.067,1.922-.034,2.884-.035q2.72,0,5.439,0Z" transform="translate(-125.116 0)"/><path class="a" d="M68.953,21.987a3.752,3.752,0,0,1-3.794-3.071,1.307,1.307,0,0,0-.888-1.078,4.983,4.983,0,0,1-2.942-5.032c.365-3.19.88-6.365,1.4-9.535A3.489,3.489,0,0,1,65.481.215,4.928,4.928,0,0,1,66.634.125c.567,0,.858.276.877.777a.862.862,0,0,1-.815.882c-.292.045-.587.074-.876.134a1.748,1.748,0,0,0-1.433,1.57c-.458,2.883-.93,5.764-1.311,8.658a3.7,3.7,0,0,0,1.46,3.879c.689.467.781.459,1.276-.217a4.038,4.038,0,1,1,3.141,6.179m-.007-1.649a2.247,2.247,0,1,0,.027-4.493,2.237,2.237,0,0,0-2.217,2.169,2.282,2.282,0,0,0,2.191,2.324" transform="translate(-54.498 -0.111)"/><path class="a" d="M254.685,34.573a.082.082,0,0,0,.082.086h3.592c.407,0,.814-.008,1.221,0,.681.018,1.032.3,1.055.814s-.346.87-1.039.893c-.831.028-1.664.01-2.5.011-1.054,0-2.109.014-3.162-.006-.89-.017-1.178-.33-1.076-1.2.173-1.486.377-2.969.583-4.452.09-.647.412-.93.925-.868.561.068.839.464.759,1.133-.13,1.082-.28,2.162-.42,3.244-.013.1-.016.208-.022.346" transform="translate(-224.782 -26.531)"/><path class="a" d="M112.935,67.248h-7.1a.832.832,0,0,0,0,1.665h7.1a.832.832,0,0,0,0-1.665" transform="translate(-93.348 -59.785)"/><path class="a" d="M116.047,35.248h-6.215a.832.832,0,0,0,0,1.665h6.215a.832.832,0,0,0,0-1.665" transform="translate(-96.904 -31.336)"/><path class="a" d="M23.608,68.248H21.832a.832.832,0,0,0,0,1.665h1.776a.832.832,0,1,0,0-1.665" transform="translate(-18.67 -60.674)"/><path class="a" d="M4.273,99.248H.832a.832.832,0,0,0,0,1.665h3.44a.832.832,0,0,0,0-1.665" transform="translate(0 -88.234)"/></g></svg>