<svg xmlns="http://www.w3.org/2000/svg" xmlns:xlink="http://www.w3.org/1999/xlink" width="35.097" height="35.108" viewBox="0 0 35.097 35.108"><defs><style>.a{fill:#fff;}.b{clip-path:url(#a);}</style><clipPath id="a"><rect class="a" width="35.097" height="35.108"/></clipPath></defs><g class="b"><path class="a" d="M5.028,24.279c1.162-1.085,2.312-2.135,3.432-3.216a2.7,2.7,0,0,0,.772-1.844q.409-6.8.8-13.6.138-2.332.294-4.662c.042-.629.259-.851.89-.933A4,4,0,0,1,11.73,0H26.816c.079,0,.157,0,.236,0,.89.026,1.15.29,1.206,1.185q.461,7.267.927,14.534c.021.324.035.648.057,1.047.161-.106.265-.17.364-.241.512-.363,1-.767,1.539-1.084a2.529,2.529,0,0,1,2.788.067,2.394,2.394,0,0,1,1.15,2.376,2.756,2.756,0,0,1-.862,1.634c-2.665,2.829-5.351,5.639-7.989,8.494a4.334,4.334,0,0,1-4.1,1.282c-2.62-.347-5.25-.617-7.877-.9a1.864,1.864,0,0,0-1.525.482c-.429.4-.852.81-1.3,1.235.085.109.173.216.255.327a1.449,1.449,0,0,1-.022,1.883c-.782.844-1.6,1.661-2.443,2.44a1.449,1.449,0,0,1-2-.125c-1.08-.952-2.136-1.931-3.2-2.9S1.913,29.811.863,28.845A5.235,5.235,0,0,1,.4,28.369a1.425,1.425,0,0,1-.032-1.937C1.121,25.6,1.919,24.8,2.75,24.046a1.462,1.462,0,0,1,1.919-.038c.118.081.23.173.359.271M12.022,1.734l-1.031,16.93a4.314,4.314,0,0,1,3.659-.56c3.124.707,6.255,1.384,9.38,2.085a.986.986,0,0,0,.878-.18c.784-.59,1.59-1.152,2.364-1.755a1.019,1.019,0,0,0,.278-.558,2.116,2.116,0,0,0-.015-.586q-.431-6.8-.864-13.593c-.038-.593-.089-1.186-.134-1.782ZM10.1,28.934c.52-.482,1-.922,1.478-1.373a3.127,3.127,0,0,1,2.609-.917c2.886.32,5.774.624,8.659.961a2.264,2.264,0,0,0,2.045-.737q2.7-2.876,5.407-5.747c.933-.991,1.868-1.98,2.794-2.977a.685.685,0,0,0,.162-.889.917.917,0,0,0-.985-.4,1.62,1.62,0,0,0-.486.243q-2.733,2.016-5.458,4.043a1.629,1.629,0,0,1-.209.117c.068.133.089.181.116.226a2.642,2.642,0,0,1-.059,3.093A2.551,2.551,0,0,1,23.3,25.611c-1.588-.382-3.155-.852-4.746-1.217A1.934,1.934,0,0,1,17.12,23.2c.155-.114.322-.22.468-.349a1.133,1.133,0,0,1,1.164-.222c.89.262,1.793.476,2.692.709.746.194,1.49.4,2.24.576a.972.972,0,0,0,1.235-.678.993.993,0,0,0-.731-1.206,3.1,3.1,0,0,0-.3-.08Q18.89,20.84,13.9,19.731a2.312,2.312,0,0,0-2.225.663C10.4,21.62,9.108,22.827,7.844,24.06c-.49.478-.931,1.008-1.4,1.522L10.1,28.934m-1.852,4.3,1.883-1.894L3.767,25.521,1.881,27.4l6.368,5.829" transform="translate(0 0)"/><path class="a" d="M180.083,51c0-.8-.023-1.6.008-2.394.022-.588.3-.846.808-.858a.77.77,0,0,1,.878.794,12.633,12.633,0,0,1,.036,1.371c.006.943-.016,1.886.013,2.827a3.371,3.371,0,0,0,6.739.042c.048-1.32.015-2.644.022-3.966,0-.421.065-.816.525-1a.836.836,0,0,1,1.2.8c.022.562.024,1.126.015,1.688-.017.99.006,1.985-.087,2.968a5.042,5.042,0,0,1-6.363,4.354,5.132,5.132,0,0,1-3.816-5.094c0-.511,0-1.021,0-1.532h.025" transform="translate(-165.908 -43.989)"/></g></svg>