<svg xmlns="http://www.w3.org/2000/svg" xmlns:xlink="http://www.w3.org/1999/xlink" width="96.594" height="97.885" viewBox="0 0 96.594 97.885"><defs><style>.a{fill:#c30010;}.b{clip-path:url(#a);}</style><clipPath id="a"><rect class="a" width="96.594" height="97.884"/></clipPath></defs><g transform="translate(0)"><g class="b" transform="translate(0 0)"><path class="a" d="M46.374,97.885A1.975,1.975,0,0,1,44.4,95.858l.489-19.343-.709-.684L42.4,82.637a3.389,3.389,0,0,1-2.436,2.433,5.833,5.833,0,0,1-5.284-1.409L14.54,64.351A5.912,5.912,0,0,1,12.914,59a3.288,3.288,0,0,1,2.411-2.433l6.49-2.172-.4-.379L2.109,55.331a1.977,1.977,0,0,1-2.1-2.186C1.56,38.773,4.71,23.329,22.686,22.063c3.831-.269,7.773.813,11.587,1.859,1.354.371,2.752.753,4.106,1.063A143.766,143.766,0,0,1,50.818,9.605c9.588-10.005,25-12.389,40.25-6.232l.151.058A2.352,2.352,0,0,1,92.4,4.488l.027.058c.428.928.824,1.865,1.184,2.8a40.487,40.487,0,0,1,2.068,23.584,2.015,2.015,0,0,1-.14.4,30.47,30.47,0,0,1-7.52,13.922A143.583,143.583,0,0,1,73.177,58.333c.368,1.34.807,2.711,1.236,4.051,1.206,3.765,2.453,7.663,2.348,11.5-.5,18.011-15.795,21.821-30.09,23.977a1.775,1.775,0,0,1-.3.022m2.472-21.271-.434,16.973c12.45-2.057,24.007-5.724,24.394-19.81C72.9,70.61,71.8,67.2,70.645,63.59c-.275-.873-.563-1.76-.832-2.656C66.451,63.5,63.007,66.042,59.6,68.553q-2.427,1.788-4.738,3.5a1.321,1.321,0,0,1-.115.132,1.966,1.966,0,0,1-.7.478c-1.793,1.34-3.532,2.65-5.2,3.947M16.726,60.258a2.3,2.3,0,0,0,.547,1.236L37.421,80.8a2.128,2.128,0,0,0,1.252.481L40.911,72.7l-7.657-7.341-8.217-7.874Zm8.091-8.465,22.15,21.233L50.2,70.6l-23.194-22ZM29.272,45.3,53.408,68.19,69.736,55.927a1.929,1.929,0,0,1,.39-.228A141.828,141.828,0,0,0,85.16,42.516,26.386,26.386,0,0,0,91.521,31.08L64.776,5.45a26.53,26.53,0,0,0-11.1,6.891A142.545,142.545,0,0,0,41.139,27.927a1.964,1.964,0,0,1-.206.39ZM16.457,60.349l-.025.008.025-.008m7.459-34.375c-.319,0-.634.011-.948.036C8.907,27,5.737,38.7,4.213,51.225L21.15,50.072c1.154-1.623,2.313-3.3,3.5-5.037a2,2,0,0,1,.5-.926,2.044,2.044,0,0,1,.324-.275q1.607-2.369,3.279-4.856c2.365-3.507,4.76-7.056,7.179-10.522-.909-.231-1.81-.478-2.7-.722a36.89,36.89,0,0,0-9.308-1.76M69.381,4.387,92.4,26.446A37.832,37.832,0,0,0,89.738,8.3c-.192-.481-.4-.961-.6-1.439A38.726,38.726,0,0,0,69.381,4.387M49.277,58a9.554,9.554,0,1,1,6.91-2.941A9.523,9.523,0,0,1,49.277,58m0-15.169a5.611,5.611,0,1,0,3.881,1.557v0a5.59,5.59,0,0,0-3.881-1.555m14.3.242A9.566,9.566,0,1,1,70.208,26.6v0a9.562,9.562,0,0,1-6.624,16.468M63.589,27.9a5.611,5.611,0,1,0,3.881,1.557A5.607,5.607,0,0,0,63.589,27.9" transform="translate(0 -0.001)"/></g></g></svg>