<svg xmlns="http://www.w3.org/2000/svg" xmlns:xlink="http://www.w3.org/1999/xlink" width="96.874" height="90.138" viewBox="0 0 96.874 90.138"><defs><style>.a{fill:#c30010;}.b{clip-path:url(#a);}</style><clipPath id="a"><rect class="a" width="96.874" height="90.138"/></clipPath></defs><g transform="translate(0)"><g class="b" transform="translate(0 0)"><path class="a" d="M29.349,39.068a1.836,1.836,0,0,1-1.337-.581L19.269,29.11a1.827,1.827,0,0,1,2.674-2.491L29.2,34.4,43.454,15.5a1.826,1.826,0,1,1,2.915,2.2L30.807,38.34a1.826,1.826,0,0,1-1.362.726c-.033,0-.066,0-.1,0" transform="translate(28.863 22.705)"/><path class="a" d="M43.357,24.387a1.829,1.829,0,0,1-1.334-3.077l3.5-3.74L36.688,9.3l-3.5,3.74a1.826,1.826,0,0,1-2.666-2.5L34.212,6.6a3.357,3.357,0,0,1,2.352-1.063,3.391,3.391,0,0,1,2.418.906l9.242,8.651a3.379,3.379,0,0,1,.16,4.77l-3.691,3.945a1.829,1.829,0,0,1-1.334.578" transform="translate(46.151 8.509)"/><path class="a" d="M24.4,17.242a1.829,1.829,0,0,1-1.829-1.827V1.827a1.827,1.827,0,0,1,3.653,0V15.415A1.827,1.827,0,0,1,24.4,17.242" transform="translate(34.691 -0.001)"/><path class="a" d="M18.075,23.569h-4.09a1.827,1.827,0,1,1,0-3.653h4.09a1.827,1.827,0,0,1,0,3.653" transform="translate(18.684 30.611)"/><path class="a" d="M24.4,36.462a1.829,1.829,0,0,1-1.829-1.827V30.543a1.827,1.827,0,1,1,3.653,0v4.092A1.827,1.827,0,0,1,24.4,36.462" transform="translate(34.691 44.136)"/><path class="a" d="M37.291,23.569H33.2a1.827,1.827,0,1,1,0-3.653h4.09a1.827,1.827,0,0,1,0,3.653" transform="translate(48.219 30.611)"/><path class="a" d="M24.4,17.247A1.829,1.829,0,0,1,22.57,15.42V11.328a1.827,1.827,0,0,1,3.653,0V15.42A1.827,1.827,0,0,1,24.4,17.247" transform="translate(34.691 14.602)"/><path class="a" d="M40.181,3.654H20.524a1.827,1.827,0,0,1,0-3.653H40.181a1.827,1.827,0,1,1,0,3.653" transform="translate(28.738 0.001)"/><path class="a" d="M41.826,69.762A30.593,30.593,0,1,1,72.417,39.171,30.628,30.628,0,0,1,41.826,69.762m0-57.532A26.939,26.939,0,1,0,68.764,39.171,26.958,26.958,0,0,0,41.826,12.23" transform="translate(17.264 13.182)"/><path class="a" d="M23.12,23.579H1.827a1.827,1.827,0,1,1,0-3.653H23.12a1.827,1.827,0,1,1,0,3.653" transform="translate(0 30.626)"/><path class="a" d="M21.255,27.716H3.94a1.827,1.827,0,0,1,0-3.653H21.255a1.827,1.827,0,1,1,0,3.653" transform="translate(3.248 36.985)"/><path class="a" d="M20.957,31.853H7.7a1.827,1.827,0,0,1,0-3.653H20.957a1.827,1.827,0,0,1,0,3.653" transform="translate(9.025 43.343)"/><path class="a" d="M42.163,81.312a37.915,37.915,0,0,1-30.64-15.669A1.827,1.827,0,1,1,14.484,63.5a34.133,34.133,0,1,0-.155-39.732,1.827,1.827,0,1,1-2.978-2.118A37.786,37.786,0,1,1,42.163,81.312" transform="translate(16.927 8.825)"/><path class="a" d="M22.393,15.305H6.765a1.827,1.827,0,1,1,0-3.653H22.393a1.827,1.827,0,1,1,0,3.653" transform="translate(7.59 17.909)"/><path class="a" d="M21.447,19.442H3.941a1.827,1.827,0,1,1,0-3.653H21.447a1.827,1.827,0,1,1,0,3.653" transform="translate(3.246 24.267)"/></g></g></svg>