<svg xmlns="http://www.w3.org/2000/svg" xmlns:xlink="http://www.w3.org/1999/xlink" width="76.037" height="94.678" viewBox="0 0 76.037 94.678"><defs><style>.a{fill:#c30010;}.b{clip-path:url(#a);}</style><clipPath id="a"><rect class="a" width="76.037" height="94.678" transform="translate(0 0)"/></clipPath></defs><g transform="translate(0)"><g class="b" transform="translate(0 0)"><path class="a" d="M68.224,9.476H47.378a9.476,9.476,0,1,0-18.951,0H7.58A7.588,7.588,0,0,0,0,17.056V87.175a7.588,7.588,0,0,0,7.58,7.58H68.224a7.588,7.588,0,0,0,7.58-7.58V17.056a7.588,7.588,0,0,0-7.58-7.58M37.9,3.79a5.692,5.692,0,0,1,5.685,5.685H32.217A5.692,5.692,0,0,1,37.9,3.79M24.636,13.266H51.168v3.79a3.794,3.794,0,0,1-3.79,3.79H28.427a3.794,3.794,0,0,1-3.79-3.79ZM3.79,87.175V17.056a3.794,3.794,0,0,1,3.79-3.79H20.846v3.79a7.588,7.588,0,0,0,7.58,7.58H47.378a7.588,7.588,0,0,0,7.58-7.58v-3.79H68.224a3.794,3.794,0,0,1,3.79,3.79V72.014H58.748A5.692,5.692,0,0,0,53.063,77.7V90.965H7.58a3.794,3.794,0,0,1-3.79-3.79M69.335,75.8,56.853,88.286V77.7a1.9,1.9,0,0,1,1.9-1.9ZM68.224,90.965H59.533L72.014,78.484v8.691a3.794,3.794,0,0,1-3.79,3.79" transform="translate(0 -0.077)"/><path class="a" d="M15.105,42.79h0a1.893,1.893,0,0,1,0-2.68L31.972,23.243a1.895,1.895,0,1,1,2.68,2.68L17.785,42.79a1.893,1.893,0,0,1-2.68,0" transform="translate(13.024 20.231)"/><path class="a" d="M15.105,23.242h0a1.9,1.9,0,0,1,2.68,0L34.652,40.108a1.9,1.9,0,1,1-2.68,2.682L15.105,25.923a1.9,1.9,0,0,1,0-2.682" transform="translate(13.024 20.231)"/></g></g></svg>