<svg xmlns="http://www.w3.org/2000/svg" xmlns:xlink="http://www.w3.org/1999/xlink" width="89" height="96" viewBox="0 0 89 96"><defs><style>.a{fill:#c30010;}.b{clip-path:url(#a);}</style><clipPath id="a"><rect class="a" width="89" height="96" transform="translate(0.492 0.266)"/></clipPath></defs><g transform="translate(-0.492 -0.266)"><g class="b" transform="translate(0 0)"><path class="a" d="M23.23,42.921V46.65a5.505,5.505,0,0,0,3.932,5.267,5.538,5.538,0,0,0,10.594.006,5.509,5.509,0,0,0,3.934-5.272V42.921c0-.775,1.42-2.524,2.669-4.067,2.769-3.411,6.561-8.086,6.561-14.394A18.46,18.46,0,1,0,14,24.46c0,6.308,3.792,10.982,6.561,14.394,1.25,1.543,2.669,3.291,2.669,4.067M38,46.65a1.818,1.818,0,0,1-1.846,1.809A1.846,1.846,0,0,0,34.306,50.3a1.846,1.846,0,1,1-3.692,0,1.877,1.877,0,0,0-1.883-1.846,1.81,1.81,0,0,1-1.809-1.809V44.767H38ZM32.46,9.692A14.786,14.786,0,0,1,47.229,24.46c0,5-3.181,8.918-5.734,12.068a19.358,19.358,0,0,0-3.129,4.622A1.644,1.644,0,0,0,38,41.075H26.922a1.623,1.623,0,0,0-.367.076,19.359,19.359,0,0,0-3.129-4.622c-2.553-3.149-5.734-7.068-5.734-12.068A14.786,14.786,0,0,1,32.46,9.692" transform="translate(12.314 4.732)"/><path class="a" d="M85.914,48.646a9.852,9.852,0,0,0-6.075-6.941c-2.429-.969-17.358-6.219-20.02-7.153L56.95,31.683a1.851,1.851,0,0,0-2.44-.151L44.3,39.485,34.1,31.532a1.851,1.851,0,0,0-2.44.151l-2.869,2.869c-2.664.934-17.591,6.184-20.02,7.153A9.852,9.852,0,0,0,2.7,48.646,117.7,117.7,0,0,0,.024,64.58a4.587,4.587,0,0,0,1.159,3.537,4.651,4.651,0,0,0,3.452,1.529H83.974a4.651,4.651,0,0,0,3.452-1.529,4.587,4.587,0,0,0,1.159-3.537,117.709,117.709,0,0,0-2.671-15.933m-30.421-13.2L56.647,36.6l-3.685,9.3-5.6-4.122Zm-22.378,0,8.132,6.334-5.6,4.122-3.685-9.3Zm51.571,30.2a.951.951,0,0,1-.713.31H4.635a.951.951,0,0,1-.713-.31.874.874,0,0,1-.225-.687A114.243,114.243,0,0,1,6.278,49.531a6.16,6.16,0,0,1,3.858-4.394c2.073-.827,14.128-5.08,18.6-6.653L33.1,49.492a1.842,1.842,0,0,0,2.81.8l8.4-6.182L52.7,50.3a1.836,1.836,0,0,0,1.095.362,1.857,1.857,0,0,0,1.715-1.167l4.358-11.008c4.473,1.573,16.528,5.826,18.6,6.653a6.16,6.16,0,0,1,3.858,4.394,114.264,114.264,0,0,1,2.581,15.424.876.876,0,0,1-.225.689" transform="translate(0.47 26.004)"/><path class="a" d="M9.846,18.692h3.692a1.846,1.846,0,0,0,0-3.692H9.846a1.846,1.846,0,0,0,0,3.692" transform="translate(7.238 12.346)"/><path class="a" d="M36,16.846a1.846,1.846,0,0,0,1.846,1.846h3.692a1.846,1.846,0,1,0,0-3.692H37.846A1.846,1.846,0,0,0,36,16.846" transform="translate(30.927 12.346)"/><path class="a" d="M24.846,7.384a1.846,1.846,0,0,0,1.846-1.846V1.846a1.846,1.846,0,0,0-3.692,0V5.538a1.846,1.846,0,0,0,1.846,1.846" transform="translate(19.929 -0.344)"/><path class="a" d="M14.129,21.748l-3.2,1.846a1.845,1.845,0,0,0,.925,3.445,1.825,1.825,0,0,0,.921-.249l3.2-1.846a1.845,1.845,0,1,0-1.846-3.2" transform="translate(8.938 17.844)"/><path class="a" d="M36.107,13.039a1.831,1.831,0,0,0,.921-.247l3.2-1.846a1.846,1.846,0,1,0-1.846-3.2l-3.2,1.846a1.846,1.846,0,0,0,.925,3.445" transform="translate(29.454 6)"/><path class="a" d="M17.593,7.976a1.846,1.846,0,0,0,3.2-1.846l-1.846-3.2a1.846,1.846,0,1,0-3.2,1.846Z" transform="translate(13.583 1.356)"/><path class="a" d="M30.424,8.652a1.846,1.846,0,0,0,2.522-.676l1.846-3.2a1.846,1.846,0,1,0-3.2-1.846l-1.846,3.2a1.844,1.844,0,0,0,.676,2.522" transform="translate(25.427 1.356)"/><path class="a" d="M35.183,24.945l3.2,1.846a1.845,1.845,0,1,0,1.846-3.2l-3.2-1.846a1.845,1.845,0,1,0-1.846,3.2" transform="translate(29.454 17.845)"/><path class="a" d="M10.934,10.945l3.2,1.846a1.845,1.845,0,1,0,1.846-3.2L12.78,7.75a1.845,1.845,0,1,0-1.846,3.2" transform="translate(8.938 6)"/></g></g></svg>