<svg xmlns="http://www.w3.org/2000/svg" xmlns:xlink="http://www.w3.org/1999/xlink" width="92.565" height="82.01" viewBox="0 0 92.565 82.01"><defs><style>.a{fill:#c30010;}.b{clip-path:url(#a);}</style><clipPath id="a"><rect class="a" width="92.565" height="82.01"/></clipPath></defs><g transform="translate(0)"><g class="b" transform="translate(0 0)"><path class="a" d="M22.675,41.215a1.888,1.888,0,0,1-1.188-.42L7.212,29.162a1.887,1.887,0,0,1,0-2.916L21.488,14.618a1.881,1.881,0,1,1,2.376,2.916L11.376,27.7,23.863,37.879a1.879,1.879,0,0,1-1.188,3.336" transform="translate(10.507 22.864)"/><path class="a" d="M23.906,41.215a1.879,1.879,0,0,1-1.188-3.336L35.206,27.7,22.719,17.534a1.881,1.881,0,1,1,2.376-2.916L39.37,26.246a1.887,1.887,0,0,1,0,2.916L25.094,40.8a1.888,1.888,0,0,1-1.188.42" transform="translate(35.477 22.864)"/><path class="a" d="M17.778,50.405a1.84,1.84,0,0,1-.394-.042,1.878,1.878,0,0,1-1.446-2.23l7.4-34.628a1.879,1.879,0,1,1,3.676.786l-7.4,34.628a1.878,1.878,0,0,1-1.835,1.485" transform="translate(25.604 19.358)"/><path class="a" d="M90.685,82.01H1.88A1.879,1.879,0,0,1,0,80.13V1.88A1.879,1.879,0,0,1,1.88,0H90.685a1.879,1.879,0,0,1,1.88,1.88V80.13a1.878,1.878,0,0,1-1.88,1.88M3.757,78.253H88.806V3.759H3.757Z" transform="translate(0 0)"/><path class="a" d="M90.685,10.552H1.877a1.878,1.878,0,0,1,0-3.757H90.685a1.878,1.878,0,1,1,0,3.757" transform="translate(0 10.944)"/><path class="a" d="M32.79,10.535a3.792,3.792,0,1,1,3.791-3.793,3.8,3.8,0,0,1-3.791,3.793m0-3.827a.035.035,0,0,0-.037.034Z" transform="translate(46.706 4.753)"/><path class="a" d="M27.936,10.535A3.792,3.792,0,1,1,31.73,6.742a3.8,3.8,0,0,1-3.793,3.793m0-3.827a.035.035,0,0,0-.037.034Z" transform="translate(38.887 4.753)"/></g></g></svg>